<svg xmlns="http://www.w3.org/2000/svg" id="_x2018_ëîé_x5F_1" viewBox="0 0 1000 1000" style="enable-background:new 0 0 1000 1000;"><style>.st0{fill:#D6F3FF;} .st1{fill:#D3DEE3;} .st2{fill:#1D1D1B;} .st3{fill:#FFEDC7;} .st4{fill:url(#SVGID_1_);} .st5{fill:url(#SVGID_2_);} .st6{fill:url(#SVGID_3_);} .st7{fill:url(#SVGID_4_);} .st8{fill:#FFE6F4;} .st9{fill:#FCE8DC;}</style><path d="M533.5 618.5c-3.6-9.5-6.4-18.4-8.6-26.5-.9 4.2-4.5 7.3-8.9 7.3-5 0-9.1-4.1-9.1-9.1s4.1-9.1 9.1-9.1c2.8 0 5.3 1.3 7 3.2-5.4-22.6-5.7-37.1-5.7-37.1-.4-1.8-2.1-3.1-4-2.7l-43.6 3.5c0 .4.1.7.2 1.1 3.4 14.1 12.4 41.5 3.9 57.8-2.7 5.1-5.7 9.5-9.1 13.3 3 1.5 5.1 4.6 5.1 8.2 0 5-4.1 9.1-9.1 9.1-4.4 0-8.1-3.2-9-7.4-14.8 9.3-29 16.2-31.6 24.1-.4 1.8-.4 3.7 0 5.8l2.9 10.2s6.6-1 15.3-2.7c-1.7-1.7-2.8-4-2.8-6.6 0-5 4.1-9.1 9.1-9.1s9.1 4.1 9.1 9.1c0 1.3-.3 2.5-.8 3.7 9.6-2 19.2-4.4 24.7-6.7 19-7.9 15.3-12.6 51.8-22.3 2.5-.7 4.7-1.5 6.6-2.4.6-4.4-.6-9.5-2.5-14.7zm-44.8-43c-5 0-9.1-4.1-9.1-9.1s4.1-9.1 9.1-9.1 9.1 4.1 9.1 9.1-4 9.1-9.1 9.1zm16.1 57.5c-5 0-9.1-4.1-9.1-9.1s4.1-9.1 9.1-9.1 9.1 4.1 9.1 9.1-4.1 9.1-9.1 9.1z" class="st0"/><path d="M570.4 664.6c-.1-.6-.3-1.1-.7-1.6-2.5-2.6-8.4-1-14.3-.6-5.5.4-10.6-2.1-13.2-6.5l-10.7 2.5c0 2.4-1.2 4.6-3.1 6.1-.5 2.9-2.7 5.4-5.7 6.1l-46.2 11.6c-4.1 1-8.4-1.5-9.4-5.7l-.7-2.9-5.1 1.3c-.4 1.8-2.5 5.5-3.9 6.6-.6 3.1-2.9 5.6-6.2 6.2l-9.8 1.8c-4.2.8-8.3-2-9.1-6.2l-5 .3c.4 8.5 8.4 13.1 14.7 11.6l126-29.5c.8-.2 1.7-.6 2.4-1.1z" class="st1"/><path d="M574.8 656.1c-2.6-2.8-7.2-2.3-12-1.7-1.3.2-2.7.3-4.1.4-4.1.3-7.9-1.3-10.2-4.2 2-.8 3.7-2.2 4.8-4.1 1.3-2.2 1.6-4.8.9-7.4l-5.8-19.7c-.1-.2-.1-.4-.2-.5.1-3.9-.8-8.4-2.7-13.4-15.4-40.3-16.2-70.3-16.2-70.6v-.4c-.6-3-3.5-5-6.5-4.5l-44.3 3.6h-.2c-6.9 1.3-11.7 7.7-11 14.3-4-.7-8.6-.8-13.5.3-6.3 1.5-12.5 5.2-18.4 8.8-9.1 5.4-17.6 10.6-25.2 7.4-6-2.5-7.6-5.9-8-8.3-.3-2 .3-3.7.8-4.3.8-.1 1.5-.7 1.8-1.5.4-1.2-.2-2.4-1.4-2.8-1.9-.6-3.9.8-5 3.6-1.6 4.2-1.2 12.6 10.1 17.3 2.2.9 4.5 1.3 6.7 1.3 7.5 0 15.1-4.6 22.5-9 5.7-3.4 11.6-6.9 17.2-8.3 5-1.2 9.6-.8 13.5.2.2.8.4 1.7.7 2.6.9 3.5 1.9 7.4 2.9 11.5-12.6 1.5-18.8 8.9-18.8 22.6 0 16.2-4.6 27.3-12 28.9-4.1.9-7.1 0-8.5-2.5-1.1-1.9-.7-4.1-.2-4.6.9-.9.9-2.3 0-3.1-.9-.9-2.3-.9-3.1 0-2.2 2.2-2.4 6.5-.5 9.9.9 1.7 3.5 5.1 9.3 5.1 1.2 0 2.5-.1 4-.5 9.6-2.1 15.4-14.6 15.4-33.2 0-11.5 4.8-17.1 15.3-18.3 2.4 12.2 3.6 25.4-1.2 34.6-3.4 6.5-7.4 11.9-12.3 16.5-6.5 6.1-14.8 11-26.8 16-8 3.3-13.3 8.9-14.7 15.4-.4 2.2-.5 4.4 0 6.6v.2l2.9 10.2s0 .1.1.1l1.9 6.9c.3 1 1.2 1.6 2.1 1.6h.3c-.9 7.4 1.6 11.7 4 14.1 2.6 2.5 6.4 4 10.3 4 1.2 0 2.5-.1 3.7-.4l125.9-29.7c3.1-.7 6-3.4 6.8-6.2.6-1.6.2-3.4-1.1-4.8zM550 640.4c.4 1.3.2 2.7-.5 4-.7 1.2-1.8 2.1-3.2 2.5l-22.8 7-2.2-8c-.2-.6-.5-1.1-1.1-1.4-.5-.3-1.2-.3-1.7-.2-14.5 4.7-20.3 8.1-25.8 11.5-3.7 2.2-7.5 4.5-14.1 7.3-11.8 4.9-44 10.4-52.3 11.8l-.8-2.7c9.1-1.5 40.6-6.9 52.7-12 6.9-2.8 10.9-5.3 14.7-7.7 6.9-4.3 13.5-8.3 36.8-14.5 2.6-.7 4.9-1.5 6.9-2.5 4.4-2.1 7.5-4.8 9.3-8.2l4.1 13.1zm-24.3 22.7l-46.2 11.6c-3 .7-6-1.1-6.7-4l-.3-1c3-.9 5.7-1.7 7.8-2.6 6.9-2.8 10.8-5.2 14.7-7.6 5.3-3.2 10.3-6.2 22.7-10.3l2.1 8c.2.6.5 1.1 1.1 1.4.5.3 1.1.4 1.7.2l7.1-2.2c.7 2.8-1.1 5.8-4 6.5zm-66.9 10.7c.6 3-1.4 5.9-4.4 6.5l-9.8 1.8c-3 .6-5.9-1.4-6.5-4.4 0-.2-.1-.3-.2-.5 6.1-1.1 13.6-2.5 20.8-4.1 0 .2 0 .5.1.7zm-36.7-19.2c1.1-5.1 5.4-9.5 12-12.2 12.5-5.1 21.2-10.3 28.2-16.8 5.3-4.9 9.6-10.7 13.2-17.7 7.8-15 1.8-38.1-2.2-53.5 3.6 1.5 6.1 3.2 7 3.9v.7c.3 1.7 1.9 2.8 3.6 2.5 1.7-.3 2.8-1.9 2.5-3.6-.3-1.4-1.5-2.4-2.8-2.5l-.2-.2c-.3-.3-4.7-3.8-11.5-6-.1-.2-.1-.5-.2-.7-.1-.3-.1-.5-.2-.8-.6-4.4 2.7-8.7 7.3-9.6l44.3-3.6h.2c.6-.1 1.2.3 1.4.8.1 3.2 1.3 32.2 16.4 71.8 4.7 12.4 2.7 19.8-6.5 24.3-1.8.9-3.9 1.6-6.2 2.2-23.9 6.3-30.7 10.5-38 15-3.7 2.3-7.5 4.6-14.1 7.4-11.8 4.9-44 10.4-52.2 11.8l-.4-1.3c0-.1 0-.1-.1-.2l-1.9-6.7c.1-1.8.1-3.4.4-5zm149.6 5.3c-.4 1.3-2.1 2.8-3.6 3.1l-125.9 29.7c-2.8.7-7 .4-9.9-2.4-2.5-2.5-3.4-6.5-2.5-11.7 1.1-.2 2.5-.4 3.9-.7v.6c.9 4.8 5.1 8.1 9.8 8.1.6 0 1.2-.1 1.8-.2l9.8-1.8c2.6-.5 4.9-2 6.4-4.2s2.1-4.9 1.6-7.5c-.1-.3-.2-.6-.3-.8 1.9-.4 3.7-.9 5.5-1.3l.2.9c1.1 4.5 5.2 7.6 9.7 7.6.8 0 1.6-.1 2.4-.3l46.2-11.6c5.3-1.3 8.6-6.7 7.3-12.1v-.1l10.1-3.1c3.1 4.8 8.7 7.6 14.9 7.2 1.5-.1 2.9-.3 4.3-.4 3.4-.4 7.2-.8 8.3.4 0 0 .1.1 0 .6z" class="st2"/><circle cx="487.1" cy="578.9" r="3.1" class="st2"/><circle cx="487.8" cy="600.7" r="3.1" class="st2"/><path d="M197.3 408.9c.2.7.3 1.4.4 2.1-.4.6-.9 1.1-1.5 1.6-.2.1-.3.2-.5.3-.1.1-.3.2-.4.3-.2.1-.3.2-.5.3-2.2 1.2-4.7 1.3-6.9.7-.8-.2-1.5-.6-2.1-1-.2-.1-.5-.3-.7-.4-.2-.2-.4-.3-.6-.5l-.6-.6-.4-.4-.6-.9c-2.8-5.3-5.6-10.7-8.5-16.1-.4-.8-.9-1.7-1.4-2.5l-.5-1c-.4-.7-.7-1.4-1.1-2.1.2-.3.3-.5.5-.7.8-1 1.8-1.9 2.9-2.5 2.2-1.2 4.7-1.3 6.9-.7 1.1.3 2.1.8 2.9 1.5l12.7 22.6z" class="st1"/><path d="M151.4 321.1c.1.1.1.2.2.4.6 1.1 1.1 2.2 1.6 3.2 7 14.1 16.3 32.9 26.6 52.7-.7.2-1.4.4-2.1.8-3.2 1.7-5 5.1-4.8 8.5 0 .9.2 1.8.6 2.7l.6 1.1-.5-1c-.4-.7-.7-1.4-1.1-2.1-13.7-25.4-28.8-52-34.6-62.1-.6-1-1.2-2-1.8-3.1l-.2-.4c-.1-.2-.2-.3-.2-.3-1.9-3.6-2.9-6.7-3.2-9.2.5-.5 1.2-.9 1.8-1.3 5-2.6 11-1 16.9 9.8.1 0 .1.1.2.3zm87.5 164.3l-7.3 3.9c-2.8 1.5-6.3.4-7.8-2.4 0 0-15.1-30.5-34.5-67.6-1.7-3.3-3.5-6.7-5.3-10.1l.6.9c.1.2.2.3.4.4l.6.6c.2.2.4.4.6.5.2.2.4.3.7.4.7.4 1.4.8 2.1 1 2.2.7 4.7.5 6.9-.7.2-.1.3-.2.5-.3.2-.1.3-.2.4-.3.2-.1.3-.2.5-.3.2-.1.3-.2.4-.4.3.5.6 1 .8 1.5 19.3 35.8 37.4 67.6 40.4 72.9z" class="st0"/><path d="M228.8 492.2c-2.9 0-5.6-1.5-7.1-4.2-.2-.4-15.4-30.9-34.5-67.6-1.7-3.3-3.5-6.7-5.3-10.1v-.1c-2.8-5.3-5.6-10.7-8.5-16.1-.5-.9-.9-1.7-1.3-2.5l-.6-1c-.4-.7-.7-1.4-1.1-2-13.3-24.8-27.9-50.4-34.1-61.3l-.4-.8c-.6-1-1.3-2.1-1.8-3.2l-.3-.7c0-.1-.1-.2-.1-.2-1.8-3.6-2.9-6.9-3.3-9.7-.8-5.7 1.2-10.1 5.7-12.5 4-2.1 11.9-3.6 19.8 10.4.1.1.1.2.2.3 0 0 .1.1.2.4.1.1.1.2.2.3.6 1.1 1.1 2.2 1.6 3.4 6.8 13.7 19.5 39.3 32.8 64.5.8 1.5 1.5 2.9 2.3 4.4 3 5.7 6.1 11.4 9.1 17 21.3 39.4 41.6 75.1 41.8 75.4 1 1.9 1.2 4.1.6 6.1s-2 3.7-3.9 4.7l-8.1 4.3c-1.3.5-2.6.8-3.9.8zM185.9 408c0 .1 0 .1 0 0 1.8 3.5 3.6 6.9 5.3 10.2 19.1 36.7 34.4 67.3 34.5 67.7.9 1.7 3.1 2.3 4.8 1.4l8.1-4.3c.8-.4 1.5-1.2 1.7-2.1.3-.9.2-1.9-.3-2.7-.2-.3-20.5-36-41.8-75.5-3-5.6-6.1-11.3-9.1-17-.8-1.5-1.6-2.9-2.3-4.4-13.3-25.2-26.1-50.9-32.9-64.6-.5-1.1-1-2.2-1.5-3.2-.1-.2-.2-.3-.2-.4v-.1c0-.1-.1-.1-.1-.2-3.2-5.7-8.2-12-13.9-8.9-2.8 1.5-4 4.1-3.4 8 .3 2.5 1.4 5.3 3 8.5 0 .1.1.1.1.2l.2.5c.5 1 1.1 2 1.7 3l.5.8c6.2 10.9 20.8 36.5 34.2 61.4.4.7.7 1.4 1.1 2.1l.5 1c.4.8.9 1.6 1.3 2.4 2.8 5.6 5.7 10.9 8.5 16.2z" class="st2"/><path d="M173.5 391.6c-.9 0-1.7-.5-2.1-1.4-2-5.3.2-11.3 5.2-14 2.6-1.4 5.7-1.7 8.6-.8 1.3.4 2.6 1 3.7 1.9 1 .8 1.1 2.1.4 3.1-.8 1-2.1 1.1-3.1.4-.7-.5-1.4-.9-2.2-1.2-1.8-.5-3.6-.4-5.2.5-3 1.6-4.4 5.3-3.2 8.5.4 1.1-.1 2.4-1.3 2.9-.3.1-.6.1-.8.1zm18.1 23.9c-1.1 0-2.2-.2-3.3-.5-.9-.3-1.9-.7-2.7-1.2-.2-.1-.5-.3-.8-.6-.3-.2-.5-.4-.7-.6-.2-.2-.5-.4-.7-.7-.2-.2-.4-.4-.5-.6-.3-.3-.5-.7-.7-1-.1-.1-.1-.1-.1-.2-.6-1.1-.2-2.4.9-3 .9-.5 2.1-.3 2.8.5.1.1.2.3.3.4.1.2.2.4.4.5 0 .1.1.1.1.2l.1.1.1.1c.1.1.2.3.4.4l.1.1c.1.1.3.2.4.3.1.1.3.2.4.3.6.4 1.1.6 1.7.8 1.8.5 3.6.4 5.2-.5.1-.1.3-.2.4-.2.1 0 .1-.1.2-.1s.2-.1.2-.2c.1-.1.2-.1.2-.2.4-.3.8-.7 1.1-1.2 1.3-1.7 1.7-4 1.1-6.1v-.1c-.3-1 .1-2 1-2.6 1.1-.6 2.4-.2 3 .9.1.2.2.3.2.5 1 3.4.3 7.2-1.8 10-.5.7-1.2 1.4-1.9 1.9-.2.2-.4.3-.6.4-.2.1-.4.3-.6.4-.2.1-.4.3-.6.4-1.7 1-3.5 1.4-5.3 1.4z" class="st2"/><path d="M194.9 325.3c5.4 9.5 19.1 33.6 32.1 57.6l10-5.3c0-.1-.1-.2-.1-.2-10.3-19.8-19.7-38.6-26.6-52.7-.5-1.1-1-2.2-1.6-3.2-.1-.1-.1-.2-.2-.4s-.1-.3-.1-.3c-5.9-10.7-12-12.4-16.9-9.8-.7.4-1.3.8-1.8 1.3.4 2.6 1.4 5.7 3.2 9.2 0 0 .1.1.2.3.1.1.1.2.2.4.4 1.1 1 2.1 1.6 3.1zm59.5 85l-9.9 5.3-3.5-6.5c21.8 41.6 39.8 77.8 39.8 77.8 1.5 2.8 5 3.9 7.8 2.4l7.3-3.9c-3-5.3-21.5-38-41.2-74.4-.1-.3-.2-.5-.3-.7z" class="st0"/><path d="M254.4 408.9c.2.7.3 1.4.4 2.1-.4.6-.9 1.1-1.5 1.6-.2.1-.3.2-.5.3-.1.1-.3.2-.4.3-.2.1-.3.2-.5.3-2.2 1.2-4.7 1.3-6.9.7-.8-.2-1.5-.6-2.1-1-.2-.1-.5-.3-.7-.4-.2-.2-.4-.3-.6-.5l-.6-.6-.4-.4-.6-.9c-2.8-5.3-5.6-10.7-8.5-16.1-.4-.8-.9-1.7-1.4-2.5l-.5-1c-.4-.7-.7-1.4-1.1-2.1.2-.3.3-.5.5-.7.8-1 1.8-1.9 2.9-2.5 2.2-1.2 4.7-1.3 6.9-.7 1.1.3 2.1.8 2.9 1.5l12.7 22.6z" class="st1"/><path d="M285.9 492.2c-2.9 0-5.6-1.5-7.1-4.2-.2-.4-18.3-36.8-39.8-77.8-2.8-5.3-5.6-10.7-8.5-16-.6-1.2-1.3-2.4-1.9-3.5-13.9-25.9-29.6-53.6-35.6-64l-.1-.1c-.6-.9-1.2-2-1.8-3.2 0-.1-.1-.2-.1-.3l-.1-.1-.1-.1c-.1-.1-.2-.3-.2-.4-1.8-3.6-2.9-6.8-3.3-9.7-.8-5.7 1.2-10.1 5.7-12.5 4-2.1 11.9-3.6 19.8 10.4.1.1.2.3.3.5v.1c.1.2.2.3.2.4.6 1.1 1.1 2.2 1.6 3.4 7.9 15.8 19.8 39.8 32.8 64.4.8 1.5 1.5 2.9 2.3 4.4 3 5.7 6.1 11.4 9.1 17 21.3 39.4 41.6 75.1 41.8 75.5 1 1.9 1.2 4.1.6 6.1s-2 3.7-3.9 4.7l-8.1 4.3c-1 .4-2.3.7-3.6.7zm-91.1-171.5c.1 0 .1.1 0 0 .1.2.1.3.2.4.6 1.1 1.2 2.1 1.8 3.1l.1.2c5.9 10.4 21.7 38.1 35.6 64.1.6 1.2 1.2 2.3 1.9 3.5 2.9 5.5 5.7 10.8 8.5 16.1 21.6 41.2 39.7 77.6 39.9 77.9.9 1.7 3.1 2.3 4.8 1.4l8.1-4.3c1.7-.9 2.4-3.1 1.5-4.8-.2-.3-20.5-36-41.8-75.5-3-5.6-6.1-11.3-9.1-17-.8-1.5-1.6-2.9-2.3-4.4-13-24.6-25-48.7-32.9-64.6-.5-1.1-1-2.2-1.5-3.2l-.1-.1c0-.1-.1-.2-.1-.2s0-.1-.1-.1c0-.1-.1-.1-.1-.2-3.2-5.8-8.2-12-13.9-8.9-2.8 1.5-4 4.1-3.4 8 .3 2.5 1.4 5.3 3 8.5-.1 0-.1.1-.1.1z" class="st2"/><path d="M230.6 391.6c-.9 0-1.7-.5-2.1-1.4-2-5.3.2-11.3 5.2-14 2.6-1.4 5.7-1.7 8.6-.8 1.4.4 2.7 1.1 3.9 2.1.9.8 1.1 2.2.3 3.1-.8.9-2.2 1.1-3.1.3-.7-.6-1.5-1-2.3-1.2-1.8-.5-3.6-.4-5.2.5-3 1.6-4.4 5.3-3.2 8.5.4 1.1-.1 2.4-1.3 2.9h-.8zm18.1 23.9c-1.1 0-2.2-.2-3.3-.5-2.6-.8-4.8-2.5-6.3-4.8 0 0 0-.1-.1-.1l-.1-.1c-.5-1.1-.1-2.4 1-3 1.1-.5 2.4-.1 2.9.9.9 1.4 2.2 2.4 3.8 2.9 1.7.5 3.6.4 5.2-.5.5-.3 1-.6 1.4-1 1.6-1.4 2.4-3.6 2.2-5.7-.1-1.2.8-2.3 2-2.4 1.2-.1 2.3.8 2.4 2 .3 3.5-1 7-3.6 9.4-.7.6-1.4 1.2-2.3 1.6-1.6.9-3.4 1.3-5.2 1.3z" class="st2"/><path d="M772.9 417.4c-.5 1.8-1.6 3.4-3.2 4.6-.2.2-.5.3-.7.5l-2.7 1.6c-3.1 1.9-7 1.6-9.9-.6l-5.7-4.4-8.2 9.7c-1.7 2-4.1 3.3-6.7 3.3h-.1c-2.6 0-5.1-1.3-6.7-3.4l-6.6-8.1-2.6-3.2c-.7-.8-1.2-1.8-1.5-2.8l.9-1.7 5-9.6c1-.3 2.1-.4 3.1-.3l8.5 10.4 12.9-15.2h1.8l11.3 8.7 1.1-.6c1.5-.3 2.9-.1 4.3.3l2.6 5 3.1 5.8zm82.7-23.2c-.1.3-.2.7-.4 1-.2.6-.5 1.2-.9 1.7-1.1 1.5-2.6 2.7-4.3 3.2-.6.2-1.2.4-1.8.4l-3.6 4.5c-.4-.1-.9-.1-1.4-.1-4.8 0-8.9 3.2-9.8 7.8-.1.6-.2 1.9-.2 2.6v1.6H832c-2.6 0-5.2-1.8-6.8-3.9l-10.7-13.5-6.7 3.9c-2 1.2-4.3 1.4-6.4 1-2.3-.5-4.4-1.9-5.6-4.1-.1-.2-.2-.3-.3-.5l7.4-14.1 9.2-5.5c.8-.5 1.7-.8 2.6-1 .1 0 .3 0 .4-.1.7-.2 1.5-.2 2.3-.1l14.9 18.4 12.1-15.2c1.3-.1 2.7.1 4 .6l2 .8 3.4 6.6 1.8 4z" class="st1"/><path d="M728.9 446.7c0 .3 0 1.4-.1 1.7-1 .5-2.2 1.5-3.4 1.5h-50.7c-5.7 0-10.4-5.7-10.4-11.5 0-.9.1-2.2.4-3.1 1.5-1 2.1-10.1 15.3-6.8 1-2.1.8-4.8 2.7-6.2 2.3-1.7 5.1-2.7 8.1-2.7 5.7 0 10.6 3.5 12.7 8.4 1.7-1.3 3.8-2 6.1-2 5.7 0 10.4 4.7 10.4 10.4 0 .4 0 .9-.1 1.3h.6c4.7.1 8.4 4.5 8.4 9zm101 20.5c0 .4 0 1.7-.1 2.2-1 .5-2.2 1.7-3.4 1.7h-40.2c-3.6 0-6.5-4.5-6.5-8.1v-.9c.5-.2 1.1-.5 1.7-.5.2 0 .3-.1.5-.1 0-.4-.1-.7-.1-1.1 0-1.6.5-3.2 1.3-4.5.9-1.3 2.1-2.4 3.6-3.1 4.3-11.3 13.8-5.8 18.3-5.8 6 0 10.9 4.9 10.9 10.9 0 .9-.1 1.8-.3 2.7 1.5-1.6 3.7-2.7 6-2.7 4.6-.1 8.3 4.7 8.3 9.3zm45-43.6v1.1c-1 .4-2.1 1.4-3.2 1.4h-28.4c-5.5 0-10-5-10-10.5 0-.7.1-1.7.2-2.3 1.5-.9 1.3-9.5 12.8-7.6.4-.4.9-.9 1.5-1.2 2-1.4 4.3-2.2 6.9-2.2 6.8 0 12.3 5.5 12.3 12.3v.9c4.3-.1 7.9 3.6 7.9 8.1z" class="st0"/><path d="M794.9 343.8c0 1.6-.3 3.2-.8 4.6-2.2 1.6-5 2.6-8 2.6-7.5 0-13.6-6.1-13.6-13.6 0-1.6.3-3.2.8-4.6 2.2-1.6 5-2.6 8-2.6 7.5 0 13.6 6.1 13.6 13.6z" class="st3"/><path d="M698 453.8c-1.1-.6-2.4-.2-3 .9l-3.2 6.1c-.6 1.1-.1 2.4.9 3 .3.2.7.3 1 .3.8 0 1.6-.4 2-1.2l3.2-6.1c.6-1.1.1-2.4-.9-3zm193.5-5.4l-10.3-19.6c-.6-1.1-1.9-1.5-3-.9s-1.5 1.9-.9 3l10.3 19.6c.4.8 1.2 1.2 2 1.2.3 0 .7-.1 1-.3 1.1-.6 1.5-2 .9-3zm-106.2-34.7c-.6 1.1-.1 2.4.9 3 .3.2.7.2 1 .2.8 0 1.6-.4 2-1.2l7.8-15 6.6-12.6c.1 0 .3-.1.4-.2l11.6-7 14.3 17.8c.4.5 1.1.9 1.7.9.7 0 1.3-.4 1.7-1l11.7-14.8.9.4c1.1.5 2.4-.1 2.9-1.2.5-1.1-.1-2.4-1.2-2.9l-2.4-1c-.9-.4-1.9-.1-2.6.7l-11 13.9-13.8-17.1c-.7-.9-1.9-1.1-2.9-.5l-7.4 4.5 21.6-41.3 15.6 29.9 9.4 18.2c.1.1.1.2.2.3l1.3 2.3c.6 1.1 1.9 1.4 3 .8 1.1-.6 1.4-1.9.8-3l-1.4-2.5-.1-.1-9.3-18-17.6-33.7c-.4-.7-1.1-1.2-2-1.2-.8 0-1.6.5-2 1.2l-25.7 49-16 31.2zm-22.2-10.3l-1.4.8-11.2-8.7c-.9-.7-2.3-.6-3 .3l-11.9 14-7.4-9 20-38.2 40 76.4c.4.8 1.2 1.2 2 1.2.3 0 .7-.1 1-.3 1.1-.6 1.5-1.9.9-3l-41.9-80.1c-.4-.7-1.1-1.2-2-1.2s-1.6.5-2 1.2l-28.3 54.1c-.6 1.1-.1 2.4.9 3 1.1.6 2.4.1 3-.9l4.1-7.9 7.8 9.5c.4.5 1 .7 1.7.7.6 0 1.3-.2 1.7-.7l12.2-14.3 10.7 8.3c.7.6 1.7.6 2.5.1l2.7-1.6c1-.6 1.4-2 .8-3-.5-1-1.9-1.3-2.9-.7zm-36.2 25.9c-.4-6.6-5.9-11.8-12.6-11.8-1.8 0-3.6.4-5.2 1.1-2.9-4.7-8-7.5-13.6-7.5-6.7 0-12.7 4.2-15 10.5-.5 1.4-.8 2.8-.9 4.3-.2-.1-.4-.2-.6-.2-1.3-.5-2.8-.8-4.5-.8-5.6 0-10.7 4.1-12.2 9.8-.3 1-.4 2.4-.4 3.6 0 7.2 5.9 13.5 12.6 13.5h50.7c1.5 0 2.8-.7 3.8-1.2l.6-.3c3.5-1.7 6.1-6 6.1-10.3 0-5.3-3.9-9.9-8.8-10.7zm.7 17c-.3.1-.5.3-.8.4-.6.3-1.2.7-1.6.7h-50.7c-4.3 0-8.2-4.3-8.2-9.1 0-.8.1-1.8.3-2.4 1-3.8 4.3-6.5 7.9-6.5 1.1 0 2 .2 2.9.5 1.2.4 2.2 1.1 3.1 2.1.7.7 1.8.9 2.7.5.9-.5 1.4-1.5 1.1-2.5-.2-1-.4-2-.4-2.9 0-1.4.2-2.7.7-3.9 1.6-4.5 6-7.6 10.8-7.6 4.7 0 8.8 2.8 10.6 7.1.3.6.8 1.1 1.5 1.3.7.2 1.4 0 1.9-.4 1.4-1 3.1-1.6 4.8-1.6 4.5 0 8.2 3.7 8.2 8.2 0 .3 0 .7-.1 1-.1.7.1 1.3.6 1.8s1.1.7 1.8.7h.5c3.3 0 6 2.9 6 6.4.1 2.4-1.5 5.2-3.6 6.2zm98.6 2.9c-1.2 0-2.5.2-3.6.6-.8-6.5-6.3-11.6-13-11.6-4.5 0-8.5 2.2-10.9 5.9-1.3-.5-2.6-.8-4-.8-5.2 0-9.7 3.9-10.3 9 0 .2-.1.3-.1.5-.9.2-1.7.6-2.5 1.1-2.5 1.6-4.2 4.4-4.5 7.4v.8c0 5.1 4.1 9.5 8.8 9.5h40.2c1.4 0 2.8-.4 4.4-1.2 3.7-1.9 6.1-6 6.1-10.2-.1-5.8-5-11-10.6-11zm2.3 17.4c-.9.5-1.7.7-2.3.7H786c-2.2 0-4.3-2.5-4.3-5.1v-.4c.1-1.6 1.1-3.3 2.4-4.1.6-.4 1.2-.6 1.8-.6h.3c.7.1 1.3-.2 1.8-.7.5-.5.7-1.2.6-1.8v-.7c0-.3 0-.5.1-.8.4-3 3-5.2 6-5.2 1.3 0 2.5.4 3.5 1.2.5.4 1.2.5 1.9.4.7-.2 1.2-.6 1.5-1.3 1.4-3.2 4.5-5.3 8-5.3 4.8 0 8.7 3.9 8.7 8.7 0 .7-.1 1.4-.3 2.1-.2 1 .2 2 1.1 2.5.9.5 2 .3 2.7-.5 1.1-1.2 2.7-1.9 4.4-1.9 3.2 0 6.1 3.2 6.1 6.7 0 2.4-1.6 5-3.8 6.1zm53.2-49.8c0-4.9-3.4-8.8-8.1-9.7-.6-7.5-6.8-13.4-14.4-13.4-6.2 0-11.6 3.8-13.6 9.5-.8-.2-1.6-.2-2.5-.2-5.8 0-10.8 4.1-12 9.6-.2 1-.3 2.2-.3 2.6 0 6.8 5.5 12.3 12.2 12.3h28.4c1.4 0 2.6-.5 3.5-.9.2-.1.3-.1.5-.2 3.8-1.6 6.3-5.5 6.3-9.6zm-7.9 5.4l-.6.3c-.6.3-1.3.6-1.8.6H843c-4.3 0-7.8-3.5-7.8-7.9 0-.6.1-1.3.2-1.7.7-3.6 3.9-6.1 7.6-6.1.9 0 1.7.1 2.4.3.3.1.5.2.7.3.6.3 1.3.3 2 0 .6-.3 1-.9 1.2-1.6.1-.5.2-.9.3-1.3 1.3-4.2 5.2-7 9.6-7 5.5 0 10.1 4.5 10.1 10.1v.8c0 .6.2 1.2.6 1.6.5.5 1.2.8 1.8.7 3.2.1 5.6 2.5 5.6 5.5-.1 2.3-1.5 4.6-3.5 5.4zm-88-69c3.4 0 6.6-1.1 9.3-3 4.1-3 6.5-7.8 6.5-12.8 0-8.7-7.1-15.8-15.8-15.8-6.7 0-12.6 4.2-14.9 10.5-.6 1.7-.9 3.5-.9 5.4 0 8.6 7.1 15.7 15.8 15.7zm-10.7-19.7c1.6-4.5 5.9-7.5 10.7-7.5 6.3 0 11.4 5.1 11.4 11.4 0 3.7-1.7 7-4.7 9.2-1.9 1.4-4.3 2.2-6.7 2.2-6.3 0-11.4-5.1-11.4-11.4 0-1.3.3-2.6.7-3.9z" class="st2"/><path d="M711.3 163.5c1.2-.1 2.5.3 3.4 1.2l1 1h-.7c-1.6 0-3-.9-3.7-2.2z" class="st0"/><path d="M845 199.2c.5.5.8 1.1 1 1.7-1.1.8-2.5 1.3-4 1.3h-6l-10.4-10.4h-32.3l10.4 10.4h-14l22.8 22.8h14l3.8 3.8c1.3 1.3 1.9 2.9 2 4.6-.3.1-.6.1-.9.1H821l5.7 5.7c.3.3.6.6.8 1-.7.2-1.3.3-2 .3-1.7 0-3.5-.7-4.8-2l-5.7-5.7v10.5c0 1-.3 1.9-.9 2.6l-2.7-2.7v4.3h-.6c-2.3 0-4.2-1.9-4.2-4.2v-18.9l-22.8-22.8v14l-3.6-3.6v32.3l3.6 3.6v6c0 1.7-.6 3.2-1.6 4.3l-2.1-2.1v3.8c-1 .5-2 .8-3.2.8-3.8 0-6.8-3.1-6.8-6.8v-8.1l-7.4 7.4c-1.5 1.5-3.9 1.6-5.5.4l9.3-9.3v-6.8l3.6-3.6v-32.3l-22.8 22.8v6.8l-3.6 3.6v12.7h-.6c-2.3 0-4.2-1.9-4.2-4.2v-10.5l-5.7 5.7c-1.3 1.3-3.1 2-4.8 2-1.7 0-3.5-.7-4.8-2-.5-.5-.9-1.1-1.2-1.7l3.3-3.3h-4.1c0-1.7.7-3.4 2-4.7l3.8-3.8h6.7l22.8-22.8H750l10.4-10.4h-32.3l-13.4 13.4c-1.5 1.5-3.9 1.6-5.5.4l3.4-3.4h-5c0-1.1.4-2.2 1.2-3l7.4-7.4h-8.1c-2.4 0-4.4-1.2-5.7-3 .6-.2 1.3-.3 2-.3h8.1l-7.4-7.4c-.5-.5-.8-1.1-1-1.7 1.1-.8 2.5-1.3 4-1.3h6l10.4 10.4h32.3l-10.4-10.4h14l-22.8-22.8h-14l-3.8-3.8c-1.3-1.3-1.9-2.9-2-4.6.3-.1.6-.1.9-.1h10.5l-5.7-5.7c-.3-.3-.6-.6-.8-1 2.3-.7 5-.2 6.9 1.7l5.7 5.7V137c0-1 .3-1.9.9-2.6.7-.8 1.6-1.4 2.7-1.6h.6c2.3 0 4.2 1.9 4.2 4.2v19l22.8 22.8v-14l3.6 3.6v-32.3l-3.6-3.6v-6c0-1.7.6-3.2 1.6-4.3.6-.7 1.3-1.3 2.1-1.7 1-.5 2-.8 3.2-.8 3.8 0 6.8 3.1 6.8 6.8v8.1l7.4-7.4c1.5-1.5 3.9-1.6 5.5-.4l-9.3 9.3v6.8l-3.6 3.6v32.3L803 156v-6.8l3.6-3.6v-12.7h.6c2.3 0 4.2 1.9 4.2 4.2v10.5l5.7-5.7c2.7-2.7 7-2.7 9.7 0 .5.5.9 1.1 1.2 1.7l-3.3 3.3h4.1c0 1.7-.7 3.4-2 4.7l-3.8 3.8h-6.8l-22.8 22.8h6.8l-10.4 10.4H822l13.4-13.4c1.5-1.5 3.9-1.6 5.5-.4l-3.4 3.4h5c0 1.1-.4 2.2-1.2 3l-7.4 7.4h8.1c2.4 0 4.4 1.2 5.7 3-.6.2-1.3.3-2 .3h-8.1l7.4 7.3z" class="st0"/><path d="M776.9 262.8c-5 0-9.1-4.1-9.1-9.1V251l-3.6 3.6c-2.3 2.3-5.9 2.5-8.4.5-.2-.1-.4-.3-.6-.5-1.2-1.2-1.9-2.8-1.9-4.5 0-1.7.7-3.3 1.9-4.5l12.7-12.7v-26l-18.4 18.4v18c0 3.2-2.4 5.9-5.5 6.4-.2 0-.5.1-.9.1-3.5 0-6.4-2.9-6.4-6.4V238l-2 2c-1.7 1.7-4 2.7-6.4 2.7-2.4 0-4.7-.9-6.4-2.6-.7-.7-1.2-1.4-1.6-2.3-.7-1.4-1.1-2.9-1-4.4.1-2.3 1-4.5 2.6-6.1l2-2h-5.2c-3.5 0-6.4-2.9-6.4-6.4 0-3.5 2.9-6.4 6.4-6.4h18L755 194h-26l-12.7 12.7c-2.3 2.3-5.9 2.5-8.4.6l-.6-.6c-1.2-1.2-1.9-2.9-1.9-4.6 0-1.7.7-3.3 1.9-4.5l3.6-3.6h-2.8c-3 0-5.8-1.5-7.5-4-1-1.5-1.6-3.3-1.6-5.1 0-2.9 1.4-5.7 3.8-7.4 1.6-1.1 3.4-1.7 5.3-1.7h2.8l-3.6-3.6c-1.2-1.2-1.9-2.8-1.9-4.6 0-1.7.7-3.3 1.9-4.5 1-1 2.4-1.7 3.9-1.8 1.9-.2 3.8.5 5.2 1.8l12.7 12.7h26l-18.4-18.4h-18c-3.5 0-6.4-2.9-6.4-6.4 0-3 2.1-5.7 5.1-6.3.5-.1.9-.1 1.3-.1h5.2l-2-2c-.4-.4-.7-.8-1.1-1.3-2.5-3.6-2-8.5 1.1-11.5 1.7-1.7 4-2.7 6.4-2.7 2.4 0 4.7.9 6.4 2.7l2 2v-5.2c0-3.5 2.9-6.4 6.4-6.4 3.5 0 6.4 2.9 6.4 6.4v18l18.4 18.4v-26l-12.7-12.7c-1.2-1.2-1.9-2.8-1.9-4.6 0-1.7.7-3.3 1.9-4.5 2.5-2.5 6.6-2.5 9.1 0l3.6 3.6V116c0-5 4.1-9.1 9.1-9.1s9.1 4.1 9.1 9.1v2.8l3.6-3.6c2.5-2.5 6.6-2.5 9.1 0s2.5 6.6 0 9.1L786.1 137v26l18.4-18.4v-18c0-3.5 2.9-6.4 6.4-6.4 3.5 0 6.4 2.9 6.4 6.4v5.2l2-2c1.7-1.7 4-2.7 6.4-2.7 2.4 0 4.7.9 6.4 2.7 1.7 1.7 2.7 4 2.7 6.4 0 2.4-.9 4.7-2.7 6.4l-2 2h5.2c3.5 0 6.4 2.9 6.4 6.4 0 3.5-2.9 6.4-6.4 6.4h-18l-18.4 18.4h26l12.7-12.7c2.5-2.5 6.6-2.5 9.1 0s2.5 6.6 0 9.1l-3.7 3.7h2.8c5 0 9.1 4.1 9.1 9.1 0 4-2.6 7.5-6.4 8.7-.8.3-1.7.4-2.7.4H843l3.6 3.6c.7.7 1.3 1.6 1.6 2.6.7 2.3.1 4.8-1.6 6.5-1.2 1.2-2.8 1.9-4.5 1.9-1.7 0-3.3-.7-4.6-1.9L824.7 194h-26l18.4 18.4h18c2.4 0 4.5 1.3 5.6 3.3.5.9.8 2 .8 3.1 0 3.5-2.9 6.4-6.4 6.4H830l2 2c1.6 1.6 2.6 3.8 2.6 6.1.1 2.5-.8 5-2.6 6.8-1 1-2.3 1.8-3.7 2.2-.8.3-1.7.4-2.7.4-2.4 0-4.7-.9-6.4-2.6l-2-2v5.2c0 1.5-.5 2.9-1.4 4-1 1.3-2.5 2.1-4.1 2.4-.2 0-.5.1-.9.1-3.5 0-6.4-2.9-6.4-6.4v-18L786 207v26l12.7 12.7c2.5 2.5 2.5 6.6 0 9.1-1.2 1.2-2.8 1.9-4.5 1.9-1.7 0-3.3-.7-4.6-1.9l-3.6-3.6v2.8c0 2.1-.7 4-2 5.6l-.1.1c-.8.9-1.7 1.7-2.8 2.3-1.3.4-2.7.8-4.2.8zm-6.9-19.4c.3 0 .6.1.8.2.8.3 1.4 1.2 1.4 2v8.1c0 2.6 2.1 4.6 4.6 4.6.8 0 1.5-.2 2.2-.5.5-.3 1-.6 1.3-1 0-.1.1-.1.1-.1.7-.8 1-1.8 1-2.9v-8.1c0-.9.5-1.7 1.4-2 .8-.3 1.8-.2 2.4.5l7.4 7.4c.4.4.9.6 1.4.6.5 0 1-.2 1.4-.6.8-.8.8-2 0-2.8L782 235.4c-.4-.4-.6-1-.6-1.6v-32.3c0-.9.5-1.7 1.4-2 .8-.3 1.8-.2 2.4.5l22.8 22.8c.4.4.6 1 .6 1.6v18.9c0 1.1.9 2 2 2h.2c.6-.1 1-.3 1.3-.7.3-.4.5-.8.5-1.3v-10.5c0-.9.5-1.7 1.4-2 .8-.3 1.8-.2 2.4.5l5.7 5.7c1.2 1.2 3 1.6 4.6 1.1.7-.2 1.4-.6 1.9-1.1.9-.9 1.4-2.2 1.3-3.4 0-1.2-.5-2.3-1.3-3.1l-5.7-5.7c-.6-.6-.8-1.6-.5-2.4.3-.8 1.2-1.4 2-1.4h10.5c1.1 0 2-.9 2-2 0-.3-.1-.7-.2-.9-.4-.7-1-1.1-1.8-1.1H816c-.6 0-1.1-.2-1.6-.6l-22.8-22.8c-.6-.6-.8-1.6-.5-2.4.3-.8 1.2-1.4 2-1.4h32.3c.6 0 1.2.2 1.6.6l13.4 13.4c.4.4.9.6 1.4.6.5 0 1-.2 1.4-.6.5-.5.7-1.3.5-2-.1-.3-.3-.6-.5-.8l-7.4-7.4c-.6-.6-.8-1.6-.5-2.4.3-.8 1.2-1.4 2-1.4h8.1c.5 0 .9-.1 1.3-.2 1.9-.6 3.3-2.4 3.3-4.4 0-2.6-2.1-4.6-4.6-4.6h-8.1c-.9 0-1.7-.5-2-1.4-.3-.8-.2-1.8.5-2.4l7.4-7.4c.8-.8.8-2.1 0-2.8-.8-.8-2-.8-2.8 0L827 180c-.4.4-1 .6-1.6.6h-32.3c-.9 0-1.7-.5-2-1.4-.3-.8-.2-1.8.5-2.4l22.8-22.8c.4-.4 1-.6 1.6-.6h18.9c1.1 0 2-.9 2-2s-.9-2-2-2h-10.5c-.9 0-1.7-.5-2-1.4-.3-.8-.2-1.8.5-2.4l5.7-5.7c.9-.9 1.4-2 1.4-3.3 0-1.2-.5-2.4-1.4-3.3-.9-.9-2-1.4-3.3-1.4-1.2 0-2.4.5-3.3 1.4l-5.7 5.7c-.6.6-1.6.8-2.4.5-.8-.3-1.4-1.1-1.4-2V127c0-1.1-.9-2-2-2s-2 .9-2 2v18.9c0 .6-.2 1.2-.6 1.6L785.3 170c-.6.6-1.6.8-2.4.5-.8-.3-1.4-1.1-1.4-2v-32.3c0-.6.2-1.2.6-1.6l13.4-13.4c.8-.8.8-2.1 0-2.8-.8-.8-2-.8-2.8 0l-7.4 7.4c-.6.6-1.6.8-2.4.5-.8-.3-1.4-1.1-1.4-2v-8.1c0-2.6-2.1-4.6-4.6-4.6s-4.6 2.1-4.6 4.6v8.1c0 .9-.5 1.7-1.4 2-.8.3-1.8.2-2.4-.5l-7.4-7.4c-.8-.7-2.1-.8-2.8 0-.4.4-.6.9-.6 1.4 0 .5.2 1 .6 1.4l13.4 13.4c.4.4.6 1 .6 1.6v32.3c0 .9-.5 1.7-1.4 2-.8.3-1.8.2-2.4-.5l-22.8-22.8c-.4-.4-.6-1-.6-1.6v-18.9c0-1.1-.9-2-2-2s-2 .9-2 2v10.5c0 .9-.5 1.7-1.4 2-.8.3-1.8.2-2.4-.5l-5.7-5.7c-.9-.9-2-1.4-3.3-1.4-1.2 0-2.4.5-3.3 1.4-1.6 1.6-1.8 4-.6 5.9.2.2.4.5.6.7l5.7 5.7c.6.6.8 1.6.5 2.4-.3.8-1.2 1.4-2 1.4h-11c-.9.2-1.5 1-1.5 1.9 0 1.1.9 2 2 2h18.9c.6 0 1.2.2 1.6.6l22.8 22.8c.6.6.8 1.6.5 2.4-.3.8-1.2 1.4-2 1.4h-32.3c-.6 0-1.2-.2-1.6-.6l-13.4-13.4c-.4-.4-1-.6-1.6-.6-.5 0-.9.2-1.2.6-.4.4-.6.9-.6 1.4 0 .5.2 1 .6 1.4l7.4 7.4c.6.6.8 1.6.5 2.4-.3.8-1.2 1.4-2 1.4h-8.1c-1 0-1.9.3-2.7.9-1.2.9-1.9 2.3-1.9 3.8 0 .9.3 1.8.8 2.6.9 1.3 2.3 2 3.8 2h8.1c.9 0 1.7.5 2 1.4.3.8.2 1.8-.5 2.4l-7.4 7.4c-.4.4-.6.9-.6 1.4 0 .5.2 1 .6 1.4l.2.2c.8.6 1.9.5 2.6-.2l13.4-13.4c.4-.4 1-.6 1.6-.6h32.3c.9 0 1.7.5 2 1.4.3.8.2 1.8-.5 2.4l-22.8 22.8c-.4.4-1 .6-1.6.6h-18.9c-1.1 0-2 .9-2 2s.9 2 2 2h10.5c.9 0 1.7.5 2 1.4.3.8.2 1.8-.5 2.4l-5.7 5.7c-.8.8-1.3 2-1.3 3.1 0 .8.1 1.6.5 2.3.2.4.5.8.8 1.1.9.9 2 1.4 3.3 1.4 1.2 0 2.4-.5 3.3-1.4l5.7-5.7c.6-.6 1.6-.8 2.4-.5.8.3 1.4 1.2 1.4 2V243c0 1.1.9 2 2 2h.2c1-.1 1.8-1 1.8-2v-18.9c0-.6.2-1.2.6-1.6l22.8-22.8c.6-.6 1.6-.8 2.4-.5.8.3 1.4 1.1 1.4 2v32.3c0 .6-.2 1.2-.6 1.6l-13.4 13.4c-.4.4-.6.9-.6 1.4 0 .5.2 1 .6 1.4.1 0 .1.1.1.1.9.7 2 .6 2.7-.1l7.4-7.4c.4-.3.9-.5 1.5-.5z" class="st2"/><path d="M518.1 416.2c0 .5 0 1.6-.1 2-1.5.7-3.1 1.8-4.8 1.8h-72.5c-8.2 0-14.9-7.8-14.9-16 0-1.4.2-3 .5-4.2 2.2-1.4 3-14.4 21.9-9.7 1.4-3.1 1.2-6.8 3.9-8.8 3.3-2.4 7.3-3.8 11.6-3.8 8.1 0 15.2 5 18.1 12 2.4-1.8 5.5-2.9 8.8-2.9 8.2 0 14.9 6.7 14.9 14.9 0 .6 0 1.3-.1 1.9.3 0 .6-.1.9-.1 6.6 0 11.8 6.3 11.8 12.9zm33.8-55.2v1.3c-1.4.6-3 1.7-4.6 1.7h-40.6c-7.9 0-14.3-6.8-14.3-14.7 0-1 .1-2.3.3-3.2 2.1-1.3 1.8-13.5 18.3-10.8.6-.6 1.4-1.2 2.1-1.7 2.8-1.9 6.2-3.1 9.8-3.1 9.7 0 17.6 7.9 17.6 17.5 0 .4 0 .9-.1 1.3h.1c6.3.1 11.4 5.4 11.4 11.7z" class="st0"/><path d="M513.2 422h-72.5c-9.1 0-17.1-8.4-17.1-18.1 0-1.6.2-3.4.6-4.8 2-7.7 8.9-13.2 16.5-13.2 2.2 0 4.3.4 6 1.1l2.1.9c0-2.5.4-5 1.3-7.3 3.1-8.6 11.4-14.4 20.6-14.4 8 0 15.2 4.3 19 11.1 2.4-1.3 5.1-1.9 7.9-1.9 9.3 0 16.9 7.5 17.1 16.7 6.9.8 12.5 7.1 12.5 14.4 0 5.7-3.5 11.5-8.2 13.8-.2.1-.5.1-.7.3-1.4.6-3.1 1.4-5.1 1.4zm-72.5-31.6c-5.6 0-10.7 4.2-12.2 10-.3 1-.5 2.5-.5 3.8 0 7.4 5.9 13.9 12.7 13.9h72.5c.8 0 1.9-.7 3-1.2.3-.2.6-.4.9-.5 3.3-1.6 5.7-5.8 5.7-9.8 0-5.5-4.4-10.1-9.6-10.1h-.7c-.7 0-1.3-.2-1.8-.7-.5-.5-.7-1.2-.6-1.8.1-.5.1-1 .1-1.5 0-7-5.7-12.7-12.7-12.7-2.7 0-5.3.8-7.5 2.5-.5.4-1.2.5-1.9.4-.7-.2-1.2-.7-1.5-1.3-2.7-6.5-9-10.7-16.1-10.7-7.3 0-13.9 4.6-16.4 11.5-.7 1.9-1 3.9-1 5.9 0 1.4.2 2.8.5 4.3.2 1-.2 2-1.1 2.5-.9.5-2 .3-2.7-.5-1.3-1.4-2.9-2.5-4.8-3.2-1.1-.6-2.6-.8-4.3-.8zM547.3 366h-40.6c-9.1 0-16.5-7.6-16.5-16.8 0-.5 0-2.2.4-3.7 1.5-7.5 8.3-13 16.2-13 1.5 0 3 .2 4.3.5v-.1c2.6-8.2 10.1-13.7 18.8-13.7 10.7 0 19.4 8.5 19.8 19 6.6 1 11.5 6.4 11.5 13.1 0 5.6-3.4 10.9-8.3 12.8-.3.1-.6.3-.9.5-1.4.6-3 1.4-4.7 1.4zm-40.6-29.1c-5.8 0-10.7 4-11.8 9.5-.2.7-.3 2-.3 3 0 6.8 5.4 12.6 12.1 12.6h40.6c.8 0 1.8-.8 2.7-1.2.4-.2.7-.5 1-.6 3.3-1.3 5.5-5 5.5-8.8 0-4.9-3.9-8.8-9-8.9-.7.1-1.4-.2-1.9-.7-.4-.4-.6-1-.6-1.6V339c0-8.5-6.9-15.3-15.3-15.3-6.7 0-12.6 4.3-14.6 10.7-.2.6-.4 1.2-.5 2-.1.7-.6 1.3-1.2 1.6-.6.3-1.3.3-2 0-.3-.1-.7-.3-1.1-.4h-.1c-1-.5-2.2-.7-3.5-.7zm27.7 49.4c-.6 0-1.1-.2-1.6-.6-.9-.9-.9-2.3 0-3.1l6.5-6.5c.9-.9 2.3-.9 3.1 0 .9.9.9 2.3 0 3.1l-6.5 6.5c-.4.4-.9.6-1.5.6z" class="st2"/><path d="M540.8 386.3c-.6 0-1.1-.2-1.6-.6l-6.5-6.5c-.9-.9-.9-2.3 0-3.1.9-.9 2.3-.9 3.1 0l6.5 6.5c.9.9.9 2.3 0 3.1-.3.4-.9.6-1.5.6zM448 450.4c-.6 0-1.1-.2-1.6-.6-.9-.9-.9-2.3 0-3.1l6.5-6.5c.9-.9 2.3-.9 3.1 0 .9.9.9 2.3 0 3.1l-6.5 6.5c-.4.4-.9.6-1.5.6z" class="st2"/><path d="M454.5 450.4c-.6 0-1.1-.2-1.6-.6l-6.5-6.5c-.9-.9-.9-2.3 0-3.1.9-.9 2.3-.9 3.1 0l6.5 6.5c.9.9.9 2.3 0 3.1-.4.4-1 .6-1.5.6zm24.7 21.3c-.6 0-1.1-.2-1.6-.6-.9-.9-.9-2.3 0-3.1l6.5-6.5c.9-.9 2.3-.9 3.1 0 .9.9.9 2.3 0 3.1l-6.5 6.5c-.4.4-1 .6-1.5.6z" class="st2"/><path d="M485.6 471.7c-.6 0-1.1-.2-1.6-.6l-6.5-6.5c-.9-.9-.9-2.3 0-3.1.9-.9 2.3-.9 3.1 0l6.5 6.5c.9.9.9 2.3 0 3.1-.3.4-.9.6-1.5.6zm10-30c-.6 0-1.1-.2-1.6-.6-.9-.9-.9-2.3 0-3.1l6.5-6.5c.9-.9 2.3-.9 3.1 0 .9.9.9 2.3 0 3.1l-6.5 6.5c-.3.4-.9.6-1.5.6z" class="st2"/><path d="M502.1 441.7c-.6 0-1.1-.2-1.6-.6l-6.5-6.5c-.9-.9-.9-2.3 0-3.1.9-.9 2.3-.9 3.1 0l6.5 6.5c.9.9.9 2.3 0 3.1-.4.4-.9.6-1.5.6z" class="st2"/><path d="M601.7 819.9c-.5-1.4-1-2.7-1.6-4-5.2-11.2-15.1-19.8-27.1-23.3-3.9-1.1-23.6-3.6-51.2-3.6s-44.7 2.5-48.5 3.6c-6.6 1.9-12.5 5.3-17.4 9.9-4.6 5.8-7.7 12.7-8.8 20.3-.3 2.1-.5 4.3-.5 6.5 0 1.4.1 2.8.2 4.2.4 4.2 1.4 8.1 2.9 11.9 6.4 16 22 27.3 40.2 27.3 14 0 23.6-6.1 30.8-10.9 5.4-3.6 9.2-3.6 14.9.2 7.2 4.7 16.7 10.7 29.8 10.7 11.3 0 21.6-4.3 29.3-11.5 1.6-2 3.1-4.2 4.3-6.5.8-1.4 1.4-2.8 2-4.3 2-5 3.1-10.4 3.1-16 0-5.2-.8-10-2.4-14.5zm-11.9 33.6c-2.7 2.7-5.8 4.9-9.3 6.6-4.5 2.2-9.6 3.4-14.9 3.4-17.8 0-28.1-16.2-37.4-16.2-9.5 0-19 16.2-38.1 16.2-18.8 0-34.3-15.4-34.3-34.3 0-8.6 3.2-16.5 8.5-22.6.5-.6 1-1.1 1.5-1.6 6.2-6.2 14.8-10.1 24.2-10.1 9.1 0 27.4 1.9 36.5 1.9 9.8 0 29.3-1.9 39-1.9 18.8 0 34.3 15.4 34.3 34.3.1 9.6-3.8 18.1-10 24.3z" class="st0"/><path d="M606.5 815.1c1.6 4.5 2.4 9.3 2.4 14.2 0 5.7-1.1 11.1-3.1 16l6.7-.6v-30.1l-6 .5zm-158.9.4l-.2 7.4-.3 10.6-.4 11.6-6.8-.7v-29.5z" class="st1"/><path d="M589.1 837.6c0 8.6-3.2 16.5-8.5 22.6-4.5 2.2-9.6 3.4-14.9 3.4-17.8 0-28.1-16.2-37.4-16.2-9.5 0-19 16.2-38.1 16.2-18.8 0-34.3-15.4-34.3-34.3 0-8.6 3.2-16.5 8.5-22.6 4.5-2.2 9.6-3.5 14.9-3.5 9.1 0 27.4 1.9 36.5 1.9 9.8 0 29.3-1.9 39-1.9 18.9.1 34.3 15.5 34.3 34.4z" class="st0"/><path d="M565.6 865.8c-11 0-19.3-5.8-25.9-10.4-4.4-3.1-8.3-5.8-11.5-5.8-3.2 0-6.9 2.6-11.2 5.6-6.7 4.7-15 10.6-26.8 10.6-20.1 0-36.5-16.4-36.5-36.5 0-8.8 3.2-17.4 9.1-24 .5-.6 1-1.1 1.6-1.7 6.9-6.9 16.1-10.7 25.8-10.7 4.6 0 11.6.5 18.4 1 6.7.5 13.6.9 18.1.9 4.8 0 12.2-.5 19.4-.9 7.2-.5 14.7-1 19.6-1 20.1 0 36.5 16.4 36.5 36.5 0 9.7-3.8 18.8-10.7 25.8-2.9 2.9-6.2 5.3-9.9 7-5 2.4-10.4 3.6-16 3.6zm-37.4-20.6c4.6 0 9 3 14.1 6.6 6.5 4.5 13.8 9.6 23.4 9.6 4.9 0 9.6-1.1 14-3.2 3.2-1.6 6.1-3.7 8.7-6.2 6.1-6.1 9.4-14.1 9.4-22.6 0-17.7-14.4-32-32.1-32-4.8 0-12.2.5-19.3.9-7.2.5-14.7 1-19.7 1-4.6 0-11.6-.5-18.4-1-6.7-.5-13.6-.9-18.1-.9-8.5 0-16.6 3.3-22.6 9.4-.5.5-1 1-1.4 1.5-5.2 5.9-8 13.4-8 21.1 0 17.7 14.4 32 32 32 10.4 0 17.8-5.2 24.3-9.7 4.8-3.5 9.1-6.5 13.7-6.5z" class="st2"/><path d="M565.6 874.9c-14.2 0-24.3-6.6-31-11-5-3.3-7.8-3.3-12.5-.2-6.7 4.5-16.9 11.2-32 11.2-18.7 0-35.3-11.3-42.3-28.7-1.6-4-2.6-8.2-3-12.5-.1-1.4-.2-2.9-.2-4.4 0-2.3.2-4.6.5-6.8 2.6-17.5 15.3-32 32.4-36.9 4.2-1.2 21.6-3.7 49.1-3.7 27.3 0 47.5 2.5 51.8 3.7 12.6 3.7 22.9 12.6 28.5 24.5.6 1.3 1.2 2.7 1.7 4.2 1.7 4.8 2.5 9.8 2.5 15 0 5.8-1.1 11.5-3.2 16.8-.6 1.6-1.3 3.1-2.1 4.5-7.9 15-23.3 24.3-40.2 24.3zm-37.4-18c2.8 0 5.6 1.1 8.9 3.2 6.2 4.1 15.7 10.3 28.6 10.3 15.2 0 29.1-8.4 36.3-21.8.7-1.3 1.3-2.7 1.9-4.1 1.9-4.9 2.9-10 2.9-15.2 0-4.6-.8-9.2-2.3-13.5-.5-1.3-1-2.6-1.5-3.8-5-10.8-14.4-18.8-25.7-22.1-3.6-1-23.2-3.5-50.5-3.5-26.7 0-44 2.4-47.8 3.5-15.4 4.4-26.9 17.5-29.2 33.4-.3 2-.5 4.1-.5 6.1 0 1.3.1 2.7.2 3.9.4 3.9 1.3 7.6 2.7 11.3 6.3 15.7 21.3 25.9 38.2 25.9 13.8 0 23.3-6.3 29.5-10.5 2.8-2.1 5.5-3.1 8.3-3.1z" class="st2"/><path d="M605.9 847.6c-1.1 0-2.1-.9-2.2-2-.1-1.2.8-2.3 2-2.4l8-.8v-29.8l-8.6.7c-1.2.1-2.3-.8-2.4-2-.1-1.2.8-2.3 2-2.4l11-1c.6-.1 1.2.2 1.7.6.5.4.7 1 .7 1.6v34.3c0 1.1-.9 2.1-2 2.2l-10 1h-.2zm-156 0h-.2l-10.1-1c-1.1-.1-2-1.1-2-2.2v-34.3c0-.6.3-1.2.7-1.6.5-.4 1.1-.6 1.7-.6l11 1c1.2.1 2.1 1.2 2 2.4-.1 1.2-1.2 2.1-2.4 2l-8.6-.7v29.8l8 .8c1.2.1 2.1 1.2 2 2.4 0 1.1-.9 2-2.1 2z" class="st2"/><linearGradient id="SVGID_1_" x1="560.4785" x2="566.4604" y1="846.2895" y2="846.2895" gradientUnits="userSpaceOnUse"><stop offset="0" style="stop-color:#FFFFFF"/><stop offset="1" style="stop-color:#000000"/></linearGradient><path d="M560.5 844.8c2 1 4 1.9 6 2.9" class="st4"/><path d="M566.5 850c-.3 0-.7-.1-1-.2l-6-2.9c-1.1-.5-1.6-1.9-1-3 .5-1.1 1.9-1.6 3-1l6 2.9c1.1.5 1.6 1.9 1 3-.4.7-1.2 1.2-2 1.2z" class="st2"/><linearGradient id="SVGID_2_" x1="488.7747" x2="556.763" y1="830.0345" y2="830.0345" gradientUnits="userSpaceOnUse"><stop offset="0" style="stop-color:#FFFFFF"/><stop offset="1" style="stop-color:#000000"/></linearGradient><path d="M548.6 838.8c-12.2-6.1-24.5-11.9-36.6-17.6l36.2 17.6h.4z" class="st5"/><path d="M548.2 841.1c-.3 0-.7-.1-1-.2L511 823.2c-1.1-.5-1.6-1.9-1-2.9.5-1.1 1.8-1.6 2.9-1l6.9 3.2c9.8 4.6 19.9 9.4 29.8 14.4.9.5 1.4 1.6 1.1 2.6-.3 1-1.1 1.6-2.1 1.6h-.4z" class="st2"/><linearGradient id="SVGID_3_" x1="430.3863" x2="544.1141" y1="830.9807" y2="830.9807" gradientUnits="userSpaceOnUse"><stop offset="0" style="stop-color:#FFFFFF"/><stop offset="1" style="stop-color:#000000"/></linearGradient><path d="M510.5 836c-4.3-2.1-17.7-8.5-20.9-10.1-.1 0 14.9 7.2 20.9 10.2.1-.1 0-.1 0-.1z" class="st6"/><path d="M510.6 838.3c-.3 0-.7-.1-1-.2-3.2-1.6-9-4.4-13.6-6.6l-5.2-2.5-1.6-.8c-.2-.1-.3-.2-.5-.2-1.2-.7-1.4-1.2-1.3-2.3.1-.7.5-1.3 1.1-1.7.6-.3 1.4-.4 2-.1 3.2 1.5 16.6 7.9 21 10.1.8.4 1.2 1.2 1.2 2v.1c0 .8-.4 1.5-1 1.9-.3.2-.7.3-1.1.3z" class="st2"/><linearGradient id="SVGID_4_" x1="488.7747" x2="556.7629" y1="812.3013" y2="812.3013" gradientUnits="userSpaceOnUse"><stop offset="0" style="stop-color:#FFFFFF"/><stop offset="1" style="stop-color:#000000"/></linearGradient><path d="M498.4 814.6l-9.7-4.7c3.3 1.6 6.5 3.2 9.7 4.7 0 .1 0 0 0 0z" class="st7"/><path d="M498.4 816.9c-.3 0-.7-.1-1-.2-3.1-1.5-6.4-3.1-9.6-4.8-1.1-.6-1.5-1.9-1-3s1.9-1.5 3-1l9.7 4.7c.6.3 1.1.9 1.2 1.6.1.7-.1 1.4-.6 1.9-.5.6-1.1.8-1.7.8z" class="st2"/><path d="M814.9 852.2v.8l2.2 2.2c-.7-1-1.4-1.9-2.2-3zm17.4 71.9c-13.8 6.4-30.7 1.8-39.1-11.3-17.2-26.7-15.6-29.4-37.5-64.2h.1c.9-.9 1.3-2 1.2-3.2 0-1-.5-2-1.2-2.8l-3.6-3.6h6.5c1.4 0 2.6-1.2 2.6-2.6 0-.5-.1-.9-.3-1.3-.4-.8-1.3-1.3-2.3-1.4H747l-2.3-2.3-8-11.8h16.2l8.3 8.3c1 1 2.7 1 3.7 0 .7-.7.9-1.7.6-2.6-.1-.4-.3-.7-.6-1l-4.6-4.6h5c.4 0 .9-.1 1.3-.2 1.7-.5 3-2.1 3-4.1 0-2.3-1.9-4.2-4.2-4.2h-5l4.6-4.6c1-1 1-2.7 0-3.7s-2.7-1-3.7 0l-8.3 8.3h-20l14.1-14.1h11.7c.8 0 1.5-.4 2-.9.4-.5.6-1 .6-1.7 0-.6-.2-1.2-.6-1.6-.5-.6-1.2-1-2-1h-6.5l3.6-3.6c.4-.4.6-.8.8-1.2.8-1.6.5-3.5-.8-4.8-.3-.3-.7-.6-1.1-.8-1.6-.8-3.6-.6-4.9.8l-3.6 3.6v-6.5c0-1.5-1.2-2.6-2.6-2.6-1.5 0-2.6 1.2-2.6 2.6V791L727 805.1v-20l5.8-5.8 2.5-2.5c1-1 1-2.7 0-3.7s-2.7-1-3.7 0l-4.6 4.6v-5c0-2.3-1.9-4.2-4.2-4.2-2.3 0-4.2 1.9-4.2 4.2v5l-1.3-1.3-3.3-3.3c-1-1-2.7-1-3.7 0s-1 2.7 0 3.7l8.3 8.3v9.8c-3.2-4.3-6.9-9.5-11.5-16.2-3.5-5-5.1-10.8-5.1-16.5 0-.7 0-1.5.1-2.2 2.4-4.3 5.9-8 10.2-10.8l1.8-1.2c14.3-9.2 34.1-5.3 42.9 9.3 18.3 30.4 17 32.5 37.4 64.2 6.4 9.9 11.4 17.3 15.6 23.4v2.9l-3.6-3.6c-1.6-1.7-4.3-1.7-6 0-1.5 1.5-1.6 3.7-.5 5.4.1.2.3.4.5.6l1.6 1.6 1.9 1.9h-7c-1.2.3-2.1 1.3-2.1 2.6 0 1.4 1.2 2.6 2.6 2.6h11.7l14.1 14.1h-20l-7.7-7.7-.6-.6c-.4-.4-1-.7-1.5-.7h-.6c-.6.1-1.1.3-1.6.7-.2.2-.4.4-.5.7-.5 1-.3 2.2.5 3l3.4 3.4 1.3 1.2h-5c-.9 0-1.8.3-2.5.8-1.1.8-1.8 2-1.8 3.4 0 .9.3 1.7.7 2.4.8 1.1 2 1.8 3.5 1.8h5l-4.6 4.6c-.5.5-.8 1.2-.8 1.8 0 .7.3 1.3.8 1.8.1.1.2.2.3.2 1 .8 2.5.7 3.4-.2l6.3-6.3 2-2h20l-6.4 6.4-7.7 7.7h-11.7c-1.4 0-2.6 1.2-2.6 2.6 0 1.5 1.2 2.6 2.6 2.6h6.5l-1.2 1.2-2.3 2.3c-.8.8-1.2 1.8-1.2 2.9 0 .7.1 1.4.5 2.1.2.4.4.7.8 1.1.8.8 1.9 1.2 3 1.2s2.2-.4 3-1.2l3.6-3.6v6.5c0 1.4 1.2 2.6 2.6 2.6h.4c1.3-.2 2.2-1.3 2.2-2.6v-11.7l14.1-14.1v20l-8.3 8.3c-1 1-1 2.7 0 3.7.1.1.2.2.3.2 1 .8 2.5.7 3.4-.2l4.6-4.6v5c-.4 2.3 1 4 2.9 4.4zm8.8-5.6c-1 .9-2.1 1.6-3.2 2.4l-.5.3c.1-.4.2-.8.2-1.2v-5l3.5 3.5zm6.8-8.2c.4-5-.5-10.2-2.6-14.9l-7.8-7.8v20l7.2 7.2 3.2-4.5z" class="st0"/><path d="M849 876.9c-8.4-13-13.6-19.8-19-27-6.8-8.8-14.4-18.9-29.9-42.9-11.6-18.1-16.2-26.4-21.4-36.1-3.8-7-8.1-15-16-28-4.4-7.3-11.5-12.5-20.1-14.4-8.8-2.1-18.3-.4-25.9 4.5l-1.8 1.2c-8.8 5.7-14.6 15.3-15.3 25.8-.1.7-.1 1.5-.1 2.4 0 6.4 1.9 12.6 5.5 17.8 4 5.9 7.7 11 11.6 16.3 2.8 3.8 5.2 7 7.5 10 3.5 4.6 6.7 8.9 10.7 14.6 2.6 3.7 5.2 7.5 8 11.8 1.7 2.6 3.4 5.2 5.2 7.9 2.1 3.3 4.1 6.4 5.9 9.2 11.3 17.9 16.4 27.4 20.9 35.8 4.3 7.9 8.3 15.5 16.7 28.5 6.3 9.7 17 15.2 28 15.2 4.7 0 9.4-1 13.9-3.1 1.3-.6 2.7-1.4 4-2.2l1.8-1.2c1.2-.8 2.4-1.6 3.4-2.5 1.4-1.2 2.7-2.5 4-4 1.3-1.5 2.4-3.2 3.4-4.8 0 0 0-.1.1-.1 5.9-11.1 5.6-24.3-1.1-34.7zm-3 32.3l-.1.1c-.8 1.4-1.8 2.8-2.8 4.1-1.1 1.3-2.2 2.4-3.4 3.4-.9.8-1.9 1.5-3 2.2l-1.9 1.2c-1.1.7-2.3 1.4-3.5 1.9-13 6-28.6 1.5-36.3-10.5-8.3-12.9-12.1-19.9-16.5-28.1-4.5-8.5-9.7-18.1-21-36.1-1.8-2.9-3.8-5.9-5.9-9.2-1.8-2.7-3.5-5.3-5.2-8-2.8-4.2-5.4-8.1-8.1-11.9-4.1-5.8-7.3-10.1-10.8-14.7-2.3-3.1-4.7-6.2-7.5-10-3.8-5.2-7.5-10.3-11.5-16.1-3.1-4.5-4.7-9.8-4.7-15.3 0-.7 0-1.4.1-2 .7-9.1 5.6-17.5 13.3-22.4l1.8-1.2c4.7-3 10.3-4.6 15.8-4.6 2.2 0 4.4.2 6.6.8 7.4 1.7 13.5 6.1 17.3 12.4 7.8 12.9 12.1 20.9 15.9 27.9 5.3 9.7 9.8 18.1 21.6 36.3 15.6 24.2 23.3 34.3 30.1 43.2 5.7 7.4 10.6 13.8 18.8 26.7 6 9 6.3 20.5.9 29.9z" class="st2"/><circle cx="738.2" cy="781" r="3.1" class="st2"/><circle cx="744.9" cy="791.5" r="3.1" class="st2"/><circle cx="756.5" cy="784" r="3.1" class="st2"/><circle cx="751.7" cy="801.9" r="3.1" class="st2"/><circle cx="763.3" cy="794.4" r="3.1" class="st2"/><circle cx="749.8" cy="773.5" r="3.1" class="st2"/><circle cx="790.6" cy="862.4" r="3.1" class="st2"/><circle cx="797.4" cy="872.9" r="3.1" class="st2"/><circle cx="809" cy="865.4" r="3.1" class="st2"/><circle cx="804.1" cy="883.4" r="3.1" class="st2"/><circle cx="815.8" cy="875.9" r="3.1" class="st2"/><circle cx="802.3" cy="854.9" r="3.1" class="st2"/><path d="M700.1 601.8h4.9V636h-4.9zm68.7 0h4.9V636h-4.9z" class="st0"/><path d="M875 587.8c0 16.1-6.1 30.9-16.1 42.1-11.2 10.1-26 16.2-42.2 16.2H680.1c-3.4 0-6.1-2.7-6.1-6.1 0-.4 0-.8.1-1.2.4-.1.8-.1 1.2-.1H812c15.2 0 28.9-6.7 38.2-17.3 10.6-9.3 17.3-23 17.3-38.2 0-.4 0-.8.1-1.2.4-.1.8-.1 1.2-.1 3.5-.2 6.2 2.5 6.2 5.9zm-62.5 7.9v.7c-.7.3-1.5.5-2.4.5H680c-3.3 0-6-2.7-6-6v-.7c.7-.3 1.5-.5 2.4-.5h130.1c3.3 0 6 2.7 6 6z" class="st0"/><path d="M873.6 574.7c-3.9 0-7.3 2.8-8.1 6.6-.1.6-.2 1.1-.2 1.7 0 14-6 27.3-16.6 36.6-8.9 7.8-20.3 12.1-32 12.1h-36.2v-32.5H810c1.1 0 2.2-.2 3.2-.7 3-1.3 4.9-4.2 4.9-7.5 0-4.5-3.7-8.2-8.2-8.2H680c-4.1 0-7.6 3.1-8.1 7.1 0 .3-.1.7-.1 1.1 0 4.5 3.7 8.2 8.2 8.2h17.2v32.5h-17.1c-3.9 0-7.3 2.8-8.1 6.6-.1.6-.2 1.1-.2 1.7 0 4.6 3.7 8.3 8.3 8.3h136.6c16.1 0 31.6-6 43.6-16.8 13.7-12.4 21.6-30 21.6-48.4.1-4.6-3.7-8.4-8.3-8.4zm-97.5 57h-6v-32.5h6v32.5zm-10.4-32.6v32.5H712v-32.5h53.7zm-89.5-8.1v-.5c.2-1.8 1.9-3.3 3.7-3.3H810c2 0 3.7 1.7 3.7 3.7 0 1.5-.9 2.8-2.3 3.4-.5.2-1 .3-1.5.3H680c-2.1.1-3.8-1.6-3.8-3.6zm25.4 8.1h6v32.5h-6v-32.5zm155.8 29.1c-11.2 10.1-25.6 15.7-40.7 15.7H680.1c-2.1 0-3.9-1.7-3.9-3.9 0-.3 0-.5.1-.8.4-1.8 2-3.1 3.8-3.1h136.6c12.8 0 25.2-4.7 34.9-13.2 11.5-10.1 18.1-24.6 18.1-39.9 0-.3 0-.5.1-.8.4-1.8 2-3.1 3.8-3.1 2.1 0 3.9 1.7 3.9 3.9 0 17.2-7.3 33.7-20.1 45.2z" class="st2"/><path d="M161.8 238.1s-1 9.8-2.2 20c-.1.9-.3 1.7-.6 2.5-.3 0-.5.1-.8.1-2.1 0-4-.9-5.3-2.2-1.4-1.4-2.2-3.3-2.2-5.3v-15h11.1zm113.7 0v20c0 .9-.1 1.7-.4 2.5-.3.1-.7.1-1 .1-4.2 0-7.1-3.4-7.6-7.6-.7-5.7-1.3-11.2-1.7-15h10.7zm.4-24.1c-.7-36.8-15.9-66.7-35-84.6-1.2-1.1-2.6-2.3-4-3.4-4.3 3.1-9.5 5-15.3 5-10 0-18.7-5.7-22.9-14-3.9.7-8 1.9-12.3 3.7-6 2.4-11.6 6.1-16.7 10.7-13.4 17.7-21.9 43.3-22.5 71.9-.2 8.3 0 28.8 0 28.8H276c0-6.3 0-13.8-.1-18.1zm-97.2-5.5c-1.6 1.4-3 2.2-3.7 2.2-2.2 0-11.9-8.8-11.9-15.5 0-1.1.2-2.2.7-3.2 1-2.3 3.2-3.8 5.6-3.8 2.4 0 4.4 1.4 5.5 3.5 1.1-2.1 3.2-3.5 5.5-3.5 3.5 0 6.4 3.1 6.4 7 .1 4.6-4.5 10.3-8.1 13.3zm41 .1c-1.6 1.3-3 2.2-3.6 2.2-2.2 0-11.9-8.8-11.9-15.5 0-1.1.2-2.2.7-3.2 1-2.3 3.2-3.8 5.6-3.8 2.4 0 4.4 1.4 5.5 3.5 1.1-2.1 3.2-3.5 5.5-3.5 3.5 0 6.3 3.1 6.3 7 .1 4.5-4.5 10.2-8.1 13.3zm41.6 0c-1.6 1.3-3 2.2-3.6 2.2-2.2 0-11.9-8.8-11.9-15.5 0-1.1.2-2.2.7-3.2 1.1-2.3 3.2-3.8 5.7-3.8 2.4 0 4.4 1.4 5.5 3.5 1.1-2.1 3.2-3.5 5.5-3.5 3.5 0 6.4 3.1 6.4 7 0 4.5-4.7 10.2-8.3 13.3z" class="st0"/><path d="M183.6 198.6c0 3.2-2.3 7-4.9 10-1.6 1.4-3 2.2-3.7 2.2-2.2 0-11.9-8.8-11.9-15.5 0-1.1.2-2.2.7-3.2.7-.3 1.5-.5 2.3-.5 2.4 0 4.4 1.4 5.5 3.5 1.1-2.1 3.2-3.5 5.5-3.5 3.6 0 6.5 3.1 6.5 7zm82.6 0c0 3.2-2.3 7-4.9 10-1.6 1.3-3 2.2-3.6 2.2-2.2 0-11.9-8.8-11.9-15.5 0-1.1.2-2.2.7-3.2.7-.3 1.5-.5 2.3-.5 2.4 0 4.4 1.4 5.5 3.5 1.1-2.1 3.2-3.5 5.5-3.5 3.6 0 6.4 3.1 6.4 7zm-41.6 0c0 3.2-2.3 7-4.9 10-1.6 1.3-3 2.2-3.6 2.2-2.2 0-11.9-8.8-11.9-15.5 0-1.1.2-2.2.7-3.2.7-.3 1.5-.5 2.3-.5 2.4 0 4.4 1.4 5.5 3.5 1.1-2.1 3.2-3.5 5.5-3.5 3.6 0 6.4 3.1 6.4 7zm-3.5-120.1c-6.2 0-11.9 2.3-16.2 6.2-2.8 4-4.4 8.8-4.4 14 0 13.5 11 24.5 24.5 24.5 6.2 0 11.9-2.3 16.2-6.2 2.8-4 4.4-8.8 4.4-14-.1-13.5-11-24.5-24.5-24.5z" class="st8"/><path d="M287.5 204c-.7-36.1-14.1-68.3-35.8-86.3-.9-.8-2.3-.6-3.1.3-.8.9-.6 2.3.3 3.1 20.8 17.2 33.6 48.2 34.2 83 .1 6.6.1 21 0 26.5H149c0-5.5-.1-20 0-26.5.8-42.3 20-79 47.7-91.4 1.1-.5 1.6-1.8 1.1-2.9-.5-1.1-1.8-1.6-2.9-1.1-29.2 13-49.4 51.4-50.3 95.4-.2 8.2 0 28.6 0 28.8 0 1.2 1 2.2 2.2 2.2h1.5v18c0 2.6 1 5 2.9 6.9 1.9 1.8 4.3 2.9 6.9 2.9.3 0 .7 0 1.1-.1 4.6-.5 8-4.3 8.6-9.4.9-7.6 1.7-15 2-18.3h92.4c.1.8.2 1.9.3 3.3.4 3.8 1 9.3 1.7 15 .6 5.5 4.7 9.5 9.7 9.5.5 0 1 0 1.4-.1 2-.3 4-1.2 5.5-2.8 1.8-1.9 2.9-4.3 2.9-6.9v-18h1.5c1.2 0 2.2-1 2.2-2.2.1-.3.3-20.7.1-28.9zm-124.1 48.8c-.3 2.5-1.9 5.2-4.8 5.6h-.6c-1.4 0-2.8-.6-3.8-1.6s-1.6-2.4-1.6-3.8v-18h12.7c-.2 3.5-1 10.6-1.9 17.8zm116 .2c0 1.4-.6 2.8-1.6 3.8-.8.8-1.9 1.4-3 1.5h-.7c-3.2 0-5-2.9-5.4-5.6-.7-5.6-1.3-11.2-1.7-15-.1-1.1-.2-2-.3-2.8h12.7V253z" class="st2"/><path d="M218.8 119.8c-1.2-.4-2.4.3-2.8 1.5-.4 1.2.3 2.4 1.5 2.8 2.6.8 5.2 1.2 7.9 1.2h1.5c1.2-.1 2.2-1.1 2.1-2.3-.1-1.2-1.1-2.1-2.3-2.1-2.7 0-5.4-.3-7.9-1.1zm31.5-16.9c-1.2-.4-2.4.3-2.8 1.5-1.4 4.5-4.1 8.6-7.7 11.4-1 .8-1.1 2.2-.4 3.1.4.6 1.1.8 1.7.8.5 0 1-.2 1.4-.5 4.3-3.4 7.6-8.3 9.2-13.6.4-1.1-.3-2.3-1.4-2.7zm-2.6-11c.6 2.2.8 4.5.8 6.7 0 1.2.9 2.3 2.1 2.3h.1c1.2 0 2.2-.9 2.2-2.1.1-2.7-.2-5.4-.9-8-.3-1.2-1.5-1.9-2.7-1.6-1.2.3-1.9 1.5-1.6 2.7zm-2.9-6.6c.4.6 1.1 1 1.8 1 .4 0 .8-.1 1.2-.4 1-.7 1.3-2.1.6-3.1-1.1-1.6-2.4-3.2-3.8-4.6-.9-.8-2.3-.8-3.1.1-.8.9-.8 2.3.1 3.1 1.2 1.2 2.2 2.5 3.2 3.9zm-16.2-10.1c2.6.4 5.1 1.1 7.4 2.3.3.2.7.2 1 .2.8 0 1.6-.4 2-1.2.6-1.1.1-2.4-1-3-2.8-1.4-5.7-2.3-8.9-2.7-1.2-.2-2.3.7-2.5 1.9-.1 1.2.7 2.3 2 2.5zM217 76.4c.2 0 .5 0 .7-.1 1-.4 2-.6 3.1-.9 1.2-.2 2-1.4 1.7-2.6-.2-1.2-1.4-2-2.6-1.7-1.3.3-2.5.6-3.7 1-1.2.4-1.8 1.7-1.3 2.8.3 1 1.1 1.5 2.1 1.5zm-8.5 5.2c.5 0 1.1-.2 1.5-.6.8-.7 1.6-1.4 2.5-2 1-.7 1.2-2.1.5-3.1s-2.1-1.2-3.1-.5c-1.1.7-2.1 1.6-3 2.5-.9.8-.9 2.2-.1 3.1.5.4 1.1.6 1.7.6zm-7.6 14.2h.3c1.1 0 2-.8 2.2-1.9.3-2 .8-3.9 1.6-5.7.5-1.1-.1-2.4-1.2-2.9-1.1-.5-2.4.1-2.9 1.2-.9 2.1-1.5 4.4-1.9 6.7-.1 1.3.7 2.4 1.9 2.6zm.8 14.8c.4.8 1.2 1.2 2 1.2.3 0 .7-.1 1-.2 1.1-.5 1.5-1.9 1-3-1.2-2.4-2-5.1-2.3-7.8-.1-1.2-1.3-2.1-2.5-1.9-1.2.1-2.1 1.3-1.9 2.5.3 3.2 1.3 6.3 2.7 9.2zm8.7 4.5c-.9-.8-2.3-.8-3.1.1-.8.9-.8 2.3.1 3.1 1.1 1.1 2.4 2 3.7 2.8.4.2.8.3 1.2.3.7 0 1.5-.4 1.9-1 .6-1 .3-2.4-.7-3.1-1.2-.6-2.2-1.4-3.1-2.2zm20.4-3.3c.4.7 1.2 1.1 1.9 1.1.4 0 .7-.1 1.1-.3 1.7-1 3.2-2.2 4.5-3.7.8-.9.7-2.3-.3-3.1-.9-.8-2.3-.7-3.1.3-.9 1.1-2 2-3.3 2.7-1.1.5-1.4 1.9-.8 3zm6.2-23c-1.1.6-1.4 2-.8 3 1.3 2.2 1.8 4.8 1.6 7.2-.1 1.2.8 2.3 2 2.4h.2c1.1 0 2.1-.9 2.2-2 .3-3.4-.5-6.8-2.2-9.8-.6-1-1.9-1.4-3-.8zm-20.6.2c.5 0 1-.2 1.4-.5 1.1-.9 2.3-1.6 3.6-2.1 1.2-.4 1.8-1.7 1.3-2.8-.4-1.2-1.7-1.8-2.8-1.3-1.8.6-3.4 1.6-4.9 2.8-1 .8-1.1 2.2-.3 3.1.4.5 1.1.8 1.7.8zm-5.3 11.1c1.2 0 2.2-1 2.2-2.2 0-.6 0-1.1.1-1.7.2-1.2-.7-2.3-1.9-2.5-1.2-.2-2.3.7-2.5 1.9-.1.8-.2 1.6-.2 2.4 0 1.1 1 2.1 2.3 2.1zm11.4 9.7c-1.4-.4-2.7-1.1-3.9-2-1-.7-2.4-.5-3.1.5-.7 1-.5 2.4.5 3.1 1.6 1.2 3.4 2.1 5.2 2.6.2.1.4.1.7.1.9 0 1.8-.6 2.1-1.6.3-1.1-.4-2.4-1.5-2.7zm6.8-16.6c-1.1.6-1.4 2-.8 3 .3.6.5 1.3.4 1.9-.1 1.2.8 2.3 2 2.4h.2c1.1 0 2.1-.9 2.2-2 .1-1.5-.2-3.1-1-4.5-.6-1-2-1.4-3-.8zm-8.8 1.9c.4.5 1.1.8 1.7.8.5 0 1-.2 1.4-.5.3-.2.6-.4 1-.5 1.2-.4 1.8-1.7 1.3-2.8-.4-1.2-1.7-1.8-2.8-1.3-.8.3-1.6.7-2.3 1.3-.9.6-1 2-.3 3zm4.4 5.8c-.4-.1-.7-.3-1.1-.5-1-.7-2.4-.5-3.1.5-.7 1-.5 2.4.5 3.1.7.5 1.5.9 2.4 1.2.2.1.4.1.7.1.9 0 1.8-.6 2.1-1.6.4-1.2-.3-2.4-1.5-2.8zm-32.5 31.4c-1.1-.6-2.4-.2-3 .9l-2.1 3.8-2.1-3.8c-.6-1.1-1.9-1.5-3-.9s-1.5 1.9-.9 3l4 7.4c.4.7 1.1 1.2 1.9 1.2.8 0 1.6-.4 1.9-1.2l4-7.4c.8-1 .4-2.4-.7-3zm18.1 0c-1.1.6-1.5 1.9-.9 3l4 7.4c.4.7 1.1 1.2 1.9 1.2.8 0 1.6-.4 1.9-1.2l4-7.4c.6-1.1.2-2.4-.9-3-1.1-.6-2.4-.2-3 .9l-2.1 3.8-2.1-3.8c-.4-1.1-1.8-1.5-2.8-.9zm38.4 0c-1.1-.6-2.4-.2-3 .9l-2.1 3.8-2.1-3.8c-.6-1.1-1.9-1.5-3-.9s-1.5 1.9-.9 3l4 7.4c.4.7 1.1 1.2 1.9 1.2.8 0 1.6-.4 1.9-1.2l4-7.4c.7-1 .3-2.4-.7-3zM178 154.5c-1.1-.6-2.4-.2-3 .9l-2.1 3.8-2.1-3.8c-.6-1.1-1.9-1.5-3-.9s-1.5 1.9-.9 3l4 7.4c.4.7 1.1 1.2 1.9 1.2.8 0 1.6-.4 1.9-1.2l4-7.4c.8-1.1.4-2.4-.7-3zm18.1 0c-1.1.6-1.5 1.9-.9 3l4 7.4c.4.7 1.1 1.2 1.9 1.2.8 0 1.6-.4 1.9-1.2l4-7.4c.6-1.1.2-2.4-.9-3-1.1-.6-2.4-.2-3 .9l-2.1 3.8-2.1-3.8c-.4-1.1-1.8-1.5-2.8-.9zm35.2 10.4l4-7.4c.6-1.1.2-2.4-.9-3-1.1-.6-2.4-.2-3 .9l-2.1 3.8-2.1-3.8c-.6-1.1-1.9-1.5-3-.9s-1.5 1.9-.9 3l4 7.4c.4.7 1.1 1.2 1.9 1.2 1-.1 1.7-.5 2.1-1.2zm32-10.4c-1.1-.6-2.4-.2-3 .9l-2.1 3.8-2.1-3.8c-.6-1.1-1.9-1.5-3-.9s-1.5 1.9-.9 3l4 7.4c.4.7 1.1 1.2 1.9 1.2.8 0 1.6-.4 1.9-1.2l4-7.4c.7-1.1.3-2.4-.7-3zm-101 25.8c1.2 0 2.2-1 2.2-2.2 0-1.2-1-2.2-2.2-2.2h-4.8c-1.2 0-2.2 1-2.2 2.2 0 1.2 1 2.2 2.2 2.2h4.8zm7.6-4.4c-1.2 0-2.2 1-2.2 2.2 0 1.2 1 2.2 2.2 2.2h4.8c1.2 0 2.2-1 2.2-2.2 0-1.2-1-2.2-2.2-2.2h-4.8zm17.3 0h-4.8c-1.2 0-2.2 1-2.2 2.2 0 1.2 1 2.2 2.2 2.2h4.8c1.2 0 2.2-1 2.2-2.2 0-1.2-1-2.2-2.2-2.2zm12.4 0h-4.8c-1.2 0-2.2 1-2.2 2.2 0 1.2 1 2.2 2.2 2.2h4.8c1.2 0 2.2-1 2.2-2.2.1-1.2-.9-2.2-2.2-2.2zm5.5 2.2c0 1.2 1 2.2 2.2 2.2h4.8c1.2 0 2.2-1 2.2-2.2 0-1.2-1-2.2-2.2-2.2h-4.8c-1.2 0-2.2 1-2.2 2.2zm12.4 0c0 1.2 1 2.2 2.2 2.2h4.8c1.2 0 2.2-1 2.2-2.2 0-1.2-1-2.2-2.2-2.2h-4.8c-1.2 0-2.2 1-2.2 2.2zm15 2.2h4.8c1.2 0 2.2-1 2.2-2.2 0-1.2-1-2.2-2.2-2.2h-4.8c-1.2 0-2.2 1-2.2 2.2 0 1.2 1 2.2 2.2 2.2zm17.3-4.4H245c-1.2 0-2.2 1-2.2 2.2 0 1.2 1 2.2 2.2 2.2h4.8c1.2 0 2.2-1 2.2-2.2 0-1.2-1-2.2-2.2-2.2zm12.4 0h-4.8c-1.2 0-2.2 1-2.2 2.2 0 1.2 1 2.2 2.2 2.2h4.8c1.2 0 2.2-1 2.2-2.2 0-1.2-.9-2.2-2.2-2.2zm12.5 0h-4.8c-1.2 0-2.2 1-2.2 2.2 0 1.2 1 2.2 2.2 2.2h4.8c1.2 0 2.2-1 2.2-2.2 0-1.2-1-2.2-2.2-2.2zM153 221c0 1.2 1 2.2 2.2 2.2h5c1.2 0 2.2-1 2.2-2.2 0-1.2-1-2.2-2.2-2.2h-5c-1.2 0-2.2 1-2.2 2.2zm20.1-2.2h-5c-1.2 0-2.2 1-2.2 2.2 0 1.2 1 2.2 2.2 2.2h5c1.2 0 2.2-1 2.2-2.2 0-1.2-.9-2.2-2.2-2.2zm8 0c-1.2 0-2.2 1-2.2 2.2 0 1.2 1 2.2 2.2 2.2h5c1.2 0 2.2-1 2.2-2.2 0-1.2-1-2.2-2.2-2.2h-5zm12.9 4.4h5c1.2 0 2.2-1 2.2-2.2 0-1.2-1-2.2-2.2-2.2h-5c-1.2 0-2.2 1-2.2 2.2 0 1.2 1 2.2 2.2 2.2zm12.9-4.4c-1.2 0-2.2 1-2.2 2.2 0 1.2 1 2.2 2.2 2.2h5c1.2 0 2.2-1 2.2-2.2 0-1.2-1-2.2-2.2-2.2h-5zm13 0c-1.2 0-2.2 1-2.2 2.2 0 1.2 1 2.2 2.2 2.2h5c1.2 0 2.2-1 2.2-2.2 0-1.2-1-2.2-2.2-2.2h-5zm13.2 4.4h5c1.2 0 2.2-1 2.2-2.2 0-1.2-1-2.2-2.2-2.2h-5c-1.2 0-2.2 1-2.2 2.2 0 1.2 1 2.2 2.2 2.2zm13-4.4c-1.2 0-2.2 1-2.2 2.2 0 1.2 1 2.2 2.2 2.2h5c1.2 0 2.2-1 2.2-2.2 0-1.2-1-2.2-2.2-2.2h-5zm12.9 0c-1.2 0-2.2 1-2.2 2.2 0 1.2 1 2.2 2.2 2.2h5c1.2 0 2.2-1 2.2-2.2 0-1.2-1-2.2-2.2-2.2h-5zm10.7 2.2c0 1.2 1 2.2 2.2 2.2h5c1.2 0 2.2-1 2.2-2.2 0-1.2-1-2.2-2.2-2.2h-5c-1.2 0-2.2 1-2.2 2.2zm-89.1-34.9c-2 0-4 .8-5.5 2.2-1.5-1.4-3.5-2.2-5.5-2.2-3.3 0-6.2 2-7.6 5.1-.6 1.3-.9 2.7-.9 4.1 0 7.7 10.3 17.7 14.1 17.7.5 0 1.9 0 5.1-2.7 3.3-2.9 9-9.2 9-15-.2-5.1-4-9.2-8.7-9.2zm-3.3 20.8c-1.1.9-1.9 1.4-2.2 1.6-2.2-1-9.6-8-9.6-13.2 0-.8.2-1.5.5-2.2.7-1.6 2.1-2.5 3.6-2.5 1.4 0 2.8.9 3.6 2.3.4.7 1.1 1.2 2 1.2.8 0 1.6-.5 2-1.2.7-1.4 2.1-2.3 3.5-2.3 2.3 0 4.1 2.1 4.1 4.8-.1 3.3-3.8 8.3-7.5 11.5zm80.4-18.7c-1.5-1.4-3.5-2.2-5.5-2.2-3.3 0-6.2 2-7.7 5.1-.6 1.3-.9 2.7-.9 4.1 0 7.7 10.3 17.7 14.1 17.7.5 0 1.9 0 5.1-2.7 3.3-2.9 9-9.2 9-15 0-5.1-3.8-9.2-8.6-9.2-2 .1-4 .8-5.5 2.2zm9.6 7.1c0 3.4-3.8 8.5-7.4 11.6-1.1.9-1.8 1.4-2.2 1.6-2.2-1-9.6-8-9.6-13.2 0-.8.2-1.5.5-2.2.7-1.6 2.1-2.5 3.7-2.5 1.4 0 2.8.9 3.5 2.3.4.7 1.1 1.2 2 1.2.8 0 1.6-.5 2-1.2.7-1.4 2.1-2.3 3.5-2.3 2.2-.1 4 2 4 4.7zm-45.7-9.2c-2 0-4 .8-5.5 2.2-1.5-1.4-3.5-2.2-5.5-2.2-3.3 0-6.2 2-7.6 5.1-.6 1.3-.9 2.7-.9 4.1 0 7.7 10.3 17.7 14.1 17.7.5 0 1.9 0 5.1-2.7 3.3-2.9 9-9.2 9-15-.2-5.1-4-9.2-8.7-9.2zm-3.3 20.8c-1.1.9-1.8 1.4-2.2 1.6-2.2-1-9.6-8-9.6-13.2 0-.8.2-1.5.5-2.2.7-1.6 2.1-2.5 3.6-2.5 1.4 0 2.8.9 3.6 2.3.4.7 1.1 1.2 2 1.2.8 0 1.6-.5 2-1.2.7-1.4 2.1-2.3 3.5-2.3 2.3 0 4.1 2.1 4.1 4.8-.1 3.3-3.9 8.4-7.5 11.5z" class="st2"/><path d="M519.2 195.3c0 4.3-2.6 9.2-5.9 13.5-.8.8-1.6 1.6-2.4 2.2-2.5 2.1-4.6 3.4-5.6 3.4-3.4 0-18.4-13.7-18.4-24.1 0-1.7.3-3.3 1-4.7 1.3-.8 2.8-1.2 4.5-1.2 3.7 0 6.9 2.2 8.6 5.5 1.7-3.3 4.9-5.5 8.6-5.5 5.2 0 9.6 4.9 9.6 10.9z" class="st8"/><path d="M532.7 149.6c-3.1-18-14-31.7-33.3-33.3-3-.3-9-.3-12 0-5 .4-9.7 1.6-13.8 3.6-4.7 5.6-7.5 12.7-7.9 20.9-1 20.5-1 32-.5 41.4L454 167.8c-.2-.2-.3-.4-.5-.6-16.3-7.5-16.6 5.2-19.9 5.1-.7 3.2 0 6.9 1.8 10.1 9.5 17.9 32.3 39.5 32.3 39.5 3.2 21.6 3 38.7 3 38.7H527c-.1-8.2-.1-20.7.7-31.4 5.1-8.2 6.8-33.2 6.9-35.8.6-13.1.2-31.6-1.9-43.8zM510.9 211c-2.5 2.1-4.6 3.4-5.6 3.4-3.4 0-18.4-13.7-18.4-24.1 0-1.8.4-3.4 1.1-4.9 1.6-3.5 4.9-5.9 8.8-5.9 3.7 0 6.9 2.2 8.6 5.5 1.7-3.3 4.9-5.5 8.6-5.5 5.5 0 9.9 4.9 9.9 10.9-.2 7-7.5 15.9-13 20.6z" class="st0"/><path d="M490 129.5c.4.7 1.1 1.2 1.9 1.2.8 0 1.6-.4 1.9-1.2l4-7.4c.6-1.1.2-2.4-.9-3-1.1-.6-2.4-.2-3 .9l-2.1 3.8-2.1-3.8c-.6-1.1-1.9-1.5-3-.9s-1.5 1.9-.9 3l4.2 7.4zm26 0c.4.7 1.1 1.2 1.9 1.2.8 0 1.6-.4 1.9-1.2l4-7.4c.6-1.1.2-2.4-.9-3-1.1-.6-2.4-.2-3 .9l-2.1 3.8-2.1-3.8c-.6-1.1-1.9-1.5-3-.9s-1.5 1.9-.9 3l4.2 7.4zm-39.3 21.1c.4.7 1.1 1.2 1.9 1.2.8 0 1.6-.4 1.9-1.2l4-7.4c.6-1.1.2-2.4-.9-3-1.1-.6-2.4-.2-3 .9l-2.1 3.8-2.1-3.8c-.6-1.1-1.9-1.5-3-.9s-1.5 1.9-.9 3l4.2 7.4zm26 0c.4.7 1.1 1.2 1.9 1.2.8 0 1.6-.4 1.9-1.2l4-7.4c.6-1.1.2-2.4-.9-3-1.1-.6-2.4-.2-3 .9l-2.1 3.8-2.1-3.8c-.6-1.1-1.9-1.5-3-.9s-1.5 1.9-.9 3l4.2 7.4zm26.1 0c.4.7 1.1 1.2 1.9 1.2.8 0 1.6-.4 1.9-1.2l4-7.4c.6-1.1.2-2.4-.9-3-1.1-.6-2.4-.2-3 .9l-2.1 3.8-2.1-3.8c-.6-1.1-1.9-1.5-3-.9s-1.5 1.9-.9 3l4.2 7.4zm-32.3 89.2c-1.1-.6-2.4-.2-3 .9l-2.1 3.8-2.1-3.8c-.6-1.1-1.9-1.5-3-.9s-1.5 1.9-.9 3l4 7.4c.4.7 1.1 1.2 1.9 1.2.8 0 1.6-.4 1.9-1.2l4-7.4c.8-1.1.4-2.4-.7-3zm26 0c-1.1-.6-2.4-.2-3 .9l-2.1 3.8-2.1-3.8c-.6-1.1-1.9-1.5-3-.9s-1.5 1.9-.9 3l4 7.4c.4.7 1.1 1.2 1.9 1.2.8 0 1.6-.4 1.9-1.2l4-7.4c.8-1.1.4-2.4-.7-3zm-43.4-75.4c0-1.2-1-2.2-2.2-2.2h-4.8c-1.2 0-2.2 1-2.2 2.2 0 1.2 1 2.2 2.2 2.2h4.8c1.2 0 2.2-1 2.2-2.2zm12.5 0c0-1.2-1-2.2-2.2-2.2h-4.8c-1.2 0-2.2 1-2.2 2.2 0 1.2 1 2.2 2.2 2.2h4.8c1.2 0 2.2-1 2.2-2.2zm5.4-2.3c-1.2 0-2.2 1-2.2 2.2 0 1.2 1 2.2 2.2 2.2h4.8c1.2 0 2.2-1 2.2-2.2 0-1.2-1-2.2-2.2-2.2H497zm17.3 0h-4.8c-1.2 0-2.2 1-2.2 2.2 0 1.2 1 2.2 2.2 2.2h4.8c1.2 0 2.2-1 2.2-2.2 0-1.2-1-2.2-2.2-2.2zm12.4 0h-4.8c-1.2 0-2.2 1-2.2 2.2 0 1.2 1 2.2 2.2 2.2h4.8c1.2 0 2.2-1 2.2-2.2 0-1.2-1-2.2-2.2-2.2zm12.5 0h-4.8c-1.2 0-2.2 1-2.2 2.2 0 1.2 1 2.2 2.2 2.2h4.8c1.2 0 2.2-1 2.2-2.2 0-1.2-1-2.2-2.2-2.2zm-58 64.5h-4.8c-1.2 0-2.2 1-2.2 2.2 0 1.2 1 2.2 2.2 2.2h4.8c1.2 0 2.2-1 2.2-2.2.1-1.2-.9-2.2-2.2-2.2zm7.7 0c-1.2 0-2.2 1-2.2 2.2 0 1.2 1 2.2 2.2 2.2h4.8c1.2 0 2.2-1 2.2-2.2 0-1.2-1-2.2-2.2-2.2h-4.8zm17.3 0h-4.8c-1.2 0-2.2 1-2.2 2.2 0 1.2 1 2.2 2.2 2.2h4.8c1.2 0 2.2-1 2.2-2.2 0-1.2-1-2.2-2.2-2.2zm7.6 0c-1.2 0-2.2 1-2.2 2.2 0 1.2 1 2.2 2.2 2.2h4.8c1.2 0 2.2-1 2.2-2.2 0-1.2-1-2.2-2.2-2.2h-4.8zm17.3 0h-4.8c-1.2 0-2.2 1-2.2 2.2 0 1.2 1 2.2 2.2 2.2h4.8c1.2 0 2.2-1 2.2-2.2 0-1.2-1-2.2-2.2-2.2zm-25.9-10c1.6 0 4-1.3 7.1-3.9.9-.7 1.7-1.5 2.6-2.4 2.6-2.6 11-11.6 11-20 0-7.2-5.4-13.1-12.1-13.1-3.3 0-6.3 1.4-8.6 3.9-2.2-2.4-5.3-3.9-8.6-3.9-4.6 0-8.7 2.8-10.8 7.2 0 0 0 .1-.1.1l-.1.1c-.8 1.7-1.2 3.6-1.2 5.6.2 11.8 16.1 26.4 20.8 26.4zm-15.4-30.2l.1-.1c1.3-2.9 3.9-4.6 6.8-4.6 2.7 0 5.2 1.6 6.6 4.3.4.7 1.1 1.2 2 1.2.8 0 1.6-.5 2-1.2 1.4-2.6 3.9-4.3 6.6-4.3 4.2 0 7.7 3.9 7.7 8.6 0 5.4-5 12.3-9.7 16.9-.8.8-1.5 1.5-2.3 2.1-2.4 2-3.8 2.7-4.2 2.8-2.9-.7-16.2-12.9-16.2-21.9-.2-1.3.1-2.5.6-3.8z" class="st2"/><path d="M546.5 140.4c-3.6-20.8-16.5-33.6-35.3-35.1-3.1-.3-9.3-.3-12.4 0-11 .9-20.6 5.6-26.9 13.2-5.1 6.1-8 13.7-8.4 22.2-.7 14.5-1 25.3-.7 34.8l-7.1-9c-.2-.3-.4-.5-.6-.7-4.8-5.3-12.9-6-18.5-1.6l-.7.5c-2.3 1.8-3.9 4.3-4.5 7.2-.8 3.6-.1 7.8 2 11.6 8.8 16.7 28.5 36 32.2 39.5 3 20.8 2.9 37.4 2.9 37.6 0 .6.2 1.2.6 1.6.4.4 1 .7 1.6.7h68.2c.6 0 1.2-.2 1.6-.7.4-.4.6-1 .6-1.6 0-.2-.8-22.2.4-39.5 5.4-9.6 6.9-36.1 6.9-36.3.7-13 .3-31.7-1.9-44.4zm-2.5 44.1c-.3 5.5-2.2 27.7-6.6 34.7-.2.3-.3.6-.3 1-1 14.4-.7 32-.5 38.2h-63.7c-.1-5.4-.5-19.8-3-36.8-.1-.5-.3-.9-.7-1.3-.2-.2-22.7-21.5-31.9-38.9-1.6-2.9-2.1-6-1.6-8.6.4-1.9 1.4-3.4 2.9-4.6l.7-.5c3.8-3 9.3-2.5 12.5 1.1.1.2.3.3.4.5l11.3 14.4c.6.8 1.6 1 2.5.7.9-.3 1.5-1.2 1.4-2.2-.6-11-.4-23.3.5-41.2.4-7.5 2.9-14.2 7.4-19.6 5.6-6.7 14.1-10.8 23.9-11.6 2.9-.2 8.8-.2 11.7 0 9.8.8 26.9 6 31.3 31.5 2.1 12.1 2.4 30.9 1.8 43.2z" class="st2"/><path d="M329.1 823.8l-61.6-41-5.1-3.4-8-5.3H244c-.6 3.5-1.8 6.7-3.5 9.6-4.9 8.4-13.9 14-24.2 14-10.3 0-19.3-5.6-24.2-14-1.7-2.9-2.9-6.1-3.5-9.6h-29.9v.3-.2l-54.1 36.3-10.9 7.4 15 23.8 55.7-28.3 1.1-.6-1.7 80.4h101.1l-1.5-68.1-.4-13 55.6 28.5 10.5-16.8zm-106.4 25.5c-.8.8-1.6 1.6-2.4 2.2-2.5 2.1-4.6 3.4-5.6 3.4-3.4 0-18.4-13.7-18.4-24.1 0-1.7.3-3.3 1-4.7 0-.1.1-.1.1-.2 1.6-3.5 4.9-5.9 8.8-5.9 3.7 0 6.9 2.2 8.6 5.5 1.7-3.3 4.9-5.5 8.6-5.5 5.5 0 9.9 4.9 9.9 10.9-.2 6-5.6 13.4-10.6 18.4z" class="st0"/><path d="M228.6 835.8c0 4.3-2.6 9.2-5.9 13.5-.8.8-1.6 1.6-2.4 2.2-2.5 2.1-4.6 3.4-5.6 3.4-3.4 0-18.4-13.7-18.4-24.1 0-1.7.3-3.3 1-4.7 1.3-.8 2.8-1.2 4.5-1.2 3.7 0 6.9 2.2 8.6 5.5 1.7-3.3 4.9-5.5 8.6-5.5 5.2 0 9.6 4.9 9.6 10.9z" class="st8"/><path d="M176.5 865.2c0-1.2-1-2.2-2.2-2.2h-4.6c-1.2 0-2.2 1-2.2 2.2 0 1.2 1 2.2 2.2 2.2h4.6c1.2 0 2.2-1 2.2-2.2zm9.8-2.2h-4.6c-1.2 0-2.2 1-2.2 2.2 0 1.2 1 2.2 2.2 2.2h4.6c1.2 0 2.2-1 2.2-2.2 0-1.2-1-2.2-2.2-2.2zm14.1 2.2c0-1.2-1-2.2-2.2-2.2h-4.6c-1.2 0-2.2 1-2.2 2.2 0 1.2 1 2.2 2.2 2.2h4.6c1.2 0 2.2-1 2.2-2.2zm9.8-2.2h-4.6c-1.2 0-2.2 1-2.2 2.2 0 1.2 1 2.2 2.2 2.2h4.6c1.2 0 2.2-1 2.2-2.2 0-1.2-1-2.2-2.2-2.2zm14.4 2.2c0-1.2-1-2.2-2.2-2.2h-4.6c-1.2 0-2.2 1-2.2 2.2 0 1.2 1 2.2 2.2 2.2h4.6c1.2 0 2.2-1 2.2-2.2zm9.7-2.2h-4.6c-1.2 0-2.2 1-2.2 2.2 0 1.2 1 2.2 2.2 2.2h4.6c1.2 0 2.2-1 2.2-2.2.1-1.2-.9-2.2-2.2-2.2zm14.2 2.2c0-1.2-1-2.2-2.2-2.2h-4.6c-1.2 0-2.2 1-2.2 2.2 0 1.2 1 2.2 2.2 2.2h4.6c1.2 0 2.2-1 2.2-2.2zm9.7-2.2h-4.6c-1.2 0-2.2 1-2.2 2.2 0 1.2 1 2.2 2.2 2.2h4.6c1.2 0 2.2-1 2.2-2.2 0-1.2-1-2.2-2.2-2.2zm-71.9-55.6h-4.6c-1.2 0-2.2 1-2.2 2.2 0 1.2 1 2.2 2.2 2.2h4.6c1.2 0 2.2-1 2.2-2.2 0-1.2-1-2.2-2.2-2.2zm7.3 4.5h4.6c1.2 0 2.2-1 2.2-2.2 0-1.2-1-2.2-2.2-2.2h-4.6c-1.2 0-2.2 1-2.2 2.2 0 1.2 1 2.2 2.2 2.2zm9.7-2.2c0 1.2 1 2.2 2.2 2.2h4.6c1.2 0 2.2-1 2.2-2.2 0-1.2-1-2.2-2.2-2.2h-4.6c-1.2-.1-2.2.9-2.2 2.2zm14.5 2.2h4.6c1.2 0 2.2-1 2.2-2.2 0-1.2-1-2.2-2.2-2.2h-4.6c-1.2 0-2.2 1-2.2 2.2-.1 1.2.9 2.2 2.2 2.2zm16.5-4.5h-4.6c-1.2 0-2.2 1-2.2 2.2 0 1.2 1 2.2 2.2 2.2h4.6c1.2 0 2.2-1 2.2-2.2.1-1.2-.9-2.2-2.2-2.2zm7.4 4.5h4.6c1.2 0 2.2-1 2.2-2.2 0-1.2-1-2.2-2.2-2.2h-4.6c-1.2 0-2.2 1-2.2 2.2-.1 1.2.9 2.2 2.2 2.2zm16.5-4.5h-4.6c-1.2 0-2.2 1-2.2 2.2 0 1.2 1 2.2 2.2 2.2h4.6c1.2 0 2.2-1 2.2-2.2 0-1.2-1-2.2-2.2-2.2z" class="st2"/><path d="M338.1 814.3l-73.9-49.7c-.4-.3-.9-.4-1.4-.4-.1 0-.3-.1-.4-.1l-21.7-2.7c-.6-.1-1.2.1-1.6.5-.5.4-.8.9-.8 1.5-.4 3.4-1.5 6.7-3.2 9.6-4.4 7.5-12.1 12-20.7 12s-16.3-4.5-20.7-12c-1.7-2.9-2.8-6.2-3.2-9.6-.1-.6-.4-1.1-.8-1.5-.5-.4-1.1-.5-1.6-.5l-21.7 2.7c-.5.1-1 .3-1.4.7l-73.5 49.4c-1 .7-1.3 2-.6 3l16.1 25.6c.4.7 1.1 1 1.9 1 .3 0 .7-.1 1-.2l53.5-27.2-1.6 76.7c0 .6.2 1.2.6 1.6.4.4 1 .7 1.6.7h101.1c.6 0 1.2-.2 1.6-.7.4-.4.6-1 .6-1.6l-1.7-77.1 54.4 27.7c.3.2.7.2 1 .2.7 0 1.5-.4 1.9-1l16.1-25.6c.3-1 .1-2.4-.9-3zm-191.9 5.8c0-.5-.1-.9-.3-1.4l-2.5-3.9c-.7-1-2-1.3-3.1-.7-1 .7-1.3 2-.7 3.1l2.5 3.9c.2.3.4.5.7.7l-21.6 11-2.3-3.7c-.7-1-2-1.3-3.1-.7-1 .7-1.3 2-.7 3.1l2.1 3.3-8 4-13.9-22.1 7.3-4.9 2.1 3.4c.4.7 1.1 1 1.9 1 .4 0 .8-.1 1.2-.3 1-.7 1.3-2 .7-3.1l-2.2-3.5 20.1-13.5c0 .4.1.8.3 1.2l2.5 3.9c.4.7 1.1 1 1.9 1 .4 0 .8-.1 1.2-.3 1-.7 1.3-2 .7-3.1l-2.5-3.9c-.3-.4-.6-.7-1-.9l34.5-23.2-.9 40.8-16.9 8.8zm19.7 70.9l1.7-78.1.1-2.4c.3.8 1.1 1.4 2 1.4h4.6c1.2 0 2.2-1 2.2-2.2 0-1.2-1-2.2-2.2-2.2h-4.6c-.9 0-1.7.5-2 1.3l.9-40.4 17.7-2.2c.6 3.2 1.8 6.3 3.5 9.1 5.1 8.8 14.5 14.2 24.5 14.2s19.4-5.5 24.5-14.2c1.7-2.8 2.8-5.9 3.5-9.1l17.7 2.2 2.6 122.7h-96.7zm154-52.2l-7.5-3.8 2.2-3.5c.7-1 .4-2.4-.7-3.1-1-.7-2.4-.4-3.1.7l-2.5 3.9-21.8-11.1c.4-.2.7-.4 1-.8l2.5-3.9c.7-1 .4-2.4-.7-3.1-1-.7-2.4-.4-3.1.7l-2.5 3.9c-.3.5-.4 1.1-.3 1.7l-18.4-9.3-.9-40.9 35.6 23.9c-.3.2-.5.4-.7.7l-2.5 3.9c-.7 1-.4 2.4.7 3.1.4.2.8.3 1.2.3.7 0 1.4-.4 1.9-1l2.5-3.9c.2-.3.3-.5.3-.8l20 13.4-2 3.2c-.7 1-.4 2.4.7 3.1.4.2.8.3 1.2.3.7 0 1.4-.4 1.9-1l2-3.1 6.9 4.6-13.9 21.9z" class="st2"/><path d="M224.3 850.8c2.6-2.6 11-11.6 11-20 0-7.2-5.4-13.1-12.1-13.1-3.3 0-6.3 1.4-8.6 3.9-2.2-2.4-5.3-3.9-8.6-3.9-4.6 0-8.7 2.8-10.8 7.2 0 0 0 .1-.1.1l-.1.1c-.8 1.7-1.2 3.6-1.2 5.6 0 11.7 15.9 26.3 20.6 26.3 1.6 0 4-1.3 7.1-3.9 1.1-.6 1.9-1.4 2.8-2.3zm-5.5-1c-2.4 2-3.8 2.7-4.2 2.8-2.9-.7-16.2-12.9-16.2-21.9 0-1.4.3-2.6.8-3.9l.1-.1c1.3-2.9 3.9-4.6 6.8-4.6 2.7 0 5.2 1.6 6.6 4.3.4.7 1.1 1.2 2 1.2s1.6-.5 2-1.2c1.4-2.6 3.9-4.3 6.6-4.3 4.2 0 7.7 3.9 7.7 8.6 0 5.4-5 12.3-9.7 16.9-.9.9-1.7 1.6-2.5 2.2zM181.7 874c-1.1-.6-2.4-.2-3 .9l-2.1 3.8-2.1-3.8c-.6-1.1-1.9-1.5-3-.9s-1.5 1.9-.9 3l4 7.4c.4.7 1.1 1.2 1.9 1.2.8 0 1.6-.4 1.9-1.2l4-7.4c.7-1.1.3-2.4-.7-3zm24.9 0c-1.1-.6-2.4-.2-3 .9l-2.1 3.8-2.1-3.8c-.6-1.1-1.9-1.5-3-.9s-1.5 1.9-.9 3l4 7.4c.4.7 1.1 1.2 1.9 1.2.8 0 1.6-.4 1.9-1.2l4-7.4c.7-1.1.4-2.4-.7-3zm24.9 0c-1.1-.6-2.4-.2-3 .9l-2.1 3.8-2.1-3.8c-.6-1.1-1.9-1.5-3-.9s-1.5 1.9-.9 3l4 7.4c.4.7 1.1 1.2 1.9 1.2.8 0 1.6-.4 1.9-1.2l4-7.4c.8-1.1.4-2.4-.7-3zm25.5 0c-1.1-.6-2.4-.2-3 .9l-2.1 3.8-2.1-3.8c-.6-1.1-1.9-1.5-3-.9s-1.5 1.9-.9 3l4 7.4c.4.7 1.1 1.2 1.9 1.2.8 0 1.6-.4 1.9-1.2l4-7.4c.7-1.1.3-2.4-.7-3zm-120-69.3c-.7-1-2-1.3-3.1-.7-1 .7-1.3 2-.7 3.1l2.5 3.9c.4.7 1.1 1 1.9 1 .4 0 .8-.1 1.2-.3 1-.7 1.3-2 .7-3.1l-2.5-3.9zM112.5 819c-.7-1-2-1.3-3.1-.7-1 .7-1.3 2-.7 3.1l2.5 3.9c.4.7 1.1 1 1.9 1 .4 0 .8-.1 1.2-.3 1-.7 1.3-2 .7-3.1l-2.5-3.9zm16.3-5l-4.4.3 2.1-3.8c.6-1.1.2-2.4-.9-3-1.1-.6-2.4-.2-3 .9l-4.1 7.4c-.4.7-.4 1.6.1 2.3.4.6 1.1 1 1.9 1h.1l8.4-.6c1.2-.1 2.1-1.1 2.1-2.4 0-1.3-1.1-2.2-2.3-2.1zm167-10c-1-.7-2.4-.4-3.1.7l-2.5 3.9c-.7 1-.4 2.4.7 3.1.4.2.8.3 1.2.3.7 0 1.4-.4 1.9-1l2.5-3.9c.7-1 .4-2.4-.7-3.1zm24.5 14.3c-1-.7-2.4-.4-3.1.7l-2.5 3.9c-.7 1-.4 2.4.7 3.1.4.2.8.3 1.2.3.7 0 1.4-.4 1.9-1l2.5-3.9c.7-1 .4-2.4-.7-3.1zm-13.2-10c-.6-1.1-1.9-1.5-3-.9s-1.5 1.9-.9 3l2.1 3.8-4.3-.2c-1.2-.1-2.3.8-2.4 2.1-.1 1.2.8 2.3 2.1 2.4l8.4.6h.1c.8 0 1.5-.4 1.9-1 .4-.7.5-1.6.1-2.3l-4.1-7.5zm-128.6-6.4l4-7.4c.6-1.1.2-2.4-.9-3-1.1-.6-2.4-.2-3 .9l-2.1 3.8-2.1-3.8c-.6-1.1-1.9-1.5-3-.9s-1.5 1.9-.9 3l4 7.4c.4.7 1.1 1.2 1.9 1.2 1 0 1.7-.5 2.1-1.2zm21 0c.4.7 1.1 1.2 1.9 1.2.8 0 1.6-.4 1.9-1.2l4-7.4c.6-1.1.2-2.4-.9-3-1.1-.6-2.4-.2-3 .9l-2.1 3.8-2.1-3.8c-.6-1.1-1.9-1.5-3-.9s-1.5 1.9-.9 3l4.2 7.4zm25 0c.4.7 1.1 1.2 1.9 1.2.8 0 1.6-.4 1.9-1.2l4-7.4c.6-1.1.2-2.4-.9-3-1.1-.6-2.4-.2-3 .9l-2.1 3.8-2.1-3.8c-.6-1.1-1.9-1.5-3-.9s-1.5 1.9-.9 3l4.2 7.4zm25.4 0c.4.7 1.1 1.2 1.9 1.2.8 0 1.6-.4 1.9-1.2l4-7.4c.6-1.1.2-2.4-.9-3-1.1-.6-2.4-.2-3 .9l-2.1 3.8-2.1-3.8c-.6-1.1-1.9-1.5-3-.9s-1.5 1.9-.9 3l4.2 7.4z" class="st2"/><path d="M281.5 660.9c-13.7 2.9-36 4.8-61.2 4.8-41.5 0-75.1-5.1-75.4-11.5 5.8-1.3 13.3-2.3 21.8-3.1h78.8c21.4 2.1 35.8 5.7 36 9.8z" class="st0"/><path d="M261.7 582.1c-11.2 1.4-25.7 2.3-41.6 2.3-17.8 0-33.9-1.1-45.5-2.8 2.6-2.6 6.1-4.2 10-4.2 1 0 1.9.1 2.9.3-.1-.3-.1-.7-.1-1 0-.7.1-1.3.3-1.9.8-2.3 3-4 5.6-4 1.1 0 2 .3 2.9.8 3.2-3.9 8-6.3 13.4-6.3s10.2 2.4 13.4 6.3c1-.5 2.2-.7 3.3-.7 2.7 0 5 1.3 6.5 3.3.7 1 1.2 2.1 1.4 3.4 2.4.2 4.5.9 6.4 2.1.4-2.2 2-4 4-4.8.7-.3 1.5-.4 2.4-.4 1.2 0 2.3.3 3.3.9 1.7 1 2.9 2.8 3.1 4.9.4-.1.9-.1 1.3-.1 2.8-.2 5.1.6 7 1.9z" class="st9"/><path d="M158.9 605.5l-1.8-1.8c-.4-.4-.4-1.1 0-1.5.2-.2.4-.3.6-.3.3 0 .6.1.9.3l.2.2 3.1 3.1h8l-5.7-5.7h-4.7c-.6 0-1-.5-1-1s.4-.9.8-1h2.8l-1.4-1.4c-.1-.1-.1-.2-.2-.2-.5-.7-.4-1.6.2-2.2.7-.7 1.7-.7 2.4 0l.7.7.7.7v-2.6c-3.4-.4-6.6-.9-9.3-1.5.2 4.9.8 9.7 1.9 14.2h1.8zm-1 3.4c.1.2.2.5.2.7l.7-.7h-.9zm9.4 2.6l2.6-2.6h-8l-3 3 .9 2.7h4.4l3.1-3.1zm-.7-14l4.8 4.8.9.9v-8l-1.7-1.7c-1.4-.1-2.7-.3-4-.4v4.4zm16.9-3.1v.9l.9-.9h-.9zm-2.1-.1c-1.5-.1-3.1-.2-4.6-.3l-1.1 1.1v8l5.7-5.7v-3.1zM161 617.8l.6-.6.5-.5h-1.6c.2.4.4.7.5 1.1zm74.3 34.2c.6 0 1.2-.1 1.8-.2v-1.6l-1.4 1.4c-.1.3-.3.3-.4.4zm-.6-23.1l-1.2-1.2c-.3.4-.7.8-1 1.2h2.2zm13.6 13.6v7.8c1.4-.3 2.6-.6 3.6-1 .5-.5 1-1.1 1.5-1.6l-5.1-5.2zm10.4-2.4h-8l2.6 2.6 2.3 2.3c1.2-1.5 2.3-3 3.4-4.6l-.3-.3zm-13.8 2.4l-5.7 5.7v3.5c1.9-.2 3.6-.4 5.2-.7l.4-.4v-8.1z" class="st0"/><path d="M233.3 651.7c-.1-.1-.2-.3-.3-.4-.1-.3-.2-.5-.2-.8 0-.4.2-.8.5-1.2l.9-.9.5-.5h-2.6c-.6 0-1-.5-1-1 0-.6.5-1 1-1h4.7l3.1-3.1 2.6-2.6h-8l-3.3 3.3c-.4.4-1 .4-1.4.1l-.1-.1c-.2-.2-.3-.5-.3-.7 0-.3.1-.5.3-.7l1.8-1.8h-2c-.6 0-1.1-.3-1.4-.7-.2-.3-.3-.6-.3-1 0-.6.3-1.1.7-1.4.3-.2.6-.3 1-.3h2l-1.8-1.8c-.4-.4-.4-1.1 0-1.5.2-.2.4-.3.6-.3.3 0 .6.1.9.3l.2.2 3.1 3.1h8l-5.7-5.7h-4.7c-.4 0-.8-.3-1-.6-.4.4-.8.9-1.2 1.3-1 1-2 1.9-2.9 2.7-3 2.5-5.5 4.1-6.8 4.1-4.1 0-22.1-16.4-22.1-28.9 0-2 .4-3.9 1.2-5.6 0-.1.1-.2.1-.3 1.9-4.2 5.9-7.1 10.5-7.1 4.4 0 8.2 2.6 10.3 6.6 2-3.9 5.9-6.6 10.3-6.6 6.6 0 11.8 5.8 11.8 13 0 5-2.9 10.6-6.7 15.6l.7.7.7.7v-2.6c0-.6.5-1 1-1 .6 0 1 .5 1 1v4.7l4.8 4.8.9.9v-8l-3.3-3.3c-.4-.4-.4-1.1 0-1.5.4-.4 1.1-.4 1.5 0l1.3 1.3.5.5v-2c0-.9.8-1.7 1.7-1.7s1.7.8 1.7 1.7v2l1.8-1.8c.4-.4 1.1-.4 1.5 0 .4.4.4 1.1 0 1.5l-1 1-2.3 2.3v8l5.7-5.7v-4.7c0-.6.5-1 1-1 .6 0 1 .5 1 1v2.6l1.4-1.4c.7-.7 1.7-.7 2.4 0s.7 1.7 0 2.4l-1.4 1.4h2.6c.6 0 1 .5 1 1 0 .6-.5 1-1 1h-4.7l-5.7 5.7h8l3.3-3.3c.3-.3.8-.4 1.2-.2 3.3-6.6 5.7-13.9 7-21.6-.8-.1-1.5-.8-1.5-1.7v-2l-1.8 1.8c-.4.4-1 .4-1.4.1l-.1-.1c-.4-.4-.4-1.1 0-1.5l2.4-2.4.9-.9v-8l-5.7 5.7v4.7c0 .5-.4 1-.9 1h-.1c-.6 0-1-.5-1-1v-2.6l-1.4 1.4c-.3.3-.8.5-1.2.5-.4 0-.9-.2-1.2-.5-.1-.1-.2-.3-.3-.4-.1-.3-.2-.5-.2-.8 0-.4.2-.8.5-1.2l.9-.9.5-.5H256c-.6 0-1-.5-1-1 0-.6.5-1 1-1h4.7l3.1-3.1 2.6-2.6h-8l-3.3 3.3c-.4.4-1 .4-1.4.1l-.1-.1c-.2-.2-.3-.5-.3-.7 0-.3.1-.5.3-.7l1.8-1.8h-2c-.6 0-1.1-.3-1.4-.7 0-.1-.1-.1-.1-.2-9.9.9-21.7 1.5-34.4 1.5h-11.3c-6.4 0-12.7-.1-18.5-.4.2.6.1 1.2-.4 1.7l-1.4 1.4h2.6c.6 0 1 .5 1 1 0 .6-.5 1-1 1h-4.7l-5.7 5.7h8l3.3-3.3c.4-.4 1.1-.4 1.5 0 .4.4.4 1.1 0 1.5l-1.8 1.8h2c.9 0 1.7.8 1.7 1.7 0 .8-.5 1.4-1.2 1.6-.2.1-.3.1-.5.1h-2l1.8 1.8c.1.1.2.3.3.4.1.4 0 .8-.3 1.1-.4.4-1.1.4-1.5 0l-3.3-3.3h-8l2.6 2.6 3.1 3.1h4.7c.4 0 .7.2.9.5.1.1.1.3.1.5 0 .6-.5 1-1 1h-2.6l1.4 1.4c.3.3.5.7.5 1.1 0 .5-.1.9-.5 1.3-.2.2-.4.3-.7.4-.2.1-.3.1-.5.1-.4 0-.9-.2-1.2-.5l-1.4-1.4v2.6c0 .2-.1.5-.2.6-.2.2-.4.4-.7.4h-.1c-.6 0-1-.5-1-1v-5l-5.7-5.7v8l3.3 3.3c.4.4.4 1.1 0 1.5-.4.4-1.1.4-1.5 0l-1.8-1.8v2c0 .4-.1.8-.4 1.1-.1.2-.3.3-.5.4-.2.1-.5.2-.8.2-.9 0-1.7-.8-1.7-1.7v-2l-1.8 1.8c-.4.4-1 .4-1.4.1l-.1-.1c-.4-.4-.4-1.1 0-1.5l2.4-2.4.9-.9v-8l-5.7 5.7v4.7c0 .5-.4 1-.9 1h-.1c-.6 0-1-.5-1-1v-2.6l-1.4 1.4c-.2.2-.4.3-.7.4 3.2 6.8 7.4 12.8 12.4 17.9.6-.1 1.2 0 1.6.4l.7.7.7.7V638c0-.6.5-1 1-1s1 .5 1 1v4.7l3.2 3.2c.8.5 1.5 1.1 2.3 1.6h.1v-7.2l-3.3-3.3c-.4-.4-.4-1.1 0-1.5.4-.4 1.1-.4 1.5 0l1.3 1.3.5.5v-2c0-.9.8-1.7 1.7-1.7.9 0 1.7.8 1.7 1.7v2l1.8-1.8c.4-.4 1.1-.4 1.5 0 .4.4.4 1.1 0 1.5l-1 1-2.3 2.3v8l5.7-5.7v-4.7c0-.6.5-1 1-1s1 .5 1 1v2.6l1.4-1.4c.7-.7 1.7-.7 2.4 0s.7 1.7 0 2.4l-1.4 1.4h2.6c.6 0 1 .5 1 1 0 .6-.5 1-1 1H197l-5.1 5.1c.9.2 1.9.4 3 .6h4.4l3.3-3.3c.4-.4 1.1-.4 1.5 0 .4.4.4 1.1 0 1.5l-1.8 1.8h2c.8 0 1.4.5 1.6 1.2 4.3.3 9.1.5 14.2.5 4.9 0 9.5-.2 13.7-.4-.1.1-.3 0-.5-.2z" class="st0"/><path d="M237 615.5c0 5.2-3.2 11.1-7.1 16.2-1 1-2 1.9-2.9 2.7-3 2.5-5.5 4.1-6.8 4.1-4.1 0-22.1-16.4-22.1-28.9 0-2 .4-3.9 1.2-5.6 1.6-.9 3.4-1.4 5.3-1.4 4.4 0 8.2 2.6 10.3 6.6 2-3.9 5.9-6.6 10.3-6.6 6.5-.1 11.8 5.7 11.8 12.9z" class="st8"/><path d="M220.2 640.6c1.9 0 4.6-1.5 8.2-4.6 1-.9 2-1.8 3-2.8 3.1-3 13.1-13.7 13.1-23.7 0-8.4-6.3-15.3-14.1-15.3-3.9 0-7.7 1.8-10.3 4.9-2.6-3.1-6.3-4.9-10.3-4.9-5.4 0-10.2 3.2-12.6 8.4l-.1.1-.1.1c-.9 2-1.4 4.2-1.4 6.6.3 13.6 19.1 31.2 24.6 31.2zm-18.9-35.8v-.1l.1-.1c1.7-3.6 4.9-5.8 8.5-5.8 3.4 0 6.6 2.1 8.3 5.4.4.7 1.1 1.2 2 1.2.8 0 1.6-.5 2-1.2 1.7-3.3 4.9-5.4 8.3-5.4 5.3 0 9.6 4.9 9.6 10.8 0 6.6-6.1 15-11.8 20.6-.9.9-1.9 1.8-2.8 2.6-3.2 2.7-5 3.5-5.3 3.5-2.9-.3-20-15.2-20-26.7.1-1.8.4-3.4 1.1-4.8z" class="st2"/><path d="M265 642.6c14.1-13.1 22.5-33 22.5-54.4 0-4.5-.4-9.1-1.1-13.6-.1-.4-.2-.7-.4-1-.8-2.4-5.4-6.3-30.8-8.7-2-1-4.4-1.2-6.6-.6l-10.5-.6c-1.9-2.1-4.7-3.4-7.6-3.4-.9 0-1.8.1-2.7.4-3.7-3.8-8.7-5.9-14-5.9-5.3 0-10.3 2.1-14 5.9-.7-.2-1.5-.3-2.3-.3-3 0-5.6 1.6-7 4.1-30.5 2.3-35.3 6.8-36 9.3-.1.2-.2.5-.3.8-.6 3.4-.9 6.9-1.1 10.4-12 .4-21.6 10.3-21.6 22.5 0 12.4 10 22.5 22.3 22.5h11.4c3 4.6 6.5 8.8 10.4 12.5-32.9 3.6-32.9 9.6-32.9 11.6v.3c1.1 13.3 74.5 13.5 77.6 13.5 24.4 0 47.4-1.8 61.7-4.9 11-2.3 15.9-5.1 15.9-8.9 0-1.9-.1-7.8-32.9-11.5zm6.9-64.3c-1.7-3.8-5.1-6.7-9.2-7.9 12.4 1.7 17.4 3.7 18.7 4.7-.7.5-2.9 1.8-9.5 3.2zM197.4 565c.6 0 1.2.2 1.8.5.9.5 2.1.3 2.8-.5 2.9-3.5 7.2-5.5 11.7-5.5 4.5 0 8.8 2 11.7 5.5.6.8 1.7 1 2.6.6.8-.4 1.6-.5 2.4-.5 1.9 0 3.6.9 4.7 2.4.5.7.9 1.5 1 2.4.2 1 1 1.8 2 1.9 2 .2 3.8.8 5.5 1.8.6.4 1.4.4 2.1.1.7-.3 1.2-.9 1.3-1.6.3-1.4 1.3-2.7 2.6-3.2 1.2-.5 2.6-.4 3.7.3s1.9 1.9 2.1 3.2c.1.6.4 1.1.8 1.5.5.4 1.1.5 1.6.5.4 0 .7-.1 1.1-.1 3.5 0 6.7 1.9 8.5 4.8-1.9.3-3.9.6-5.9.8-11.4 1.4-26.1 2.2-41.3 2.2-17.1 0-33.1-1-45.2-2.8-.9-.1-1.8-.3-2.6-.4 1.5-1.3 3.4-2.1 5.4-2.2.6 0 1.3-.3 1.7-.8 2.3-2.8 5.6-4.4 9.2-4.4.8 0 1.7.1 2.4.2.7.2 1.5-.1 2-.6s.8-1.3.6-2c0-.2-.1-.4-.1-.6 0-.4.1-.8.2-1.2.6-1.3 2-2.3 3.6-2.3zm-18 5.2c-1 .7-1.8 1.4-2.6 2.3-3.8.4-7.2 2.4-9.3 5.6-5.8-1.3-7.8-2.4-8.5-3 1.3-1.1 6.7-3.3 20.4-4.9zm-25.7 55.5c-9.9 0-17.9-8.1-17.9-18.1 0-9.7 7.6-17.7 17.1-18.1 0 .7 0 1.3.1 1.8.5 12.3 3.8 24.2 9.4 34.4h-8.7zm3.7-34.5c0-.8-.1-1.7-.1-2.9 0-2.9.2-5.8.5-8.7 2.2 1.2 5.6 2.2 10.1 3.1 1.9.4 4.1.8 6.3 1.1 12.2 1.8 28.5 2.8 45.8 2.8 15.4 0 30.2-.8 41.8-2.3 3.2-.4 6.2-.9 8.9-1.4 5.3-1 9.1-2.1 11.6-3.4.3 2.9.5 5.8.5 8.7 0 24-11.2 46.1-29.4 57.5l-1.4 1c-.3.1-.7.3-1 .4-.1 0-.1 0-.2.1-5.3 1.9-17.3 3.1-30.8 3.1-16 0-27.1-1.6-31.3-3.2l-2.2-1.4c-17-10.8-28.2-31.7-29.1-54.5zM281 658.8c-14 3-36.7 4.8-60.8 4.8-46.1 0-71.7-6-73.2-9.4.8-1.4 8-5.2 33.1-7.6 1.4 1 2.7 2 4.2 2.9l2.4 1.5c.1.1.2.1.3.2 5.4 2.2 18.4 3.6 33.1 3.6 14.3 0 26.7-1.3 32.5-3.4.1 0 .1 0 .1-.1.6-.2 1.1-.5 1.6-.7.1 0 .1-.1.2-.1l1.5-1c1.4-.9 2.8-1.9 4.2-2.9 25 2.4 32.3 6.2 33.1 7.6-.2.4-2.2 2.4-12.3 4.6z" class="st2"/></svg>