<?xml version="1.0" encoding="utf-8"?>
<!-- Generator: Adobe Illustrator 19.1.0, SVG Export Plug-In . SVG Version: 6.00 Build 0)  -->
<svg version="1.1" id="_x2018_ëîé_x5F_1" xmlns="http://www.w3.org/2000/svg" xmlns:xlink="http://www.w3.org/1999/xlink"
	 x="0px" y="0px" viewBox="0 0 1000 1000" style="enable-background:new 0 0 1000 1000;" xml:space="preserve">
<style type="text/css">
	.st0{fill:#D6F3FF;}
	.st1{fill:#D3DEE3;}
	.st2{fill:#1D1D1B;}
	.st3{fill:#FFEDC7;}
	.st4{fill:url(#SVGID_1_);}
	.st5{fill:url(#SVGID_2_);}
	.st6{fill:url(#SVGID_3_);}
	.st7{fill:url(#SVGID_4_);}
	.st8{fill:#FFE6F4;}
	.st9{fill:#FCE8DC;}
</style>
<g>
	<path class="st0" d="M533.5,618.5c-3.6-9.5-6.4-18.4-8.6-26.5c-0.9,4.2-4.5,7.3-8.9,7.3c-5,0-9.1-4.1-9.1-9.1c0-5,4.1-9.1,9.1-9.1
		c2.8,0,5.3,1.3,7,3.2c-5.4-22.6-5.7-37.1-5.7-37.1c-0.4-1.8-2.1-3.1-4-2.7l-43.6,3.5c0,0.4,0.1,0.7,0.2,1.1
		c3.4,14.1,12.4,41.5,3.9,57.8c-2.7,5.1-5.7,9.5-9.1,13.3c3,1.5,5.1,4.6,5.1,8.2c0,5-4.1,9.1-9.1,9.1c-4.4,0-8.1-3.2-9-7.4
		c-14.8,9.3-29,16.2-31.6,24.1c-0.4,1.8-0.4,3.7,0,5.8l2.9,10.2c0,0,6.6-1,15.3-2.7c-1.7-1.7-2.8-4-2.8-6.6c0-5,4.1-9.1,9.1-9.1
		c5,0,9.1,4.1,9.1,9.1c0,1.3-0.3,2.5-0.8,3.7c9.6-2,19.2-4.4,24.7-6.7c19-7.9,15.3-12.6,51.8-22.3c2.5-0.7,4.7-1.5,6.6-2.4
		C536.6,628.8,535.4,623.7,533.5,618.5z M488.7,575.5c-5,0-9.1-4.1-9.1-9.1s4.1-9.1,9.1-9.1c5,0,9.1,4.1,9.1,9.1
		S493.8,575.5,488.7,575.5z M504.8,633c-5,0-9.1-4.1-9.1-9.1c0-5,4.1-9.1,9.1-9.1c5,0,9.1,4.1,9.1,9.1
		C513.9,628.9,509.8,633,504.8,633z"/>
	<path class="st1" d="M570.4,664.6c-0.1-0.6-0.3-1.1-0.7-1.6c-2.5-2.6-8.4-1-14.3-0.6c-5.5,0.4-10.6-2.1-13.2-6.5l-10.7,2.5
		c0,2.4-1.2,4.6-3.1,6.1c-0.5,2.9-2.7,5.4-5.7,6.1l-46.2,11.6c-4.1,1-8.4-1.5-9.4-5.7l-0.7-2.9l-5.1,1.3c-0.4,1.8-2.5,5.5-3.9,6.6
		c-0.6,3.1-2.9,5.6-6.2,6.2l-9.8,1.8c-4.2,0.8-8.3-2-9.1-6.2l-5,0.3c0.4,8.5,8.4,13.1,14.7,11.6L568,665.7
		C568.8,665.5,569.7,665.1,570.4,664.6z"/>
	<g>
		<path class="st2" d="M574.8,656.1c-2.6-2.8-7.2-2.3-12-1.7c-1.3,0.2-2.7,0.3-4.1,0.4c-4.1,0.3-7.9-1.3-10.2-4.2
			c2-0.8,3.7-2.2,4.8-4.1c1.3-2.2,1.6-4.8,0.9-7.4l-5.8-19.7c-0.1-0.2-0.1-0.4-0.2-0.5c0.1-3.9-0.8-8.4-2.7-13.4
			c-15.4-40.3-16.2-70.3-16.2-70.6c0-0.1,0-0.3,0-0.4c-0.6-3-3.5-5-6.5-4.5l-44.3,3.6c-0.1,0-0.2,0-0.2,0c-6.9,1.3-11.7,7.7-11,14.3
			c-4-0.7-8.6-0.8-13.5,0.3c-6.3,1.5-12.5,5.2-18.4,8.8c-9.1,5.4-17.6,10.6-25.2,7.4c-6-2.5-7.6-5.9-8-8.3c-0.3-2,0.3-3.7,0.8-4.3
			c0.8-0.1,1.5-0.7,1.8-1.5c0.4-1.2-0.2-2.4-1.4-2.8c-1.9-0.6-3.9,0.8-5,3.6c-1.6,4.2-1.2,12.6,10.1,17.3c2.2,0.9,4.5,1.3,6.7,1.3
			c7.5,0,15.1-4.6,22.5-9c5.7-3.4,11.6-6.9,17.2-8.3c5-1.2,9.6-0.8,13.5,0.2c0.2,0.8,0.4,1.7,0.7,2.6c0.9,3.5,1.9,7.4,2.9,11.5
			c-12.6,1.5-18.8,8.9-18.8,22.6c0,16.2-4.6,27.3-12,28.9c-4.1,0.9-7.1,0-8.5-2.5c-1.1-1.9-0.7-4.1-0.2-4.6c0.9-0.9,0.9-2.3,0-3.1
			c-0.9-0.9-2.3-0.9-3.1,0c-2.2,2.2-2.4,6.5-0.5,9.9c0.9,1.7,3.5,5.1,9.3,5.1c1.2,0,2.5-0.1,4-0.5c9.6-2.1,15.4-14.6,15.4-33.2
			c0-11.5,4.8-17.1,15.3-18.3c2.4,12.2,3.6,25.4-1.2,34.6c-3.4,6.5-7.4,11.9-12.3,16.5c-6.5,6.1-14.8,11-26.8,16
			c-8,3.3-13.3,8.9-14.7,15.4c-0.4,2.2-0.5,4.4,0,6.6c0,0.1,0,0.1,0,0.2l2.9,10.2c0,0,0,0.1,0.1,0.1l1.9,6.9c0.3,1,1.2,1.6,2.1,1.6
			c0.1,0,0.2,0,0.3,0c0,0,0,0,0,0c-0.9,7.4,1.6,11.7,4,14.1c2.6,2.5,6.4,4,10.3,4c1.2,0,2.5-0.1,3.7-0.4l125.9-29.7
			c3.1-0.7,6-3.4,6.8-6.2C576.5,659.3,576.1,657.5,574.8,656.1z M550,640.4c0.4,1.3,0.2,2.7-0.5,4c-0.7,1.2-1.8,2.1-3.2,2.5l-22.8,7
			l-2.2-8c-0.2-0.6-0.5-1.1-1.1-1.4c-0.5-0.3-1.2-0.3-1.7-0.2c-14.5,4.7-20.3,8.1-25.8,11.5c-3.7,2.2-7.5,4.5-14.1,7.3
			c-11.8,4.9-44,10.4-52.3,11.8l-0.8-2.7c9.1-1.5,40.6-6.9,52.7-12c6.9-2.8,10.9-5.3,14.7-7.7c6.9-4.3,13.5-8.3,36.8-14.5
			c2.6-0.7,4.9-1.5,6.9-2.5c0,0,0,0,0,0c4.4-2.1,7.5-4.8,9.3-8.2L550,640.4z M525.7,663.1l-46.2,11.6c-3,0.7-6-1.1-6.7-4l-0.3-1
			c3-0.9,5.7-1.7,7.8-2.6c6.9-2.8,10.8-5.2,14.7-7.6c5.3-3.2,10.3-6.2,22.7-10.3l2.1,8c0.2,0.6,0.5,1.1,1.1,1.4
			c0.5,0.3,1.1,0.4,1.7,0.2l7.1-2.2C530.4,659.4,528.6,662.4,525.7,663.1z M458.8,673.8c0.6,3-1.4,5.9-4.4,6.5l-9.8,1.8
			c-3,0.6-5.9-1.4-6.5-4.4c0-0.2-0.1-0.3-0.2-0.5c6.1-1.1,13.6-2.5,20.8-4.1C458.7,673.3,458.7,673.6,458.8,673.8z M422.1,654.6
			c1.1-5.1,5.4-9.5,12-12.2c12.5-5.1,21.2-10.3,28.2-16.8c5.3-4.9,9.6-10.7,13.2-17.7c7.8-15,1.8-38.1-2.2-53.5
			c3.6,1.5,6.1,3.2,7,3.9c0,0.2,0,0.5,0,0.7c0.3,1.7,1.9,2.8,3.6,2.5c1.7-0.3,2.8-1.9,2.5-3.6c-0.3-1.4-1.5-2.4-2.8-2.5
			c-0.1-0.1-0.1-0.1-0.2-0.2c-0.3-0.3-4.7-3.8-11.5-6c-0.1-0.2-0.1-0.5-0.2-0.7c-0.1-0.3-0.1-0.5-0.2-0.8c-0.6-4.4,2.7-8.7,7.3-9.6
			l44.3-3.6c0.1,0,0.2,0,0.2,0c0.6-0.1,1.2,0.3,1.4,0.8c0.1,3.2,1.3,32.2,16.4,71.8c4.7,12.4,2.7,19.8-6.5,24.3
			c-1.8,0.9-3.9,1.6-6.2,2.2c-23.9,6.3-30.7,10.5-38,15c-3.7,2.3-7.5,4.6-14.1,7.4c-11.8,4.9-44,10.4-52.2,11.8l-0.4-1.3
			c0-0.1,0-0.1-0.1-0.2l-1.9-6.7C421.8,657.8,421.8,656.2,422.1,654.6z M571.7,659.9c-0.4,1.3-2.1,2.8-3.6,3.1l-125.9,29.7
			c-2.8,0.7-7,0.4-9.9-2.4c-2.5-2.5-3.4-6.5-2.5-11.7c1.1-0.2,2.5-0.4,3.9-0.7c0,0.2,0,0.4,0,0.6c0.9,4.8,5.1,8.1,9.8,8.1
			c0.6,0,1.2-0.1,1.8-0.2l9.8-1.8c2.6-0.5,4.9-2,6.4-4.2c1.5-2.2,2.1-4.9,1.6-7.5c-0.1-0.3-0.2-0.6-0.3-0.8c1.9-0.4,3.7-0.9,5.5-1.3
			l0.2,0.9c1.1,4.5,5.2,7.6,9.7,7.6c0.8,0,1.6-0.1,2.4-0.3l46.2-11.6c5.3-1.3,8.6-6.7,7.3-12.1l0-0.1l10.1-3.1
			c3.1,4.8,8.7,7.6,14.9,7.2c1.5-0.1,2.9-0.3,4.3-0.4c3.4-0.4,7.2-0.8,8.3,0.4C571.7,659.3,571.8,659.4,571.7,659.9z"/>
		<circle class="st2" cx="487.1" cy="578.9" r="3.1"/>
		<circle class="st2" cx="487.8" cy="600.7" r="3.1"/>
	</g>
</g>
<g>
	<path class="st1" d="M197.3,408.9c0.2,0.7,0.3,1.4,0.4,2.1c-0.4,0.6-0.9,1.1-1.5,1.6c-0.2,0.1-0.3,0.2-0.5,0.3
		c-0.1,0.1-0.3,0.2-0.4,0.3c-0.2,0.1-0.3,0.2-0.5,0.3c-2.2,1.2-4.7,1.3-6.9,0.7c-0.8-0.2-1.5-0.6-2.1-1c-0.2-0.1-0.5-0.3-0.7-0.4
		c-0.2-0.2-0.4-0.3-0.6-0.5c-0.2-0.2-0.4-0.4-0.6-0.6c-0.1-0.1-0.3-0.3-0.4-0.4c-0.2-0.3-0.4-0.6-0.6-0.9c0,0,0,0,0,0
		c-2.8-5.3-5.6-10.7-8.5-16.1c-0.4-0.8-0.9-1.7-1.4-2.5l-0.5-1c-0.4-0.7-0.7-1.4-1.1-2.1c0.2-0.3,0.3-0.5,0.5-0.7
		c0.8-1,1.8-1.9,2.9-2.5c2.2-1.2,4.7-1.3,6.9-0.7c1.1,0.3,2.1,0.8,2.9,1.5L197.3,408.9z"/>
	<g>
		<path class="st0" d="M151.4,321.1c0.1,0.1,0.1,0.2,0.2,0.4c0.6,1.1,1.1,2.2,1.6,3.2c7,14.1,16.3,32.9,26.6,52.7l0,0
			c-0.7,0.2-1.4,0.4-2.1,0.8c-3.2,1.7-5,5.1-4.8,8.5c0,0.9,0.2,1.8,0.6,2.7l0.6,1.1l-0.5-1c-0.4-0.7-0.7-1.4-1.1-2.1
			c-13.7-25.4-28.8-52-34.6-62.1c-0.6-1-1.2-2-1.8-3.1l-0.2-0.4c-0.1-0.2-0.2-0.3-0.2-0.3l0,0c-1.9-3.6-2.9-6.7-3.2-9.2
			c0.5-0.5,1.2-0.9,1.8-1.3c5-2.6,11-1,16.9,9.8l0,0C151.3,320.8,151.3,320.9,151.4,321.1z"/>
		<path class="st0" d="M238.9,485.4l-7.3,3.9c-2.8,1.5-6.3,0.4-7.8-2.4c0,0-15.1-30.5-34.5-67.6c-1.7-3.3-3.5-6.7-5.3-10.1
			c0.2,0.3,0.4,0.6,0.6,0.9c0.1,0.2,0.2,0.3,0.4,0.4c0.2,0.2,0.4,0.4,0.6,0.6c0.2,0.2,0.4,0.4,0.6,0.5c0.2,0.2,0.4,0.3,0.7,0.4
			c0.7,0.4,1.4,0.8,2.1,1c2.2,0.7,4.7,0.5,6.9-0.7c0.2-0.1,0.3-0.2,0.5-0.3c0.2-0.1,0.3-0.2,0.4-0.3c0.2-0.1,0.3-0.2,0.5-0.3
			c0.2-0.1,0.3-0.2,0.4-0.4c0.3,0.5,0.6,1,0.8,1.5C217.8,448.3,235.9,480.1,238.9,485.4z"/>
	</g>
	<g>
		<path class="st2" d="M228.8,492.2c-2.9,0-5.6-1.5-7.1-4.2c-0.2-0.4-15.4-30.9-34.5-67.6c-1.7-3.3-3.5-6.7-5.3-10.1c0,0,0,0,0-0.1
			v0c-2.8-5.3-5.6-10.7-8.5-16.1c-0.5-0.9-0.9-1.7-1.3-2.5l-0.6-1c-0.4-0.7-0.7-1.4-1.1-2c-13.3-24.8-27.9-50.4-34.1-61.3l-0.4-0.8
			c-0.6-1-1.3-2.1-1.8-3.2l-0.3-0.7c0-0.1-0.1-0.2-0.1-0.2c-1.8-3.6-2.9-6.9-3.3-9.7c-0.8-5.7,1.2-10.1,5.7-12.5
			c4-2.1,11.9-3.6,19.8,10.4c0.1,0.1,0.1,0.2,0.2,0.3c0,0,0.1,0.1,0.2,0.4c0.1,0.1,0.1,0.2,0.2,0.3c0.6,1.1,1.1,2.2,1.6,3.4
			c6.8,13.7,19.5,39.3,32.8,64.5c0,0,0,0,0,0c0.8,1.5,1.5,2.9,2.3,4.4c3,5.7,6.1,11.4,9.1,17c21.3,39.4,41.6,75.1,41.8,75.4
			c1,1.9,1.2,4.1,0.6,6.1c-0.6,2-2,3.7-3.9,4.7l-8.1,4.3C231.4,491.9,230.1,492.2,228.8,492.2z M185.9,408
			C185.9,408.1,185.9,408.1,185.9,408c1.8,3.5,3.6,6.9,5.3,10.2c19.1,36.7,34.4,67.3,34.5,67.7c0.9,1.7,3.1,2.3,4.8,1.4l8.1-4.3
			c0.8-0.4,1.5-1.2,1.7-2.1c0.3-0.9,0.2-1.9-0.3-2.7c-0.2-0.3-20.5-36-41.8-75.5c-3-5.6-6.1-11.3-9.1-17c-0.8-1.5-1.6-2.9-2.3-4.4
			c-13.3-25.2-26.1-50.9-32.9-64.6c-0.5-1.1-1-2.2-1.5-3.2c-0.1-0.2-0.2-0.3-0.2-0.4l0-0.1c0-0.1-0.1-0.1-0.1-0.2
			c-3.2-5.7-8.2-12-13.9-8.9c-2.8,1.5-4,4.1-3.4,8c0.3,2.5,1.4,5.3,3,8.5c0,0.1,0.1,0.1,0.1,0.2l0.2,0.5c0.5,1,1.1,2,1.7,3l0.5,0.8
			c6.2,10.9,20.8,36.5,34.2,61.4c0.4,0.7,0.7,1.4,1.1,2.1l0.5,1c0.4,0.8,0.9,1.6,1.3,2.4C180.2,397.4,183.1,402.7,185.9,408z"/>
	</g>
	<g>
		<path class="st2" d="M173.5,391.6c-0.9,0-1.7-0.5-2.1-1.4c-2-5.3,0.2-11.3,5.2-14c2.6-1.4,5.7-1.7,8.6-0.8c1.3,0.4,2.6,1,3.7,1.9
			c1,0.8,1.1,2.1,0.4,3.1c-0.8,1-2.1,1.1-3.1,0.4c-0.7-0.5-1.4-0.9-2.2-1.2c-1.8-0.5-3.6-0.4-5.2,0.5c-3,1.6-4.4,5.3-3.2,8.5
			c0.4,1.1-0.1,2.4-1.3,2.9C174,391.6,173.7,391.6,173.5,391.6z"/>
	</g>
	<g>
		<path class="st2" d="M191.6,415.5c-1.1,0-2.2-0.2-3.3-0.5c-0.9-0.3-1.9-0.7-2.7-1.2c-0.2-0.1-0.5-0.3-0.8-0.6
			c-0.3-0.2-0.5-0.4-0.7-0.6c-0.2-0.2-0.5-0.4-0.7-0.7c-0.2-0.2-0.4-0.4-0.5-0.6c-0.3-0.3-0.5-0.7-0.7-1c-0.1-0.1-0.1-0.1-0.1-0.2
			c-0.6-1.1-0.2-2.4,0.9-3c0.9-0.5,2.1-0.3,2.8,0.5c0.1,0.1,0.2,0.3,0.3,0.4c0.1,0.2,0.2,0.4,0.4,0.5c0,0.1,0.1,0.1,0.1,0.2
			c0,0,0.1,0.1,0.1,0.1c0,0,0.1,0.1,0.1,0.1c0.1,0.1,0.2,0.3,0.4,0.4c0,0,0.1,0.1,0.1,0.1c0.1,0.1,0.3,0.2,0.4,0.3
			c0.1,0.1,0.3,0.2,0.4,0.3c0.6,0.4,1.1,0.6,1.7,0.8c1.8,0.5,3.6,0.4,5.2-0.5c0.1-0.1,0.3-0.2,0.4-0.2c0.1,0,0.1-0.1,0.2-0.1
			c0.1,0,0.2-0.1,0.2-0.2c0.1-0.1,0.2-0.1,0.2-0.2c0.4-0.3,0.8-0.7,1.1-1.2c1.3-1.7,1.7-4,1.1-6.1l0,0c0,0,0,0,0-0.1
			c-0.3-1,0.1-2,1-2.6c1.1-0.6,2.4-0.2,3,0.9c0.1,0.2,0.2,0.3,0.2,0.5c1,3.4,0.3,7.2-1.8,10c-0.5,0.7-1.2,1.4-1.9,1.9
			c-0.2,0.2-0.4,0.3-0.6,0.4c-0.2,0.1-0.4,0.3-0.6,0.4c-0.2,0.1-0.4,0.3-0.6,0.4C195.2,415.1,193.4,415.5,191.6,415.5z"/>
	</g>
	<g>
		<g>
			<path class="st0" d="M194.9,325.3c5.4,9.5,19.1,33.6,32.1,57.6l10-5.3c0-0.1-0.1-0.2-0.1-0.2c-10.3-19.8-19.7-38.6-26.6-52.7
				c-0.5-1.1-1-2.2-1.6-3.2c-0.1-0.1-0.1-0.2-0.2-0.4c-0.1-0.2-0.1-0.3-0.1-0.3l0,0c-5.9-10.7-12-12.4-16.9-9.8
				c-0.7,0.4-1.3,0.8-1.8,1.3c0.4,2.6,1.4,5.7,3.2,9.2l0,0c0,0,0.1,0.1,0.2,0.3c0.1,0.1,0.1,0.2,0.2,0.4
				C193.7,323.3,194.3,324.3,194.9,325.3z"/>
			<path class="st0" d="M254.4,410.3l-9.9,5.3l-3.5-6.5c21.8,41.6,39.8,77.8,39.8,77.8c1.5,2.8,5,3.9,7.8,2.4l7.3-3.9
				c-3-5.3-21.5-38-41.2-74.4C254.6,410.7,254.5,410.5,254.4,410.3z"/>
		</g>
		<path class="st1" d="M254.4,408.9c0.2,0.7,0.3,1.4,0.4,2.1c-0.4,0.6-0.9,1.1-1.5,1.6c-0.2,0.1-0.3,0.2-0.5,0.3
			c-0.1,0.1-0.3,0.2-0.4,0.3c-0.2,0.1-0.3,0.2-0.5,0.3c-2.2,1.2-4.7,1.3-6.9,0.7c-0.8-0.2-1.5-0.6-2.1-1c-0.2-0.1-0.5-0.3-0.7-0.4
			c-0.2-0.2-0.4-0.3-0.6-0.5c-0.2-0.2-0.4-0.4-0.6-0.6c-0.1-0.1-0.3-0.3-0.4-0.4c-0.2-0.3-0.4-0.6-0.6-0.9c0,0,0,0,0,0
			c-2.8-5.3-5.6-10.7-8.5-16.1c-0.4-0.8-0.9-1.7-1.4-2.5l-0.5-1c-0.4-0.7-0.7-1.4-1.1-2.1c0.2-0.3,0.3-0.5,0.5-0.7
			c0.8-1,1.8-1.9,2.9-2.5c2.2-1.2,4.7-1.3,6.9-0.7c1.1,0.3,2.1,0.8,2.9,1.5L254.4,408.9z"/>
		<g>
			<path class="st2" d="M285.9,492.2c-2.9,0-5.6-1.5-7.1-4.2c-0.2-0.4-18.3-36.8-39.8-77.8c-2.8-5.3-5.6-10.7-8.5-16
				c-0.6-1.2-1.3-2.4-1.9-3.5c-13.9-25.9-29.6-53.6-35.6-64l-0.1-0.1c-0.6-0.9-1.2-2-1.8-3.2c0-0.1-0.1-0.2-0.1-0.3
				c0,0-0.1-0.1-0.1-0.1l-0.1-0.1c-0.1-0.1-0.2-0.3-0.2-0.4c-1.8-3.6-2.9-6.8-3.3-9.7c-0.8-5.7,1.2-10.1,5.7-12.5
				c4-2.1,11.9-3.6,19.8,10.4c0.1,0.1,0.2,0.3,0.3,0.5l0,0.1c0.1,0.2,0.2,0.3,0.2,0.4c0.6,1.1,1.1,2.2,1.6,3.4
				c7.9,15.8,19.8,39.8,32.8,64.4c0,0,0,0,0,0c0.8,1.5,1.5,2.9,2.3,4.4c3,5.7,6.1,11.4,9.1,17c21.3,39.4,41.6,75.1,41.8,75.5
				c1,1.9,1.2,4.1,0.6,6.1c-0.6,2-2,3.7-3.9,4.7l-8.1,4.3C288.5,491.9,287.2,492.2,285.9,492.2z M194.8,320.7
				C194.9,320.7,194.9,320.8,194.8,320.7c0.1,0.2,0.1,0.3,0.2,0.4c0.6,1.1,1.2,2.1,1.8,3.1l0.1,0.2c5.9,10.4,21.7,38.1,35.6,64.1
				c0.6,1.2,1.2,2.3,1.9,3.5c2.9,5.5,5.7,10.8,8.5,16.1c21.6,41.2,39.7,77.6,39.9,77.9c0.9,1.7,3.1,2.3,4.8,1.4l8.1-4.3
				c1.7-0.9,2.4-3.1,1.5-4.8c-0.2-0.3-20.5-36-41.8-75.5c-3-5.6-6.1-11.3-9.1-17c-0.8-1.5-1.6-2.9-2.3-4.4
				c-13-24.6-25-48.7-32.9-64.6c-0.5-1.1-1-2.2-1.5-3.2l-0.1-0.1c0-0.1-0.1-0.2-0.1-0.2c0,0,0-0.1-0.1-0.1c0-0.1-0.1-0.1-0.1-0.2
				c-3.2-5.8-8.2-12-13.9-8.9c-2.8,1.5-4,4.1-3.4,8c0.3,2.5,1.4,5.3,3,8.5C194.8,320.6,194.8,320.7,194.8,320.7z"/>
		</g>
		<g>
			<path class="st2" d="M230.6,391.6c-0.9,0-1.7-0.5-2.1-1.4c-2-5.3,0.2-11.3,5.2-14c2.6-1.4,5.7-1.7,8.6-0.8
				c1.4,0.4,2.7,1.1,3.9,2.1c0.9,0.8,1.1,2.2,0.3,3.1c-0.8,0.9-2.2,1.1-3.1,0.3c-0.7-0.6-1.5-1-2.3-1.2c-1.8-0.5-3.6-0.4-5.2,0.5
				c-3,1.6-4.4,5.3-3.2,8.5c0.4,1.1-0.1,2.4-1.3,2.9C231.1,391.6,230.8,391.6,230.6,391.6z"/>
		</g>
		<g>
			<path class="st2" d="M248.7,415.5c-1.1,0-2.2-0.2-3.3-0.5c-2.6-0.8-4.8-2.5-6.3-4.8c0,0,0-0.1-0.1-0.1c0,0-0.1-0.1-0.1-0.1
				c-0.5-1.1-0.1-2.4,1-3c1.1-0.5,2.4-0.1,2.9,0.9c0.9,1.4,2.2,2.4,3.8,2.9c1.7,0.5,3.6,0.4,5.2-0.5c0.5-0.3,1-0.6,1.4-1
				c1.6-1.4,2.4-3.6,2.2-5.7c-0.1-1.2,0.8-2.3,2-2.4c1.2-0.1,2.3,0.8,2.4,2c0.3,3.5-1,7-3.6,9.4c-0.7,0.6-1.4,1.2-2.3,1.6
				C252.3,415.1,250.5,415.5,248.7,415.5z"/>
		</g>
	</g>
</g>
<g>
	<g>
		<path class="st1" d="M772.9,417.4c-0.5,1.8-1.6,3.4-3.2,4.6c-0.2,0.2-0.5,0.3-0.7,0.5l-2.7,1.6c-3.1,1.9-7,1.6-9.9-0.6l-5.7-4.4
			l-8.2,9.7c-1.7,2-4.1,3.3-6.7,3.3h-0.1c-2.6,0-5.1-1.3-6.7-3.4l-6.6-8.1l-2.6-3.2c-0.7-0.8-1.2-1.8-1.5-2.8l0.9-1.7l5-9.6
			c1-0.3,2.1-0.4,3.1-0.3l8.5,10.4l12.9-15.2c0.6,0,1.2,0,1.8,0l11.3,8.7l0,0l1.1-0.6c1.5-0.3,2.9-0.1,4.3,0.3l2.6,5L772.9,417.4z"
			/>
	</g>
	<g>
		<path class="st1" d="M855.6,394.2c-0.1,0.3-0.2,0.7-0.4,1c-0.2,0.6-0.5,1.2-0.9,1.7c-1.1,1.5-2.6,2.7-4.3,3.2c0,0,0,0,0,0
			c-0.6,0.2-1.2,0.4-1.8,0.4l-3.6,4.5c-0.4-0.1-0.9-0.1-1.4-0.1c-4.8,0-8.9,3.2-9.8,7.8c-0.1,0.6-0.2,1.9-0.2,2.6c0,0.3,0,0.6,0,1.6
			H832c0,0,0,0,0,0c-2.6,0-5.2-1.8-6.8-3.9l-10.7-13.5l-6.7,3.9c-2,1.2-4.3,1.4-6.4,1c-2.3-0.5-4.4-1.9-5.6-4.1
			c-0.1-0.2-0.2-0.3-0.3-0.5l7.4-14.1l9.2-5.5c0.8-0.5,1.7-0.8,2.6-1c0.1,0,0.3,0,0.4-0.1c0.7-0.2,1.5-0.2,2.3-0.1l14.9,18.4
			l12.1-15.2c1.3-0.1,2.7,0.1,4,0.6l2,0.8l3.4,6.6L855.6,394.2z"/>
	</g>
	<path class="st0" d="M728.9,446.7c0,0.3,0,1.4-0.1,1.7c-1,0.5-2.2,1.5-3.4,1.5h-50.7c-5.7,0-10.4-5.7-10.4-11.5
		c0-0.9,0.1-2.2,0.4-3.1c1.5-1,2.1-10.1,15.3-6.8c1-2.1,0.8-4.8,2.7-6.2c2.3-1.7,5.1-2.7,8.1-2.7c5.7,0,10.6,3.5,12.7,8.4
		c1.7-1.3,3.8-2,6.1-2c5.7,0,10.4,4.7,10.4,10.4c0,0.4,0,0.9-0.1,1.3c0.2,0,0.4,0,0.6,0C725.2,437.8,728.9,442.2,728.9,446.7z"/>
	<path class="st0" d="M829.9,467.2c0,0.4,0,1.7-0.1,2.2c-1,0.5-2.2,1.7-3.4,1.7h-40.2c-3.6,0-6.5-4.5-6.5-8.1c0-0.2,0-0.8,0-0.9
		c0.5-0.2,1.1-0.5,1.7-0.5c0.2,0,0.3-0.1,0.5-0.1c0-0.4-0.1-0.7-0.1-1.1c0-1.6,0.5-3.2,1.3-4.5c0.9-1.3,2.1-2.4,3.6-3.1
		c4.3-11.3,13.8-5.8,18.3-5.8c6,0,10.9,4.9,10.9,10.9c0,0.9-0.1,1.8-0.3,2.7c1.5-1.6,3.7-2.7,6-2.7
		C826.2,457.8,829.9,462.6,829.9,467.2z"/>
	<path class="st0" d="M874.9,423.6c0,0.1,0,1,0,1.1c-1,0.4-2.1,1.4-3.2,1.4h-28.4c-5.5,0-10-5-10-10.5c0-0.7,0.1-1.7,0.2-2.3
		c1.5-0.9,1.3-9.5,12.8-7.6c0.4-0.4,0.9-0.9,1.5-1.2c2-1.4,4.3-2.2,6.9-2.2c6.8,0,12.3,5.5,12.3,12.3c0,0.3,0,0.6,0,0.9c0,0,0,0,0,0
		C871.3,415.4,874.9,419.1,874.9,423.6z"/>
	<path class="st3" d="M794.9,343.8c0,1.6-0.3,3.2-0.8,4.6c-2.2,1.6-5,2.6-8,2.6c-7.5,0-13.6-6.1-13.6-13.6c0-1.6,0.3-3.2,0.8-4.6
		c2.2-1.6,5-2.6,8-2.6C788.8,330.2,794.9,336.3,794.9,343.8z"/>
	<g>
		<path class="st2" d="M698,453.8c-1.1-0.6-2.4-0.2-3,0.9l-3.2,6.1c-0.6,1.1-0.1,2.4,0.9,3c0.3,0.2,0.7,0.3,1,0.3
			c0.8,0,1.6-0.4,2-1.2l3.2-6.1C699.5,455.7,699,454.4,698,453.8z"/>
		<path class="st2" d="M891.5,448.4l-10.3-19.6c-0.6-1.1-1.9-1.5-3-0.9c-1.1,0.6-1.5,1.9-0.9,3l10.3,19.6c0.4,0.8,1.2,1.2,2,1.2
			c0.3,0,0.7-0.1,1-0.3C891.7,450.8,892.1,449.4,891.5,448.4z"/>
		<path class="st2" d="M785.3,413.7c-0.6,1.1-0.1,2.4,0.9,3c0.3,0.2,0.7,0.2,1,0.2c0.8,0,1.6-0.4,2-1.2l7.8-15l6.6-12.6
			c0.1,0,0.3-0.1,0.4-0.2l11.6-7l14.3,17.8c0.4,0.5,1.1,0.9,1.7,0.9c0,0,0,0,0,0c0.7,0,1.3-0.4,1.7-1l11.7-14.8l0.9,0.4
			c1.1,0.5,2.4-0.1,2.9-1.2c0.5-1.1-0.1-2.4-1.2-2.9l-2.4-1c-0.9-0.4-1.9-0.1-2.6,0.7l-11,13.9l-13.8-17.1c-0.7-0.9-1.9-1.1-2.9-0.5
			l-7.4,4.5l21.6-41.3l15.6,29.9l9.4,18.2c0.1,0.1,0.1,0.2,0.2,0.3l1.3,2.3c0.6,1.1,1.9,1.4,3,0.8c1.1-0.6,1.4-1.9,0.8-3l-1.4-2.5
			c0,0-0.1-0.1-0.1-0.1l-9.3-18l-17.6-33.7c-0.4-0.7-1.1-1.2-2-1.2h0c-0.8,0-1.6,0.5-2,1.2l-25.7,49L785.3,413.7z"/>
		<path class="st2" d="M763.1,403.4l-1.4,0.8l-11.2-8.7c-0.9-0.7-2.3-0.6-3,0.3l-11.9,14l-7.4-9l20-38.2l40,76.4
			c0.4,0.8,1.2,1.2,2,1.2c0.3,0,0.7-0.1,1-0.3c1.1-0.6,1.5-1.9,0.9-3l-41.9-80.1c-0.4-0.7-1.1-1.2-2-1.2s-1.6,0.5-2,1.2l-28.3,54.1
			c-0.6,1.1-0.1,2.4,0.9,3c1.1,0.6,2.4,0.1,3-0.9l4.1-7.9l7.8,9.5c0.4,0.5,1,0.7,1.7,0.7c0,0,0,0,0,0c0.6,0,1.3-0.2,1.7-0.7
			l12.2-14.3l10.7,8.3c0.7,0.6,1.7,0.6,2.5,0.1l2.7-1.6c1-0.6,1.4-2,0.8-3C765.5,403.1,764.1,402.8,763.1,403.4z"/>
		<path class="st2" d="M726.9,429.3c-0.4-6.6-5.9-11.8-12.6-11.8c-1.8,0-3.6,0.4-5.2,1.1c-2.9-4.7-8-7.5-13.6-7.5
			c-6.7,0-12.7,4.2-15,10.5c-0.5,1.4-0.8,2.8-0.9,4.3c-0.2-0.1-0.4-0.2-0.6-0.2c-1.3-0.5-2.8-0.8-4.5-0.8c-5.6,0-10.7,4.1-12.2,9.8
			c-0.3,1-0.4,2.4-0.4,3.6c0,7.2,5.9,13.5,12.6,13.5h50.7c1.5,0,2.8-0.7,3.8-1.2c0.2-0.1,0.4-0.2,0.6-0.3c3.5-1.7,6.1-6,6.1-10.3
			C735.7,434.7,731.8,430.1,726.9,429.3z M727.6,446.3c-0.3,0.1-0.5,0.3-0.8,0.4c-0.6,0.3-1.2,0.7-1.6,0.7h-50.7
			c-4.3,0-8.2-4.3-8.2-9.1c0-0.8,0.1-1.8,0.3-2.4c1-3.8,4.3-6.5,7.9-6.5c1.1,0,2,0.2,2.9,0.5c1.2,0.4,2.2,1.1,3.1,2.1
			c0.7,0.7,1.8,0.9,2.7,0.5c0.9-0.5,1.4-1.5,1.1-2.5c-0.2-1-0.4-2-0.4-2.9c0-1.4,0.2-2.7,0.7-3.9c1.6-4.5,6-7.6,10.8-7.6
			c4.7,0,8.8,2.8,10.6,7.1c0.3,0.6,0.8,1.1,1.5,1.3c0.7,0.2,1.4,0,1.9-0.4c1.4-1,3.1-1.6,4.8-1.6c4.5,0,8.2,3.7,8.2,8.2
			c0,0.3,0,0.7-0.1,1c-0.1,0.7,0.1,1.3,0.6,1.8c0.5,0.5,1.1,0.7,1.8,0.7l0.3,0c0.1,0,0.1,0,0.2,0c3.3,0,6,2.9,6,6.4
			C731.3,442.5,729.7,445.3,727.6,446.3z"/>
		<path class="st2" d="M826.2,449.2c-1.2,0-2.5,0.2-3.6,0.6c-0.8-6.5-6.3-11.6-13-11.6c-4.5,0-8.5,2.2-10.9,5.9
			c-1.3-0.5-2.6-0.8-4-0.8c-5.2,0-9.7,3.9-10.3,9c0,0.2-0.1,0.3-0.1,0.5c-0.9,0.2-1.7,0.6-2.5,1.1c-2.5,1.6-4.2,4.4-4.5,7.4
			c0,0.3,0,0.6,0,0.8c0,5.1,4.1,9.5,8.8,9.5h40.2c1.4,0,2.8-0.4,4.4-1.2c3.7-1.9,6.1-6,6.1-10.2
			C836.7,454.4,831.8,449.2,826.2,449.2z M828.5,466.6c-0.9,0.5-1.7,0.7-2.3,0.7H786c-2.2,0-4.3-2.5-4.3-5.1c0-0.1,0-0.1,0-0.1
			c0,0,0,0,0,0c0-0.1,0-0.2,0-0.3c0.1-1.6,1.1-3.3,2.4-4.1c0.6-0.4,1.2-0.6,1.8-0.6l0.3,0c0.7,0.1,1.3-0.2,1.8-0.7
			c0.5-0.5,0.7-1.2,0.6-1.8c0-0.3,0-0.5,0-0.7c0-0.3,0-0.5,0.1-0.8c0.4-3,3-5.2,6-5.2c1.3,0,2.5,0.4,3.5,1.2
			c0.5,0.4,1.2,0.5,1.9,0.4c0.7-0.2,1.2-0.6,1.5-1.3c1.4-3.2,4.5-5.3,8-5.3c4.8,0,8.7,3.9,8.7,8.7c0,0.7-0.1,1.4-0.3,2.1
			c-0.2,1,0.2,2,1.1,2.5c0.9,0.5,2,0.3,2.7-0.5c1.1-1.2,2.7-1.9,4.4-1.9c3.2,0,6.1,3.2,6.1,6.7C832.3,462.9,830.7,465.5,828.5,466.6
			z"/>
		<path class="st2" d="M881.7,416.8c0-4.9-3.4-8.8-8.1-9.7c-0.6-7.5-6.8-13.4-14.4-13.4c-6.2,0-11.6,3.8-13.6,9.5
			c-0.8-0.2-1.6-0.2-2.5-0.2c-5.8,0-10.8,4.1-12,9.6c-0.2,1-0.3,2.2-0.3,2.6c0,6.8,5.5,12.3,12.2,12.3h28.4c1.4,0,2.6-0.5,3.5-0.9
			c0.2-0.1,0.3-0.1,0.5-0.2C879.2,424.8,881.7,420.9,881.7,416.8z M873.8,422.2c-0.2,0.1-0.4,0.2-0.6,0.3c-0.6,0.3-1.3,0.6-1.8,0.6
			H843c-4.3,0-7.8-3.5-7.8-7.9c0-0.6,0.1-1.3,0.2-1.7c0.7-3.6,3.9-6.1,7.6-6.1c0.9,0,1.7,0.1,2.4,0.3c0.3,0.1,0.5,0.2,0.7,0.3
			c0.6,0.3,1.3,0.3,2,0c0.6-0.3,1-0.9,1.2-1.6c0.1-0.5,0.2-0.9,0.3-1.3c1.3-4.2,5.2-7,9.6-7c5.5,0,10.1,4.5,10.1,10.1
			c0,0.2,0,0.3,0,0.5l0,0.3c0,0.6,0.2,1.2,0.6,1.6c0.5,0.5,1.2,0.8,1.8,0.7c3.2,0.1,5.6,2.5,5.6,5.5
			C877.2,419.1,875.8,421.4,873.8,422.2z"/>
		<path class="st2" d="M785.8,353.2c3.4,0,6.6-1.1,9.3-3c4.1-3,6.5-7.8,6.5-12.8c0-8.7-7.1-15.8-15.8-15.8
			c-6.7,0-12.6,4.2-14.9,10.5c-0.6,1.7-0.9,3.5-0.9,5.4C770,346.1,777.1,353.2,785.8,353.2z M775.1,333.5c1.6-4.5,5.9-7.5,10.7-7.5
			c6.3,0,11.4,5.1,11.4,11.4c0,3.7-1.7,7-4.7,9.2c-1.9,1.4-4.3,2.2-6.7,2.2c-6.3,0-11.4-5.1-11.4-11.4
			C774.4,336.1,774.7,334.8,775.1,333.5z"/>
	</g>
</g>
<g>
	<path class="st0" d="M711.3,163.5c1.2-0.1,2.5,0.3,3.4,1.2l1,1H715C713.4,165.7,712,164.8,711.3,163.5z"/>
	<path class="st0" d="M845,199.2c0.5,0.5,0.8,1.1,1,1.7c-1.1,0.8-2.5,1.3-4,1.3h-6l-10.4-10.4h-32.3l10.4,10.4h-14l22.8,22.8h14
		l3.8,3.8c1.3,1.3,1.9,2.9,2,4.6c-0.3,0.1-0.6,0.1-0.9,0.1H821l5.7,5.7c0.3,0.3,0.6,0.6,0.8,1c-0.7,0.2-1.3,0.3-2,0.3
		c-1.7,0-3.5-0.7-4.8-2l-5.7-5.7v10.5c0,1-0.3,1.9-0.9,2.6l-2.7-2.7v4.3c-0.2,0-0.4,0-0.6,0c-2.3,0-4.2-1.9-4.2-4.2v-18.9
		l-22.8-22.8v14l-3.6-3.6v32.3l3.6,3.6v6c0,1.7-0.6,3.2-1.6,4.3l-2.1-2.1v3.8c-1,0.5-2,0.8-3.2,0.8c-3.8,0-6.8-3.1-6.8-6.8v-8.1
		l-7.4,7.4c-1.5,1.5-3.9,1.6-5.5,0.4l9.3-9.3v-6.8l3.6-3.6v-32.3l-22.8,22.8v6.8l-3.6,3.6v12.7c-0.2,0-0.4,0-0.6,0
		c-2.3,0-4.2-1.9-4.2-4.2v-10.5l-5.7,5.7c-1.3,1.3-3.1,2-4.8,2c-1.7,0-3.5-0.7-4.8-2c-0.5-0.5-0.9-1.1-1.2-1.7l3.3-3.3h-4.1
		c0-1.7,0.7-3.4,2-4.7l3.8-3.8h6.7l22.8-22.8H750l10.4-10.4h-32.3l-13.4,13.4c-1.5,1.5-3.9,1.6-5.5,0.4l3.4-3.4h-5
		c0-1.1,0.4-2.2,1.2-3l7.4-7.4h-8.1c-2.4,0-4.4-1.2-5.7-3c0.6-0.2,1.3-0.3,2-0.3h8.1l-7.4-7.4c-0.5-0.5-0.8-1.1-1-1.7
		c1.1-0.8,2.5-1.3,4-1.3h6l10.4,10.4h32.3l-10.4-10.4h14l-22.8-22.8h-14l-3.8-3.8c-1.3-1.3-1.9-2.9-2-4.6c0.3-0.1,0.6-0.1,0.9-0.1
		h10.5l-5.7-5.7c-0.3-0.3-0.6-0.6-0.8-1c2.3-0.7,5-0.2,6.9,1.7l5.7,5.7v-10.5c0-1,0.3-1.9,0.9-2.6c0.7-0.8,1.6-1.4,2.7-1.6
		c0.2,0,0.4,0,0.6,0c2.3,0,4.2,1.9,4.2,4.2V156l22.8,22.8v-14l3.6,3.6v-32.3l-3.6-3.6v-6c0-1.7,0.6-3.2,1.6-4.3
		c0.6-0.7,1.3-1.3,2.1-1.7c1-0.5,2-0.8,3.2-0.8c3.8,0,6.8,3.1,6.8,6.8v8.1l7.4-7.4c1.5-1.5,3.9-1.6,5.5-0.4l-9.3,9.3v6.8l-3.6,3.6
		v32.3l22.8-22.8v-6.8l3.6-3.6v-12.7c0.2,0,0.4,0,0.6,0c2.3,0,4.2,1.9,4.2,4.2v10.5l5.7-5.7c2.7-2.7,7-2.7,9.7,0
		c0.5,0.5,0.9,1.1,1.2,1.7l-3.3,3.3h4.1c0,1.7-0.7,3.4-2,4.7l-3.8,3.8h-6.8l-22.8,22.8h6.8l-10.4,10.4H822l13.4-13.4
		c1.5-1.5,3.9-1.6,5.5-0.4l-3.4,3.4h5c0,1.1-0.4,2.2-1.2,3l-7.4,7.4h8.1c2.4,0,4.4,1.2,5.7,3c-0.6,0.2-1.3,0.3-2,0.3h-8.1L845,199.2
		z"/>
	<g>
		<path class="st2" d="M776.9,262.8c-5,0-9.1-4.1-9.1-9.1V251l-3.6,3.6c-2.3,2.3-5.9,2.5-8.4,0.5c-0.2-0.1-0.4-0.3-0.6-0.5
			c-1.2-1.2-1.9-2.8-1.9-4.5c0-1.7,0.7-3.3,1.9-4.5l12.7-12.7v-26l-18.4,18.4v18c0,3.2-2.4,5.9-5.5,6.4c-0.2,0-0.5,0.1-0.9,0.1
			c-3.5,0-6.4-2.9-6.4-6.4V238l-2,2c-1.7,1.7-4,2.7-6.4,2.7c-2.4,0-4.7-0.9-6.4-2.6c-0.7-0.7-1.2-1.4-1.6-2.3
			c-0.7-1.4-1.1-2.9-1-4.4c0.1-2.3,1-4.5,2.6-6.1l2-2h-5.2c-3.5,0-6.4-2.9-6.4-6.4c0-3.5,2.9-6.4,6.4-6.4h18L755,194h-26l-12.7,12.7
			c-2.3,2.3-5.9,2.5-8.4,0.6c-0.2-0.2-0.4-0.4-0.6-0.6c-1.2-1.2-1.9-2.9-1.9-4.6c0-1.7,0.7-3.3,1.9-4.5l3.6-3.6h-2.8
			c-3,0-5.8-1.5-7.5-4c-1-1.5-1.6-3.3-1.6-5.1c0-2.9,1.4-5.7,3.8-7.4c1.6-1.1,3.4-1.7,5.3-1.7h2.8l-3.6-3.6
			c-1.2-1.2-1.9-2.8-1.9-4.6c0-1.7,0.7-3.3,1.9-4.5c1-1,2.4-1.7,3.9-1.8c1.9-0.2,3.8,0.5,5.2,1.8l12.7,12.7h26l-18.4-18.4h-18
			c-3.5,0-6.4-2.9-6.4-6.4c0-3,2.1-5.7,5.1-6.3c0.5-0.1,0.9-0.1,1.3-0.1h5.2l-2-2c-0.4-0.4-0.7-0.8-1.1-1.3c-2.5-3.6-2-8.5,1.1-11.5
			c1.7-1.7,4-2.7,6.4-2.7c0,0,0,0,0,0c2.4,0,4.7,0.9,6.4,2.7l2,2v-5.2c0-3.5,2.9-6.4,6.4-6.4c3.5,0,6.4,2.9,6.4,6.4v18l18.4,18.4
			v-26l-12.7-12.7c-1.2-1.2-1.9-2.8-1.9-4.6c0-1.7,0.7-3.3,1.9-4.5c2.5-2.5,6.6-2.5,9.1,0l3.6,3.6v-2.8c0-5,4.1-9.1,9.1-9.1
			c5,0,9.1,4.1,9.1,9.1v2.8l3.6-3.6c2.5-2.5,6.6-2.5,9.1,0c2.5,2.5,2.5,6.6,0,9.1l-12.7,12.7v26l18.4-18.4v-18
			c0-3.5,2.9-6.4,6.4-6.4c3.5,0,6.4,2.9,6.4,6.4v5.2l2-2c1.7-1.7,4-2.7,6.4-2.7c0,0,0,0,0,0c2.4,0,4.7,0.9,6.4,2.7
			c1.7,1.7,2.7,4,2.7,6.4c0,2.4-0.9,4.7-2.7,6.4l-2,2h5.2c3.5,0,6.4,2.9,6.4,6.4c0,3.5-2.9,6.4-6.4,6.4h-18l-18.4,18.4h26l12.7-12.7
			c2.5-2.5,6.6-2.5,9.1,0c2.5,2.5,2.5,6.6,0,9.1l-3.7,3.7h2.8c5,0,9.1,4.1,9.1,9.1c0,4-2.6,7.5-6.4,8.7c-0.8,0.3-1.7,0.4-2.7,0.4
			h-2.8l3.6,3.6c0.7,0.7,1.3,1.6,1.6,2.6c0.7,2.3,0.1,4.8-1.6,6.5c-1.2,1.2-2.8,1.9-4.5,1.9c0,0,0,0,0,0c-1.7,0-3.3-0.7-4.6-1.9
			L824.7,194h-26l18.4,18.4h18c2.4,0,4.5,1.3,5.6,3.3c0.5,0.9,0.8,2,0.8,3.1c0,3.5-2.9,6.4-6.4,6.4H830l2,2c1.6,1.6,2.6,3.8,2.6,6.1
			c0.1,2.5-0.8,5-2.6,6.8c-1,1-2.3,1.8-3.7,2.2c-0.8,0.3-1.7,0.4-2.7,0.4c-2.4,0-4.7-0.9-6.4-2.6l-2-2v5.2c0,1.5-0.5,2.9-1.4,4
			c-1,1.3-2.5,2.1-4.1,2.4c-0.2,0-0.5,0.1-0.9,0.1c-3.5,0-6.4-2.9-6.4-6.4v-18l-18.4-18.4v26l12.7,12.7c2.5,2.5,2.5,6.6,0,9.1
			c-1.2,1.2-2.8,1.9-4.5,1.9c0,0,0,0,0,0c-1.7,0-3.3-0.7-4.6-1.9l-3.6-3.6v2.8c0,2.1-0.7,4-2,5.6c0,0-0.1,0.1-0.1,0.1
			c-0.8,0.9-1.7,1.7-2.8,2.3C779.8,262.4,778.4,262.8,776.9,262.8z M770,243.4c0.3,0,0.6,0.1,0.8,0.2c0.8,0.3,1.4,1.2,1.4,2v8.1
			c0,2.6,2.1,4.6,4.6,4.6c0.8,0,1.5-0.2,2.2-0.5c0.5-0.3,1-0.6,1.3-1c0-0.1,0.1-0.1,0.1-0.1c0.7-0.8,1-1.8,1-2.9v-8.1
			c0-0.9,0.5-1.7,1.4-2c0.8-0.3,1.8-0.2,2.4,0.5l7.4,7.4c0.4,0.4,0.9,0.6,1.4,0.6c0,0,0,0,0,0c0.5,0,1-0.2,1.4-0.6
			c0.8-0.8,0.8-2,0-2.8l-13.4-13.4c-0.4-0.4-0.6-1-0.6-1.6v-32.3c0-0.9,0.5-1.7,1.4-2c0.8-0.3,1.8-0.2,2.4,0.5l22.8,22.8
			c0.4,0.4,0.6,1,0.6,1.6v18.9c0,1.1,0.9,2,2,2c0.1,0,0.1,0,0.2,0c0.6-0.1,1-0.3,1.3-0.7c0.3-0.4,0.5-0.8,0.5-1.3v-10.5
			c0-0.9,0.5-1.7,1.4-2c0.8-0.3,1.8-0.2,2.4,0.5l5.7,5.7c1.2,1.2,3,1.6,4.6,1.1c0.7-0.2,1.4-0.6,1.9-1.1c0.9-0.9,1.4-2.2,1.3-3.4
			c0-1.2-0.5-2.3-1.3-3.1l-5.7-5.7c-0.6-0.6-0.8-1.6-0.5-2.4c0.3-0.8,1.2-1.4,2-1.4h10.5c1.1,0,2-0.9,2-2c0-0.3-0.1-0.7-0.2-0.9
			c-0.4-0.7-1-1.1-1.8-1.1h-18.9c-0.6,0-1.1-0.2-1.6-0.6l-22.8-22.8c-0.6-0.6-0.8-1.6-0.5-2.4c0.3-0.8,1.2-1.4,2-1.4h32.3
			c0.6,0,1.2,0.2,1.6,0.6l13.4,13.4c0.4,0.4,0.9,0.6,1.4,0.6c0,0,0,0,0,0c0.5,0,1-0.2,1.4-0.6c0.5-0.5,0.7-1.3,0.5-2
			c-0.1-0.3-0.3-0.6-0.5-0.8l-7.4-7.4c-0.6-0.6-0.8-1.6-0.5-2.4c0.3-0.8,1.2-1.4,2-1.4h8.1c0.5,0,0.9-0.1,1.3-0.2
			c1.9-0.6,3.3-2.4,3.3-4.4c0-2.6-2.1-4.6-4.6-4.6h-8.1c-0.9,0-1.7-0.5-2-1.4c-0.3-0.8-0.2-1.8,0.5-2.4l7.4-7.4
			c0.8-0.8,0.8-2.1,0-2.8c-0.8-0.8-2-0.8-2.8,0l-13.4,13.4c-0.4,0.4-1,0.6-1.6,0.6h-32.3c-0.9,0-1.7-0.5-2-1.4
			c-0.3-0.8-0.2-1.8,0.5-2.4l22.8-22.8c0.4-0.4,1-0.6,1.6-0.6h18.9c1.1,0,2-0.9,2-2c0-1.1-0.9-2-2-2h-10.5c-0.9,0-1.7-0.5-2-1.4
			c-0.3-0.8-0.2-1.8,0.5-2.4l5.7-5.7c0.9-0.9,1.4-2,1.4-3.3c0-1.2-0.5-2.4-1.4-3.3c-0.9-0.9-2-1.4-3.3-1.4c0,0,0,0,0,0
			c-1.2,0-2.4,0.5-3.3,1.4l-5.7,5.7c-0.6,0.6-1.6,0.8-2.4,0.5c-0.8-0.3-1.4-1.1-1.4-2v-10.5c0-1.1-0.9-2-2-2c-1.1,0-2,0.9-2,2v18.9
			c0,0.6-0.2,1.2-0.6,1.6L785.3,170c-0.6,0.6-1.6,0.8-2.4,0.5c-0.8-0.3-1.4-1.1-1.4-2v-32.3c0-0.6,0.2-1.2,0.6-1.6l13.4-13.4
			c0.8-0.8,0.8-2.1,0-2.8c-0.8-0.8-2-0.8-2.8,0l-7.4,7.4c-0.6,0.6-1.6,0.8-2.4,0.5c-0.8-0.3-1.4-1.1-1.4-2v-8.1
			c0-2.6-2.1-4.6-4.6-4.6s-4.6,2.1-4.6,4.6v8.1c0,0.9-0.5,1.7-1.4,2c-0.8,0.3-1.8,0.2-2.4-0.5l-7.4-7.4c-0.8-0.7-2.1-0.8-2.8,0
			c-0.4,0.4-0.6,0.9-0.6,1.4c0,0.5,0.2,1,0.6,1.4l13.4,13.4c0.4,0.4,0.6,1,0.6,1.6v32.3c0,0.9-0.5,1.7-1.4,2
			c-0.8,0.3-1.8,0.2-2.4-0.5l-22.8-22.8c-0.4-0.4-0.6-1-0.6-1.6v-18.9c0-1.1-0.9-2-2-2c-1.1,0-2,0.9-2,2v10.5c0,0.9-0.5,1.7-1.4,2
			c-0.8,0.3-1.8,0.2-2.4-0.5l-5.7-5.7c-0.9-0.9-2-1.4-3.3-1.4c0,0,0,0,0,0c-1.2,0-2.4,0.5-3.3,1.4c-1.6,1.6-1.8,4-0.6,5.9
			c0.2,0.2,0.4,0.5,0.6,0.7l5.7,5.7c0.6,0.6,0.8,1.6,0.5,2.4c-0.3,0.8-1.2,1.4-2,1.4h-10.5c-0.1,0-0.3,0-0.5,0
			c-0.9,0.2-1.5,1-1.5,1.9c0,1.1,0.9,2,2,2h18.9c0.6,0,1.2,0.2,1.6,0.6l22.8,22.8c0.6,0.6,0.8,1.6,0.5,2.4c-0.3,0.8-1.2,1.4-2,1.4
			h-32.3c-0.6,0-1.2-0.2-1.6-0.6l-13.4-13.4c-0.4-0.4-1-0.6-1.6-0.6c-0.5,0-0.9,0.2-1.2,0.6c-0.4,0.4-0.6,0.9-0.6,1.4
			c0,0.5,0.2,1,0.6,1.4l7.4,7.4c0.6,0.6,0.8,1.6,0.5,2.4c-0.3,0.8-1.2,1.4-2,1.4h-8.1c-1,0-1.9,0.3-2.7,0.9
			c-1.2,0.9-1.9,2.3-1.9,3.8c0,0.9,0.3,1.8,0.8,2.6c0.9,1.3,2.3,2,3.8,2h8.1c0.9,0,1.7,0.5,2,1.4c0.3,0.8,0.2,1.8-0.5,2.4l-7.4,7.4
			c-0.4,0.4-0.6,0.9-0.6,1.4c0,0.5,0.2,1,0.6,1.4c0.1,0.1,0.1,0.1,0.2,0.2c0.8,0.6,1.9,0.5,2.6-0.2l13.4-13.4c0.4-0.4,1-0.6,1.6-0.6
			h32.3c0.9,0,1.7,0.5,2,1.4c0.3,0.8,0.2,1.8-0.5,2.4l-22.8,22.8c-0.4,0.4-1,0.6-1.6,0.6h-18.9c-1.1,0-2,0.9-2,2c0,1.1,0.9,2,2,2
			h10.5c0.9,0,1.7,0.5,2,1.4c0.3,0.8,0.2,1.8-0.5,2.4l-5.7,5.7c-0.8,0.8-1.3,2-1.3,3.1c0,0.8,0.1,1.6,0.5,2.3
			c0.2,0.4,0.5,0.8,0.8,1.1c0.9,0.9,2,1.4,3.3,1.4c1.2,0,2.4-0.5,3.3-1.4l5.7-5.7c0.6-0.6,1.6-0.8,2.4-0.5c0.8,0.3,1.4,1.2,1.4,2
			v10.5c0,1.1,0.9,2,2,2c0.1,0,0.1,0,0.2,0c1-0.1,1.8-1,1.8-2v-18.9c0-0.6,0.2-1.2,0.6-1.6l22.8-22.8c0.6-0.6,1.6-0.8,2.4-0.5
			c0.8,0.3,1.4,1.1,1.4,2v32.3c0,0.6-0.2,1.2-0.6,1.6l-13.4,13.4c-0.4,0.4-0.6,0.9-0.6,1.4c0,0.5,0.2,1,0.6,1.4
			c0.1,0,0.1,0.1,0.1,0.1c0.9,0.7,2,0.6,2.7-0.1l7.4-7.4C768.9,243.6,769.4,243.4,770,243.4z"/>
	</g>
</g>
<g>
	<path class="st0" d="M518.1,416.2c0,0.5,0,1.6-0.1,2c-1.5,0.7-3.1,1.8-4.8,1.8h-72.5c-8.2,0-14.9-7.8-14.9-16c0-1.4,0.2-3,0.5-4.2
		c2.2-1.4,3-14.4,21.9-9.7c1.4-3.1,1.2-6.8,3.9-8.8c3.3-2.4,7.3-3.8,11.6-3.8c8.1,0,15.2,5,18.1,12c2.4-1.8,5.5-2.9,8.8-2.9
		c8.2,0,14.9,6.7,14.9,14.9c0,0.6,0,1.3-0.1,1.9c0.3,0,0.6-0.1,0.9-0.1C512.9,403.3,518.1,409.6,518.1,416.2z"/>
	<path class="st0" d="M551.9,361c0,0.2,0,1.1,0,1.3c-1.4,0.6-3,1.7-4.6,1.7h-40.6c-7.9,0-14.3-6.8-14.3-14.7c0-1,0.1-2.3,0.3-3.2
		c2.1-1.3,1.8-13.5,18.3-10.8c0.6-0.6,1.4-1.2,2.1-1.7c2.8-1.9,6.2-3.1,9.8-3.1c9.7,0,17.6,7.9,17.6,17.5c0,0.4,0,0.9-0.1,1.3
		c0,0,0,0,0.1,0C546.8,349.4,551.9,354.7,551.9,361z"/>
	<g>
		<path class="st2" d="M513.2,422h-72.5c-9.1,0-17.1-8.4-17.1-18.1c0-1.6,0.2-3.4,0.6-4.8c2-7.7,8.9-13.2,16.5-13.2
			c2.2,0,4.3,0.4,6,1.1c0.7,0.3,1.4,0.6,2.1,0.9c0-2.5,0.4-5,1.3-7.3c3.1-8.6,11.4-14.4,20.6-14.4c8,0,15.2,4.3,19,11.1
			c2.4-1.3,5.1-1.9,7.9-1.9c9.3,0,16.9,7.5,17.1,16.7c6.9,0.8,12.5,7.1,12.5,14.4c0,5.7-3.5,11.5-8.2,13.8c-0.2,0.1-0.5,0.1-0.7,0.3
			C516.9,421.2,515.2,422,513.2,422z M440.7,390.4c-5.6,0-10.7,4.2-12.2,10c-0.3,1-0.5,2.5-0.5,3.8c0,7.4,5.9,13.9,12.7,13.9h72.5
			c0.8,0,1.9-0.7,3-1.2c0.3-0.2,0.6-0.4,0.9-0.5c3.3-1.6,5.7-5.8,5.7-9.8c0-5.5-4.4-10.1-9.6-10.1c-0.1,0-0.2,0-0.3,0l-0.4,0
			c-0.7,0-1.3-0.2-1.8-0.7c-0.5-0.5-0.7-1.2-0.6-1.8c0.1-0.5,0.1-1,0.1-1.5c0-7-5.7-12.7-12.7-12.7c-2.7,0-5.3,0.8-7.5,2.5
			c-0.5,0.4-1.2,0.5-1.9,0.4c-0.7-0.2-1.2-0.7-1.5-1.3c-2.7-6.5-9-10.7-16.1-10.7c-7.3,0-13.9,4.6-16.4,11.5c-0.7,1.9-1,3.9-1,5.9
			c0,1.4,0.2,2.8,0.5,4.3c0.2,1-0.2,2-1.1,2.5c-0.9,0.5-2,0.3-2.7-0.5c-1.3-1.4-2.9-2.5-4.8-3.2
			C443.9,390.6,442.4,390.4,440.7,390.4z"/>
	</g>
	<g>
		<path class="st2" d="M547.3,366h-40.6c-9.1,0-16.5-7.6-16.5-16.8c0-0.5,0-2.2,0.4-3.7c1.5-7.5,8.3-13,16.2-13c1.5,0,3,0.2,4.3,0.5
			c0,0,0-0.1,0-0.1c2.6-8.2,10.1-13.7,18.8-13.7c10.7,0,19.4,8.5,19.8,19c6.6,1,11.5,6.4,11.5,13.1c0,5.6-3.4,10.9-8.3,12.8
			c-0.3,0.1-0.6,0.3-0.9,0.5C550.6,365.2,549,366,547.3,366z M506.7,336.9c-5.8,0-10.7,4-11.8,9.5c-0.2,0.7-0.3,2-0.3,3
			c0,6.8,5.4,12.6,12.1,12.6h40.6c0.8,0,1.8-0.8,2.7-1.2c0.4-0.2,0.7-0.5,1-0.6c3.3-1.3,5.5-5,5.5-8.8c0-4.9-3.9-8.8-9-8.9
			c-0.7,0.1-1.4-0.2-1.9-0.7c-0.4-0.4-0.6-1-0.6-1.6l0-0.5c0-0.2,0-0.5,0-0.7c0-8.5-6.9-15.3-15.3-15.3c-6.7,0-12.6,4.3-14.6,10.7
			c-0.2,0.6-0.4,1.2-0.5,2c-0.1,0.7-0.6,1.3-1.2,1.6c-0.6,0.3-1.3,0.3-2,0c-0.3-0.1-0.7-0.3-1.1-0.4l-0.1,0
			C509.2,337.1,508,336.9,506.7,336.9z"/>
	</g>
	<g>
		<g>
			<path class="st2" d="M534.4,386.3c-0.6,0-1.1-0.2-1.6-0.6c-0.9-0.9-0.9-2.3,0-3.1l6.5-6.5c0.9-0.9,2.3-0.9,3.1,0
				c0.9,0.9,0.9,2.3,0,3.1l-6.5,6.5C535.5,386.1,535,386.3,534.4,386.3z"/>
		</g>
		<g>
			<path class="st2" d="M540.8,386.3c-0.6,0-1.1-0.2-1.6-0.6l-6.5-6.5c-0.9-0.9-0.9-2.3,0-3.1c0.9-0.9,2.3-0.9,3.1,0l6.5,6.5
				c0.9,0.9,0.9,2.3,0,3.1C542,386.1,541.4,386.3,540.8,386.3z"/>
		</g>
	</g>
	<g>
		<g>
			<path class="st2" d="M448,450.4c-0.6,0-1.1-0.2-1.6-0.6c-0.9-0.9-0.9-2.3,0-3.1l6.5-6.5c0.9-0.9,2.3-0.9,3.1,0
				c0.9,0.9,0.9,2.3,0,3.1l-6.5,6.5C449.1,450.2,448.6,450.4,448,450.4z"/>
		</g>
		<g>
			<path class="st2" d="M454.5,450.4c-0.6,0-1.1-0.2-1.6-0.6l-6.5-6.5c-0.9-0.9-0.9-2.3,0-3.1c0.9-0.9,2.3-0.9,3.1,0l6.5,6.5
				c0.9,0.9,0.9,2.3,0,3.1C455.6,450.2,455,450.4,454.5,450.4z"/>
		</g>
	</g>
	<g>
		<g>
			<path class="st2" d="M479.2,471.7c-0.6,0-1.1-0.2-1.6-0.6c-0.9-0.9-0.9-2.3,0-3.1l6.5-6.5c0.9-0.9,2.3-0.9,3.1,0
				c0.9,0.9,0.9,2.3,0,3.1l-6.5,6.5C480.3,471.5,479.7,471.7,479.2,471.7z"/>
		</g>
		<g>
			<path class="st2" d="M485.6,471.7c-0.6,0-1.1-0.2-1.6-0.6l-6.5-6.5c-0.9-0.9-0.9-2.3,0-3.1c0.9-0.9,2.3-0.9,3.1,0l6.5,6.5
				c0.9,0.9,0.9,2.3,0,3.1C486.8,471.5,486.2,471.7,485.6,471.7z"/>
		</g>
	</g>
	<g>
		<g>
			<path class="st2" d="M495.6,441.7c-0.6,0-1.1-0.2-1.6-0.6c-0.9-0.9-0.9-2.3,0-3.1l6.5-6.5c0.9-0.9,2.3-0.9,3.1,0
				c0.9,0.9,0.9,2.3,0,3.1l-6.5,6.5C496.8,441.5,496.2,441.7,495.6,441.7z"/>
		</g>
		<g>
			<path class="st2" d="M502.1,441.7c-0.6,0-1.1-0.2-1.6-0.6l-6.5-6.5c-0.9-0.9-0.9-2.3,0-3.1c0.9-0.9,2.3-0.9,3.1,0l6.5,6.5
				c0.9,0.9,0.9,2.3,0,3.1C503.2,441.5,502.7,441.7,502.1,441.7z"/>
		</g>
	</g>
</g>
<g>
	<path class="st0" d="M601.7,819.9c-0.5-1.4-1-2.7-1.6-4c-5.2-11.2-15.1-19.8-27.1-23.3c-3.9-1.1-23.6-3.6-51.2-3.6
		c-27.6,0-44.7,2.5-48.5,3.6c-6.6,1.9-12.5,5.3-17.4,9.9c-4.6,5.8-7.7,12.7-8.8,20.3c-0.3,2.1-0.5,4.3-0.5,6.5
		c0,1.4,0.1,2.8,0.2,4.2c0.4,4.2,1.4,8.1,2.9,11.9c6.4,16,22,27.3,40.2,27.3c14,0,23.6-6.1,30.8-10.9c5.4-3.6,9.2-3.6,14.9,0.2
		c7.2,4.7,16.7,10.7,29.8,10.7c11.3,0,21.6-4.3,29.3-11.5c1.6-2,3.1-4.2,4.3-6.5c0.8-1.4,1.4-2.8,2-4.3c2-5,3.1-10.4,3.1-16
		C604.1,829.2,603.3,824.4,601.7,819.9z M589.8,853.5c-2.7,2.7-5.8,4.9-9.3,6.6c-4.5,2.2-9.6,3.4-14.9,3.4
		c-17.8,0-28.1-16.2-37.4-16.2c-9.5,0-19,16.2-38.1,16.2c-18.8,0-34.3-15.4-34.3-34.3c0-8.6,3.2-16.5,8.5-22.6
		c0.5-0.6,1-1.1,1.5-1.6c6.2-6.2,14.8-10.1,24.2-10.1c9.1,0,27.4,1.9,36.5,1.9c9.8,0,29.3-1.9,39-1.9c18.8,0,34.3,15.4,34.3,34.3
		C599.9,838.8,596,847.3,589.8,853.5z"/>
	<path class="st1" d="M606.5,815.1c1.6,4.5,2.4,9.3,2.4,14.2c0,5.7-1.1,11.1-3.1,16l6.7-0.6v-30.1L606.5,815.1z"/>
	<polygon class="st1" points="447.6,815.5 447.4,822.9 447.1,833.5 446.7,845.1 439.9,844.4 439.9,814.9 	"/>
	<path class="st0" d="M589.1,837.6c0,8.6-3.2,16.5-8.5,22.6c-4.5,2.2-9.6,3.4-14.9,3.4c-17.8,0-28.1-16.2-37.4-16.2
		c-9.5,0-19,16.2-38.1,16.2c-18.8,0-34.3-15.4-34.3-34.3c0-8.6,3.2-16.5,8.5-22.6c4.5-2.2,9.6-3.5,14.9-3.5c9.1,0,27.4,1.9,36.5,1.9
		c9.8,0,29.3-1.9,39-1.9C573.7,803.3,589.1,818.7,589.1,837.6z"/>
	<g>
		<path class="st2" d="M565.6,865.8c-11,0-19.3-5.8-25.9-10.4c-4.4-3.1-8.3-5.8-11.5-5.8c-3.2,0-6.9,2.6-11.2,5.6
			c-6.7,4.7-15,10.6-26.8,10.6c-20.1,0-36.5-16.4-36.5-36.5c0-8.8,3.2-17.4,9.1-24c0.5-0.6,1-1.1,1.6-1.7
			c6.9-6.9,16.1-10.7,25.8-10.7c4.6,0,11.6,0.5,18.4,1c6.7,0.5,13.6,0.9,18.1,0.9c4.8,0,12.2-0.5,19.4-0.9c7.2-0.5,14.7-1,19.6-1
			c20.1,0,36.5,16.4,36.5,36.5c0,9.7-3.8,18.8-10.7,25.8c-2.9,2.9-6.2,5.3-9.9,7C576.6,864.6,571.2,865.8,565.6,865.8z M528.2,845.2
			c4.6,0,9,3,14.1,6.6c6.5,4.5,13.8,9.6,23.4,9.6c4.9,0,9.6-1.1,14-3.2c3.2-1.6,6.1-3.7,8.7-6.2c6.1-6.1,9.4-14.1,9.4-22.6
			c0-17.7-14.4-32-32.1-32c-4.8,0-12.2,0.5-19.3,0.9c-7.2,0.5-14.7,1-19.7,1c-4.6,0-11.6-0.5-18.4-1c-6.7-0.5-13.6-0.9-18.1-0.9
			c-8.5,0-16.6,3.3-22.6,9.4c-0.5,0.5-1,1-1.4,1.5c-5.2,5.9-8,13.4-8,21.1c0,17.7,14.4,32,32,32c10.4,0,17.8-5.2,24.3-9.7
			C519.3,848.2,523.6,845.2,528.2,845.2z"/>
	</g>
	<g>
		<g>
			<path class="st2" d="M565.6,874.9c-14.2,0-24.3-6.6-31-11c-5-3.3-7.8-3.3-12.5-0.2c-6.7,4.5-16.9,11.2-32,11.2
				c-18.7,0-35.3-11.3-42.3-28.7c-1.6-4-2.6-8.2-3-12.5c-0.1-1.4-0.2-2.9-0.2-4.4c0-2.3,0.2-4.6,0.5-6.8c2.6-17.5,15.3-32,32.4-36.9
				c4.2-1.2,21.6-3.7,49.1-3.7c27.3,0,47.5,2.5,51.8,3.7c12.6,3.7,22.9,12.6,28.5,24.5c0.6,1.3,1.2,2.7,1.7,4.2v0
				c1.7,4.8,2.5,9.8,2.5,15c0,5.8-1.1,11.5-3.2,16.8c-0.6,1.6-1.3,3.1-2.1,4.5C597.9,865.6,582.5,874.9,565.6,874.9z M528.2,856.9
				c2.8,0,5.6,1.1,8.9,3.2c6.2,4.1,15.7,10.3,28.6,10.3c15.2,0,29.1-8.4,36.3-21.8c0.7-1.3,1.3-2.7,1.9-4.1c1.9-4.9,2.9-10,2.9-15.2
				c0-4.6-0.8-9.2-2.3-13.5l0,0c-0.5-1.3-1-2.6-1.5-3.8c-5-10.8-14.4-18.8-25.7-22.1c-3.6-1-23.2-3.5-50.5-3.5
				c-26.7,0-44,2.4-47.8,3.5c-15.4,4.4-26.9,17.5-29.2,33.4c-0.3,2-0.5,4.1-0.5,6.1c0,1.3,0.1,2.7,0.2,3.9c0.4,3.9,1.3,7.6,2.7,11.3
				c6.3,15.7,21.3,25.9,38.2,25.9c13.8,0,23.3-6.3,29.5-10.5C522.7,857.9,525.4,856.9,528.2,856.9z"/>
		</g>
	</g>
	<g>
		<path class="st2" d="M605.9,847.6c-1.1,0-2.1-0.9-2.2-2c-0.1-1.2,0.8-2.3,2-2.4l8-0.8v-29.8l-8.6,0.7c-1.2,0.1-2.3-0.8-2.4-2
			c-0.1-1.2,0.8-2.3,2-2.4l11-1c0.6-0.1,1.2,0.2,1.7,0.6c0.5,0.4,0.7,1,0.7,1.6v34.3c0,1.1-0.9,2.1-2,2.2l-10,1
			C606,847.6,605.9,847.6,605.9,847.6z"/>
	</g>
	<g>
		<path class="st2" d="M449.9,847.6c-0.1,0-0.1,0-0.2,0l-10.1-1c-1.1-0.1-2-1.1-2-2.2v-34.3c0-0.6,0.3-1.2,0.7-1.6
			c0.5-0.4,1.1-0.6,1.7-0.6l11,1c1.2,0.1,2.1,1.2,2,2.4c-0.1,1.2-1.2,2.1-2.4,2l-8.6-0.7v29.8l8,0.8c1.2,0.1,2.1,1.2,2,2.4
			C452,846.7,451.1,847.6,449.9,847.6z"/>
	</g>
	<g>
		<linearGradient id="SVGID_1_" gradientUnits="userSpaceOnUse" x1="560.4785" y1="846.2895" x2="566.4604" y2="846.2895">
			<stop  offset="0" style="stop-color:#FFFFFF"/>
			<stop  offset="1" style="stop-color:#000000"/>
		</linearGradient>
		<path class="st4" d="M560.5,844.8c2,1,4,1.9,6,2.9"/>
		<path class="st2" d="M566.5,850c-0.3,0-0.7-0.1-1-0.2l-6-2.9c-1.1-0.5-1.6-1.9-1-3c0.5-1.1,1.9-1.6,3-1l6,2.9c1.1,0.5,1.6,1.9,1,3
			C568.1,849.5,567.3,850,566.5,850z"/>
	</g>
	<g>
		<linearGradient id="SVGID_2_" gradientUnits="userSpaceOnUse" x1="488.7747" y1="830.0345" x2="556.763" y2="830.0345">
			<stop  offset="0" style="stop-color:#FFFFFF"/>
			<stop  offset="1" style="stop-color:#000000"/>
		</linearGradient>
		<path class="st5" d="M548.6,838.8c-12.2-6.1-24.5-11.9-36.6-17.6l36.2,17.6C548.3,838.8,548.5,838.8,548.6,838.8z"/>
		<path class="st2" d="M548.2,841.1c-0.3,0-0.7-0.1-1-0.2L511,823.2c-1.1-0.5-1.6-1.9-1-2.9c0.5-1.1,1.8-1.6,2.9-1l6.9,3.2
			c9.8,4.6,19.9,9.4,29.8,14.4c0.9,0.5,1.4,1.6,1.1,2.6c-0.3,1-1.1,1.6-2.1,1.6c0,0,0,0,0,0C548.5,841.1,548.3,841.1,548.2,841.1z"
			/>
	</g>
	<g>
		<linearGradient id="SVGID_3_" gradientUnits="userSpaceOnUse" x1="430.3863" y1="830.9807" x2="544.1141" y2="830.9807">
			<stop  offset="0" style="stop-color:#FFFFFF"/>
			<stop  offset="1" style="stop-color:#000000"/>
		</linearGradient>
		<path class="st6" d="M510.5,836c-4.3-2.1-17.7-8.5-20.9-10.1c-0.1,0,14.9,7.2,20.9,10.2C510.6,836,510.5,836,510.5,836z"/>
		<path class="st2" d="M510.6,838.3c-0.3,0-0.7-0.1-1-0.2c-3.2-1.6-9-4.4-13.6-6.6l-5.2-2.5c-0.6-0.3-1.2-0.6-1.6-0.8
			c-0.2-0.1-0.3-0.2-0.5-0.2l0,0c-1.2-0.7-1.4-1.2-1.3-2.3c0.1-0.7,0.5-1.3,1.1-1.7c0.6-0.3,1.4-0.4,2-0.1c3.2,1.5,16.6,7.9,21,10.1
			c0.8,0.4,1.2,1.2,1.2,2c0,0,0,0.1,0,0.1c0,0.8-0.4,1.5-1,1.9C511.4,838.2,511,838.3,510.6,838.3z"/>
	</g>
	<g>
		<linearGradient id="SVGID_4_" gradientUnits="userSpaceOnUse" x1="488.7747" y1="812.3013" x2="556.7629" y2="812.3013">
			<stop  offset="0" style="stop-color:#FFFFFF"/>
			<stop  offset="1" style="stop-color:#000000"/>
		</linearGradient>
		<path class="st7" d="M498.4,814.6l-9.7-4.7C492,811.5,495.2,813.1,498.4,814.6C498.4,814.7,498.4,814.6,498.4,814.6z"/>
		<path class="st2" d="M498.4,816.9c-0.3,0-0.7-0.1-1-0.2c-3.1-1.5-6.4-3.1-9.6-4.8c-1.1-0.6-1.5-1.9-1-3c0.5-1.1,1.9-1.5,3-1
			l9.7,4.7c0.6,0.3,1.1,0.9,1.2,1.6c0.1,0.7-0.1,1.4-0.6,1.9c0,0,0,0,0,0C499.6,816.7,499,816.9,498.4,816.9z"/>
	</g>
</g>
<g>
	<g>
		<path class="st0" d="M814.9,852.2v0.8l2.2,2.2C816.4,854.2,815.7,853.3,814.9,852.2z"/>
		<path class="st0" d="M832.3,924.1c-13.8,6.4-30.7,1.8-39.1-11.3c-17.2-26.7-15.6-29.4-37.5-64.2c0,0,0,0,0.1,0
			c0.9-0.9,1.3-2,1.2-3.2c0-1-0.5-2-1.2-2.8l-3.6-3.6h6.5c1.4,0,2.6-1.2,2.6-2.6c0-0.5-0.1-0.9-0.3-1.3c-0.4-0.8-1.3-1.3-2.3-1.4
			h-11.7l-2.3-2.3l-8-11.8h16.2l8.3,8.3c1,1,2.7,1,3.7,0c0.7-0.7,0.9-1.7,0.6-2.6c-0.1-0.4-0.3-0.7-0.6-1l-4.6-4.6h5
			c0.4,0,0.9-0.1,1.3-0.2c1.7-0.5,3-2.1,3-4.1c0-2.3-1.9-4.2-4.2-4.2h-5l4.6-4.6c1-1,1-2.7,0-3.7c-1-1-2.7-1-3.7,0l-8.3,8.3h-20
			l14.1-14.1h11.7c0.8,0,1.5-0.4,2-0.9c0,0,0,0,0,0c0.4-0.5,0.6-1,0.6-1.7c0-0.6-0.2-1.2-0.6-1.6c-0.5-0.6-1.2-1-2-1h-6.5l3.6-3.6
			c0.4-0.4,0.6-0.8,0.8-1.2c0.8-1.6,0.5-3.5-0.8-4.8c-0.3-0.3-0.7-0.6-1.1-0.8c-1.6-0.8-3.6-0.6-4.9,0.8l-3.6,3.6v-6.5
			c0-1.5-1.2-2.6-2.6-2.6c-1.5,0-2.6,1.2-2.6,2.6V791l-14.1,14.1v-20l5.8-5.8l2.5-2.5c1-1,1-2.7,0-3.7c-1-1-2.7-1-3.7,0l-4.6,4.6v-5
			c0-2.3-1.9-4.2-4.2-4.2c-2.3,0-4.2,1.9-4.2,4.2v5l-1.3-1.3l-3.3-3.3c-1-1-2.7-1-3.7,0c-1,1-1,2.7,0,3.7l8.3,8.3v9.8
			c-3.2-4.3-6.9-9.5-11.5-16.2c-3.5-5-5.1-10.8-5.1-16.5c0-0.7,0-1.5,0.1-2.2c2.4-4.3,5.9-8,10.2-10.8l1.8-1.2
			c14.3-9.2,34.1-5.3,42.9,9.3c18.3,30.4,17,32.5,37.4,64.2c6.4,9.9,11.4,17.3,15.6,23.4v2.9l-3.6-3.6c-1.6-1.7-4.3-1.7-6,0
			c-1.5,1.5-1.6,3.7-0.5,5.4c0.1,0.2,0.3,0.4,0.5,0.6l1.6,1.6l1.9,1.9h-6.5c-0.2,0-0.4,0-0.5,0c-1.2,0.3-2.1,1.3-2.1,2.6
			c0,1.4,1.2,2.6,2.6,2.6h11.7l14.1,14.1h-20l-7.7-7.7l-0.6-0.6c-0.4-0.4-1-0.7-1.5-0.7c-0.2,0-0.4,0-0.6,0
			c-0.6,0.1-1.1,0.3-1.6,0.7c-0.2,0.2-0.4,0.4-0.5,0.7c-0.5,1-0.3,2.2,0.5,3l3.4,3.4l1.3,1.2h-5c-0.9,0-1.8,0.3-2.5,0.8
			c-1.1,0.8-1.8,2-1.8,3.4c0,0.9,0.3,1.7,0.7,2.4c0.8,1.1,2,1.8,3.5,1.8h5l-4.6,4.6c-0.5,0.5-0.8,1.2-0.8,1.8c0,0.7,0.3,1.3,0.8,1.8
			c0.1,0.1,0.2,0.2,0.3,0.2c1,0.8,2.5,0.7,3.4-0.2l6.3-6.3c0,0,0,0,0,0l2-2h20l-6.4,6.4l-7.7,7.7h-11.7c-1.4,0-2.6,1.2-2.6,2.6
			c0,1.5,1.2,2.6,2.6,2.6h6.5l-1.2,1.2l-2.3,2.3c-0.8,0.8-1.2,1.8-1.2,2.9c0,0.7,0.1,1.4,0.5,2.1c0.2,0.4,0.4,0.7,0.8,1.1
			c0.8,0.8,1.9,1.2,3,1.2c1.1,0,2.2-0.4,3-1.2l3.6-3.6v6.5c0,1.4,1.2,2.6,2.6,2.6c0.1,0,0.2,0,0.4,0c1.3-0.2,2.2-1.3,2.2-2.6v-11.7
			l14.1-14.1v20l-8.3,8.3c-1,1-1,2.7,0,3.7c0.1,0.1,0.2,0.2,0.3,0.2c1,0.8,2.5,0.7,3.4-0.2l4.6-4.6v5
			C829,922,830.4,923.7,832.3,924.1z"/>
		<path class="st0" d="M841.1,918.5c-1,0.9-2.1,1.6-3.2,2.4l-0.5,0.3c0.1-0.4,0.2-0.8,0.2-1.2v-5L841.1,918.5z"/>
		<path class="st0" d="M847.9,910.3L847.9,910.3C847.9,910.3,847.9,910.3,847.9,910.3c0.4-5-0.5-10.2-2.6-14.9l-7.8-7.8v20l7.2,7.2
			L847.9,910.3z"/>
	</g>
	<g>
		<path class="st2" d="M849,876.9c-8.4-13-13.6-19.8-19-27c-6.8-8.8-14.4-18.9-29.9-42.9c-11.6-18.1-16.2-26.4-21.4-36.1
			c-3.8-7-8.1-15-16-28c-4.4-7.3-11.5-12.5-20.1-14.4c-8.8-2.1-18.3-0.4-25.9,4.5l-1.8,1.2c-8.8,5.7-14.6,15.3-15.3,25.8
			c-0.1,0.7-0.1,1.5-0.1,2.4c0,6.4,1.9,12.6,5.5,17.8c4,5.9,7.7,11,11.6,16.3c2.8,3.8,5.2,7,7.5,10c3.5,4.6,6.7,8.9,10.7,14.6
			c2.6,3.7,5.2,7.5,8,11.8c1.7,2.6,3.4,5.2,5.2,7.9c2.1,3.3,4.1,6.4,5.9,9.2c11.3,17.9,16.4,27.4,20.9,35.8
			c4.3,7.9,8.3,15.5,16.7,28.5c6.3,9.7,17,15.2,28,15.2c4.7,0,9.4-1,13.9-3.1c1.3-0.6,2.7-1.4,4-2.2l1.8-1.2
			c1.2-0.8,2.4-1.6,3.4-2.5c1.4-1.2,2.7-2.5,4-4c1.3-1.5,2.4-3.2,3.4-4.8c0,0,0-0.1,0.1-0.1C856,900.5,855.7,887.3,849,876.9z
			 M846,909.2c0,0-0.1,0.1-0.1,0.1c-0.8,1.4-1.8,2.8-2.8,4.1c-1.1,1.3-2.2,2.4-3.4,3.4c-0.9,0.8-1.9,1.5-3,2.2l-1.9,1.2
			c-1.1,0.7-2.3,1.4-3.5,1.9c-13,6-28.6,1.5-36.3-10.5c-8.3-12.9-12.1-19.9-16.5-28.1c-4.5-8.5-9.7-18.1-21-36.1
			c-1.8-2.9-3.8-5.9-5.9-9.2c-1.8-2.7-3.5-5.3-5.2-8c-2.8-4.2-5.4-8.1-8.1-11.9c-4.1-5.8-7.3-10.1-10.8-14.7
			c-2.3-3.1-4.7-6.2-7.5-10c-3.8-5.2-7.5-10.3-11.5-16.1c-3.1-4.5-4.7-9.8-4.7-15.3c0-0.7,0-1.4,0.1-2c0.7-9.1,5.6-17.5,13.3-22.4
			l1.8-1.2c4.7-3,10.3-4.6,15.8-4.6c2.2,0,4.4,0.2,6.6,0.8c7.4,1.7,13.5,6.1,17.3,12.4c7.8,12.9,12.1,20.9,15.9,27.9
			c5.3,9.7,9.8,18.1,21.6,36.3c15.6,24.2,23.3,34.3,30.1,43.2c5.7,7.4,10.6,13.8,18.8,26.7C851.1,888.3,851.4,899.8,846,909.2z"/>
		<circle class="st2" cx="738.2" cy="781" r="3.1"/>
		<circle class="st2" cx="744.9" cy="791.5" r="3.1"/>
		<circle class="st2" cx="756.5" cy="784" r="3.1"/>
		<circle class="st2" cx="751.7" cy="801.9" r="3.1"/>
		<circle class="st2" cx="763.3" cy="794.4" r="3.1"/>
		<circle class="st2" cx="749.8" cy="773.5" r="3.1"/>
		<circle class="st2" cx="790.6" cy="862.4" r="3.1"/>
		<circle class="st2" cx="797.4" cy="872.9" r="3.1"/>
		<circle class="st2" cx="809" cy="865.4" r="3.1"/>
		<circle class="st2" cx="804.1" cy="883.4" r="3.1"/>
		<circle class="st2" cx="815.8" cy="875.9" r="3.1"/>
		<circle class="st2" cx="802.3" cy="854.9" r="3.1"/>
	</g>
</g>
<g>
	<rect x="700.1" y="601.8" class="st0" width="4.9" height="34.2"/>
	<rect x="768.8" y="601.8" class="st0" width="4.9" height="34.2"/>
	<g>
		<path class="st0" d="M875,587.8c0,16.1-6.1,30.9-16.1,42.1c-11.2,10.1-26,16.2-42.2,16.2H680.1c-3.4,0-6.1-2.7-6.1-6.1
			c0-0.4,0-0.8,0.1-1.2c0.4-0.1,0.8-0.1,1.2-0.1H812c15.2,0,28.9-6.7,38.2-17.3c10.6-9.3,17.3-23,17.3-38.2c0-0.4,0-0.8,0.1-1.2
			c0.4-0.1,0.8-0.1,1.2-0.1C872.3,581.7,875,584.4,875,587.8z"/>
	</g>
	<path class="st0" d="M812.5,595.7L812.5,595.7c0,0.3,0,0.5,0,0.7c-0.7,0.3-1.5,0.5-2.4,0.5H680c-3.3,0-6-2.7-6-6v0
		c0-0.2,0-0.5,0-0.7c0.7-0.3,1.5-0.5,2.4-0.5h130.1C809.8,589.7,812.5,592.4,812.5,595.7z"/>
	<path class="st2" d="M873.6,574.7c-3.9,0-7.3,2.8-8.1,6.6c-0.1,0.6-0.2,1.1-0.2,1.7c0,14-6,27.3-16.6,36.6
		c-8.9,7.8-20.3,12.1-32,12.1h-36.2v-32.5h29.5c1.1,0,2.2-0.2,3.2-0.7c3-1.3,4.9-4.2,4.9-7.5v0c0-4.5-3.7-8.2-8.2-8.2H680
		c-4.1,0-7.6,3.1-8.1,7.1c0,0.3-0.1,0.7-0.1,1.1c0,4.5,3.7,8.2,8.2,8.2h17.2v32.5h-17.1c-3.9,0-7.3,2.8-8.1,6.6
		c-0.1,0.6-0.2,1.1-0.2,1.7c0,4.6,3.7,8.3,8.3,8.3h136.6c16.1,0,31.6-6,43.6-16.8c13.7-12.4,21.6-30,21.6-48.4
		C882,578.5,878.2,574.7,873.6,574.7z M776.1,631.7h-6v-32.5h6V631.7z M765.7,599.1v32.5H712v-32.5H765.7z M676.2,591
		c0-0.1,0-0.3,0-0.5c0.2-1.8,1.9-3.3,3.7-3.3h130.1c2,0,3.7,1.7,3.7,3.7v0c0,1.5-0.9,2.8-2.3,3.4c-0.5,0.2-1,0.3-1.5,0.3H680
		C677.9,594.7,676.2,593,676.2,591z M701.6,599.1h6v32.5h-6V599.1z M857.4,628.2c-11.2,10.1-25.6,15.7-40.7,15.7H680.1
		c-2.1,0-3.9-1.7-3.9-3.9c0-0.3,0-0.5,0.1-0.8c0.4-1.8,2-3.1,3.8-3.1h136.6c12.8,0,25.2-4.7,34.9-13.2
		c11.5-10.1,18.1-24.6,18.1-39.9c0-0.3,0-0.5,0.1-0.8c0.4-1.8,2-3.1,3.8-3.1c2.1,0,3.9,1.7,3.9,3.9
		C877.5,600.2,870.2,616.7,857.4,628.2z"/>
</g>
<g>
	<path class="st0" d="M161.8,238.1c0,0-1,9.8-2.2,20c-0.1,0.9-0.3,1.7-0.6,2.5c-0.3,0-0.5,0.1-0.8,0.1c-2.1,0-4-0.9-5.3-2.2
		c-1.4-1.4-2.2-3.3-2.2-5.3v-15H161.8z"/>
	<path class="st0" d="M275.5,238.1v20c0,0.9-0.1,1.7-0.4,2.5c-0.3,0.1-0.7,0.1-1,0.1c-4.2,0-7.1-3.4-7.6-7.6
		c-0.7-5.7-1.3-11.2-1.7-15H275.5z"/>
	<path class="st0" d="M275.9,214c-0.7-36.8-15.9-66.7-35-84.6c-1.2-1.1-2.6-2.3-4-3.4c-4.3,3.1-9.5,5-15.3,5c-10,0-18.7-5.7-22.9-14
		c-3.9,0.7-8,1.9-12.3,3.7c-6,2.4-11.6,6.1-16.7,10.7c-13.4,17.7-21.9,43.3-22.5,71.9c-0.2,8.3,0,28.8,0,28.8H276
		C276,225.8,276,218.3,275.9,214z M178.7,208.5c-1.6,1.4-3,2.2-3.7,2.2c-2.2,0-11.9-8.8-11.9-15.5c0-1.1,0.2-2.2,0.7-3.2
		c1-2.3,3.2-3.8,5.6-3.8c2.4,0,4.4,1.4,5.5,3.5c1.1-2.1,3.2-3.5,5.5-3.5c3.5,0,6.4,3.1,6.4,7C186.9,199.8,182.3,205.5,178.7,208.5z
		 M219.7,208.6c-1.6,1.3-3,2.2-3.6,2.2c-2.2,0-11.9-8.8-11.9-15.5c0-1.1,0.2-2.2,0.7-3.2c1-2.3,3.2-3.8,5.6-3.8
		c2.4,0,4.4,1.4,5.5,3.5c1.1-2.1,3.2-3.5,5.5-3.5c3.5,0,6.3,3.1,6.3,7C227.9,199.8,223.3,205.5,219.7,208.6z M261.3,208.6
		c-1.6,1.3-3,2.2-3.6,2.2c-2.2,0-11.9-8.8-11.9-15.5c0-1.1,0.2-2.2,0.7-3.2c1.1-2.3,3.2-3.8,5.7-3.8c2.4,0,4.4,1.4,5.5,3.5
		c1.1-2.1,3.2-3.5,5.5-3.5c3.5,0,6.4,3.1,6.4,7C269.6,199.8,264.9,205.5,261.3,208.6z"/>
	<path class="st8" d="M183.6,198.6c0,3.2-2.3,7-4.9,10c-1.6,1.4-3,2.2-3.7,2.2c-2.2,0-11.9-8.8-11.9-15.5c0-1.1,0.2-2.2,0.7-3.2
		c0.7-0.3,1.5-0.5,2.3-0.5c2.4,0,4.4,1.4,5.5,3.5c1.1-2.1,3.2-3.5,5.5-3.5C180.7,191.6,183.6,194.7,183.6,198.6z"/>
	<path class="st8" d="M266.2,198.6c0,3.2-2.3,7-4.9,10c-1.6,1.3-3,2.2-3.6,2.2c-2.2,0-11.9-8.8-11.9-15.5c0-1.1,0.2-2.2,0.7-3.2
		c0.7-0.3,1.5-0.5,2.3-0.5c2.4,0,4.4,1.4,5.5,3.5c1.1-2.1,3.2-3.5,5.5-3.5C263.4,191.6,266.2,194.7,266.2,198.6z"/>
	<path class="st8" d="M224.6,198.6c0,3.2-2.3,7-4.9,10c-1.6,1.3-3,2.2-3.6,2.2c-2.2,0-11.9-8.8-11.9-15.5c0-1.1,0.2-2.2,0.7-3.2
		c0.7-0.3,1.5-0.5,2.3-0.5c2.4,0,4.4,1.4,5.5,3.5c1.1-2.1,3.2-3.5,5.5-3.5C221.8,191.6,224.6,194.7,224.6,198.6z"/>
	<path class="st8" d="M221.1,78.5c-6.2,0-11.9,2.3-16.2,6.2c-2.8,4-4.4,8.8-4.4,14c0,13.5,11,24.5,24.5,24.5
		c6.2,0,11.9-2.3,16.2-6.2c2.8-4,4.4-8.8,4.4-14C245.5,89.5,234.6,78.5,221.1,78.5z"/>
	<g>
		<path class="st2" d="M287.5,204c-0.7-36.1-14.1-68.3-35.8-86.3c-0.9-0.8-2.3-0.6-3.1,0.3c-0.8,0.9-0.6,2.3,0.3,3.1
			c20.8,17.2,33.6,48.2,34.2,83c0.1,6.6,0.1,21,0,26.5H149c0-5.5-0.1-20,0-26.5c0.8-42.3,20-79,47.7-91.4c1.1-0.5,1.6-1.8,1.1-2.9
			c-0.5-1.1-1.8-1.6-2.9-1.1c-29.2,13-49.4,51.4-50.3,95.4c-0.2,8.2,0,28.6,0,28.8c0,1.2,1,2.2,2.2,2.2h1.5v18c0,2.6,1,5,2.9,6.9
			c1.9,1.8,4.3,2.9,6.9,2.9c0.3,0,0.7,0,1.1-0.1c4.6-0.5,8-4.3,8.6-9.4c0.9-7.6,1.7-15,2-18.3h92.4c0.1,0.8,0.2,1.9,0.3,3.3
			c0.4,3.8,1,9.3,1.7,15c0.6,5.5,4.7,9.5,9.7,9.5c0.5,0,1,0,1.4-0.1c2-0.3,4-1.2,5.5-2.8c1.8-1.9,2.9-4.3,2.9-6.9v-18h1.5
			c1.2,0,2.2-1,2.2-2.2C287.5,232.6,287.7,212.2,287.5,204z M163.4,252.8c-0.3,2.5-1.9,5.2-4.8,5.6c0,0-0.1,0-0.1,0
			c-0.1,0-0.3,0-0.5,0c-1.4,0-2.8-0.6-3.8-1.6c-1-1-1.6-2.4-1.6-3.8v-18h12.7C165.1,238.5,164.3,245.6,163.4,252.8z M279.4,253
			c0,1.4-0.6,2.8-1.6,3.8c-0.8,0.8-1.9,1.4-3,1.5c0,0-0.1,0-0.1,0c-0.2,0-0.4,0-0.6,0c-3.2,0-5-2.9-5.4-5.6
			c-0.7-5.6-1.3-11.2-1.7-15c-0.1-1.1-0.2-2-0.3-2.8h12.7V253z"/>
		<path class="st2" d="M218.8,119.8c-1.2-0.4-2.4,0.3-2.8,1.5c-0.4,1.2,0.3,2.4,1.5,2.8c2.6,0.8,5.2,1.2,7.9,1.2c0.5,0,1,0,1.5,0
			c1.2-0.1,2.2-1.1,2.1-2.3c-0.1-1.2-1.1-2.1-2.3-2.1C224,120.9,221.3,120.6,218.8,119.8z"/>
		<path class="st2" d="M250.3,102.9c-1.2-0.4-2.4,0.3-2.8,1.5c-1.4,4.5-4.1,8.6-7.7,11.4c-1,0.8-1.1,2.2-0.4,3.1
			c0.4,0.6,1.1,0.8,1.7,0.8c0.5,0,1-0.2,1.4-0.5c4.3-3.4,7.6-8.3,9.2-13.6C252.1,104.5,251.4,103.3,250.3,102.9z"/>
		<path class="st2" d="M247.7,91.9c0.6,2.2,0.8,4.5,0.8,6.7c0,1.2,0.9,2.3,2.1,2.3c0,0,0.1,0,0.1,0c1.2,0,2.2-0.9,2.2-2.1
			c0.1-2.7-0.2-5.4-0.9-8c-0.3-1.2-1.5-1.9-2.7-1.6C248.1,89.5,247.4,90.7,247.7,91.9z"/>
		<path class="st2" d="M244.8,85.3c0.4,0.6,1.1,1,1.8,1c0.4,0,0.8-0.1,1.2-0.4c1-0.7,1.3-2.1,0.6-3.1c-1.1-1.6-2.4-3.2-3.8-4.6
			c-0.9-0.8-2.3-0.8-3.1,0.1c-0.8,0.9-0.8,2.3,0.1,3.1C242.8,82.6,243.8,83.9,244.8,85.3z"/>
		<path class="st2" d="M228.6,75.2c2.6,0.4,5.1,1.1,7.4,2.3c0.3,0.2,0.7,0.2,1,0.2c0.8,0,1.6-0.4,2-1.2c0.6-1.1,0.1-2.4-1-3
			c-2.8-1.4-5.7-2.3-8.9-2.7c-1.2-0.2-2.3,0.7-2.5,1.9C226.5,73.9,227.3,75,228.6,75.2z"/>
		<path class="st2" d="M217,76.4c0.2,0,0.5,0,0.7-0.1c1-0.4,2-0.6,3.1-0.9c1.2-0.2,2-1.4,1.7-2.6c-0.2-1.2-1.4-2-2.6-1.7
			c-1.3,0.3-2.5,0.6-3.7,1c-1.2,0.4-1.8,1.7-1.3,2.8C215.2,75.9,216,76.4,217,76.4z"/>
		<path class="st2" d="M208.5,81.6c0.5,0,1.1-0.2,1.5-0.6c0.8-0.7,1.6-1.4,2.5-2c1-0.7,1.2-2.1,0.5-3.1c-0.7-1-2.1-1.2-3.1-0.5
			c-1.1,0.7-2.1,1.6-3,2.5c-0.9,0.8-0.9,2.2-0.1,3.1C207.3,81.4,207.9,81.6,208.5,81.6z"/>
		<path class="st2" d="M200.9,95.8c0.1,0,0.2,0,0.3,0c1.1,0,2-0.8,2.2-1.9c0.3-2,0.8-3.9,1.6-5.7c0.5-1.1-0.1-2.4-1.2-2.9
			c-1.1-0.5-2.4,0.1-2.9,1.2c-0.9,2.1-1.5,4.4-1.9,6.7C198.9,94.5,199.7,95.6,200.9,95.8z"/>
		<path class="st2" d="M201.7,110.6c0.4,0.8,1.2,1.2,2,1.2c0.3,0,0.7-0.1,1-0.2c1.1-0.5,1.5-1.9,1-3c-1.2-2.4-2-5.1-2.3-7.8
			c-0.1-1.2-1.3-2.1-2.5-1.9c-1.2,0.1-2.1,1.3-1.9,2.5C199.3,104.6,200.3,107.7,201.7,110.6z"/>
		<path class="st2" d="M210.4,115.1c-0.9-0.8-2.3-0.8-3.1,0.1c-0.8,0.9-0.8,2.3,0.1,3.1c1.1,1.1,2.4,2,3.7,2.8
			c0.4,0.2,0.8,0.3,1.2,0.3c0.7,0,1.5-0.4,1.9-1c0.6-1,0.3-2.4-0.7-3.1C212.3,116.7,211.3,115.9,210.4,115.1z"/>
		<path class="st2" d="M230.8,111.8c0.4,0.7,1.2,1.1,1.9,1.1c0.4,0,0.7-0.1,1.1-0.3c1.7-1,3.2-2.2,4.5-3.7c0.8-0.9,0.7-2.3-0.3-3.1
			c-0.9-0.8-2.3-0.7-3.1,0.3c-0.9,1.1-2,2-3.3,2.7C230.5,109.3,230.2,110.7,230.8,111.8z"/>
		<path class="st2" d="M237,88.8c-1.1,0.6-1.4,2-0.8,3c1.3,2.2,1.8,4.8,1.6,7.2c-0.1,1.2,0.8,2.3,2,2.4c0.1,0,0.1,0,0.2,0
			c1.1,0,2.1-0.9,2.2-2c0.3-3.4-0.5-6.8-2.2-9.8C239.4,88.6,238.1,88.2,237,88.8z"/>
		<path class="st2" d="M216.4,89c0.5,0,1-0.2,1.4-0.5c1.1-0.9,2.3-1.6,3.6-2.1c1.2-0.4,1.8-1.7,1.3-2.8c-0.4-1.2-1.7-1.8-2.8-1.3
			c-1.8,0.6-3.4,1.6-4.9,2.8c-1,0.8-1.1,2.2-0.3,3.1C215.1,88.7,215.8,89,216.4,89z"/>
		<path class="st2" d="M211.1,100.1c1.2,0,2.2-1,2.2-2.2c0-0.6,0-1.1,0.1-1.7c0.2-1.2-0.7-2.3-1.9-2.5c-1.2-0.2-2.3,0.7-2.5,1.9
			c-0.1,0.8-0.2,1.6-0.2,2.4C208.8,99.1,209.8,100.1,211.1,100.1C211.1,100.1,211.1,100.1,211.1,100.1z"/>
		<path class="st2" d="M222.5,109.8c-1.4-0.4-2.7-1.1-3.9-2c-1-0.7-2.4-0.5-3.1,0.5c-0.7,1-0.5,2.4,0.5,3.1c1.6,1.2,3.4,2.1,5.2,2.6
			c0.2,0.1,0.4,0.1,0.7,0.1c0.9,0,1.8-0.6,2.1-1.6C224.3,111.4,223.6,110.1,222.5,109.8z"/>
		<path class="st2" d="M229.3,93.2c-1.1,0.6-1.4,2-0.8,3c0.3,0.6,0.5,1.3,0.4,1.9c-0.1,1.2,0.8,2.3,2,2.4c0.1,0,0.1,0,0.2,0
			c1.1,0,2.1-0.9,2.2-2c0.1-1.5-0.2-3.1-1-4.5C231.7,93,230.3,92.6,229.3,93.2z"/>
		<path class="st2" d="M220.5,95.1c0.4,0.5,1.1,0.8,1.7,0.8c0.5,0,1-0.2,1.4-0.5c0.3-0.2,0.6-0.4,1-0.5c1.2-0.4,1.8-1.7,1.3-2.8
			c-0.4-1.2-1.7-1.8-2.8-1.3c-0.8,0.3-1.6,0.7-2.3,1.3C219.9,92.7,219.8,94.1,220.5,95.1z"/>
		<path class="st2" d="M224.9,100.9c-0.4-0.1-0.7-0.3-1.1-0.5c-1-0.7-2.4-0.5-3.1,0.5c-0.7,1-0.5,2.4,0.5,3.1
			c0.7,0.5,1.5,0.9,2.4,1.2c0.2,0.1,0.4,0.1,0.7,0.1c0.9,0,1.8-0.6,2.1-1.6C226.8,102.5,226.1,101.3,224.9,100.9z"/>
		<path class="st2" d="M192.4,132.3c-1.1-0.6-2.4-0.2-3,0.9l-2.1,3.8l-2.1-3.8c-0.6-1.1-1.9-1.5-3-0.9c-1.1,0.6-1.5,1.9-0.9,3l4,7.4
			c0.4,0.7,1.1,1.2,1.9,1.2c0.8,0,1.6-0.4,1.9-1.2l4-7.4C193.9,134.3,193.5,132.9,192.4,132.3z"/>
		<path class="st2" d="M210.5,132.3c-1.1,0.6-1.5,1.9-0.9,3l4,7.4c0.4,0.7,1.1,1.2,1.9,1.2c0.8,0,1.6-0.4,1.9-1.2l4-7.4
			c0.6-1.1,0.2-2.4-0.9-3c-1.1-0.6-2.4-0.2-3,0.9l-2.1,3.8l-2.1-3.8C212.9,132.1,211.5,131.7,210.5,132.3z"/>
		<path class="st2" d="M248.9,132.3c-1.1-0.6-2.4-0.2-3,0.9l-2.1,3.8l-2.1-3.8c-0.6-1.1-1.9-1.5-3-0.9c-1.1,0.6-1.5,1.9-0.9,3l4,7.4
			c0.4,0.7,1.1,1.2,1.9,1.2c0.8,0,1.6-0.4,1.9-1.2l4-7.4C250.3,134.3,249.9,132.9,248.9,132.3z"/>
		<path class="st2" d="M178,154.5c-1.1-0.6-2.4-0.2-3,0.9l-2.1,3.8l-2.1-3.8c-0.6-1.1-1.9-1.5-3-0.9c-1.1,0.6-1.5,1.9-0.9,3l4,7.4
			c0.4,0.7,1.1,1.2,1.9,1.2c0.8,0,1.6-0.4,1.9-1.2l4-7.4C179.5,156.4,179.1,155.1,178,154.5z"/>
		<path class="st2" d="M196.1,154.5c-1.1,0.6-1.5,1.9-0.9,3l4,7.4c0.4,0.7,1.1,1.2,1.9,1.2c0.8,0,1.6-0.4,1.9-1.2l4-7.4
			c0.6-1.1,0.2-2.4-0.9-3c-1.1-0.6-2.4-0.2-3,0.9l-2.1,3.8l-2.1-3.8C198.5,154.3,197.1,153.9,196.1,154.5z"/>
		<path class="st2" d="M231.3,164.9l4-7.4c0.6-1.1,0.2-2.4-0.9-3c-1.1-0.6-2.4-0.2-3,0.9l-2.1,3.8l-2.1-3.8c-0.6-1.1-1.9-1.5-3-0.9
			c-1.1,0.6-1.5,1.9-0.9,3l4,7.4c0.4,0.7,1.1,1.2,1.9,1.2C230.2,166,230.9,165.6,231.3,164.9z"/>
		<path class="st2" d="M263.3,154.5c-1.1-0.6-2.4-0.2-3,0.9l-2.1,3.8l-2.1-3.8c-0.6-1.1-1.9-1.5-3-0.9c-1.1,0.6-1.5,1.9-0.9,3l4,7.4
			c0.4,0.7,1.1,1.2,1.9,1.2c0.8,0,1.6-0.4,1.9-1.2l4-7.4C264.7,156.4,264.3,155.1,263.3,154.5z"/>
		<path class="st2" d="M162.3,180.3c1.2,0,2.2-1,2.2-2.2c0-1.2-1-2.2-2.2-2.2h-4.8c-1.2,0-2.2,1-2.2,2.2c0,1.2,1,2.2,2.2,2.2H162.3z
			"/>
		<path class="st2" d="M169.9,175.9c-1.2,0-2.2,1-2.2,2.2c0,1.2,1,2.2,2.2,2.2h4.8c1.2,0,2.2-1,2.2-2.2c0-1.2-1-2.2-2.2-2.2H169.9z"
			/>
		<path class="st2" d="M187.2,175.9h-4.8c-1.2,0-2.2,1-2.2,2.2c0,1.2,1,2.2,2.2,2.2h4.8c1.2,0,2.2-1,2.2-2.2
			C189.4,176.9,188.4,175.9,187.2,175.9z"/>
		<path class="st2" d="M199.6,175.9h-4.8c-1.2,0-2.2,1-2.2,2.2c0,1.2,1,2.2,2.2,2.2h4.8c1.2,0,2.2-1,2.2-2.2
			C201.9,176.9,200.9,175.9,199.6,175.9z"/>
		<path class="st2" d="M205.1,178.1c0,1.2,1,2.2,2.2,2.2h4.8c1.2,0,2.2-1,2.2-2.2c0-1.2-1-2.2-2.2-2.2h-4.8
			C206.1,175.9,205.1,176.9,205.1,178.1z"/>
		<path class="st2" d="M217.5,178.1c0,1.2,1,2.2,2.2,2.2h4.8c1.2,0,2.2-1,2.2-2.2c0-1.2-1-2.2-2.2-2.2h-4.8
			C218.5,175.9,217.5,176.9,217.5,178.1z"/>
		<path class="st2" d="M232.5,180.3h4.8c1.2,0,2.2-1,2.2-2.2c0-1.2-1-2.2-2.2-2.2h-4.8c-1.2,0-2.2,1-2.2,2.2
			C230.3,179.3,231.3,180.3,232.5,180.3z"/>
		<path class="st2" d="M249.8,175.9h-4.8c-1.2,0-2.2,1-2.2,2.2c0,1.2,1,2.2,2.2,2.2h4.8c1.2,0,2.2-1,2.2-2.2
			C252,176.9,251,175.9,249.8,175.9z"/>
		<path class="st2" d="M262.2,175.9h-4.8c-1.2,0-2.2,1-2.2,2.2c0,1.2,1,2.2,2.2,2.2h4.8c1.2,0,2.2-1,2.2-2.2
			C264.4,176.9,263.5,175.9,262.2,175.9z"/>
		<path class="st2" d="M274.7,175.9h-4.8c-1.2,0-2.2,1-2.2,2.2c0,1.2,1,2.2,2.2,2.2h4.8c1.2,0,2.2-1,2.2-2.2
			C276.9,176.9,275.9,175.9,274.7,175.9z"/>
		<path class="st2" d="M153,221c0,1.2,1,2.2,2.2,2.2h5c1.2,0,2.2-1,2.2-2.2c0-1.2-1-2.2-2.2-2.2h-5C154,218.8,153,219.8,153,221z"/>
		<path class="st2" d="M173.1,218.8h-5c-1.2,0-2.2,1-2.2,2.2c0,1.2,1,2.2,2.2,2.2h5c1.2,0,2.2-1,2.2-2.2
			C175.3,219.8,174.4,218.8,173.1,218.8z"/>
		<path class="st2" d="M181.1,218.8c-1.2,0-2.2,1-2.2,2.2c0,1.2,1,2.2,2.2,2.2h5c1.2,0,2.2-1,2.2-2.2c0-1.2-1-2.2-2.2-2.2H181.1z"/>
		<path class="st2" d="M194,223.2h5c1.2,0,2.2-1,2.2-2.2c0-1.2-1-2.2-2.2-2.2h-5c-1.2,0-2.2,1-2.2,2.2
			C191.8,222.2,192.8,223.2,194,223.2z"/>
		<path class="st2" d="M206.9,218.8c-1.2,0-2.2,1-2.2,2.2c0,1.2,1,2.2,2.2,2.2h5c1.2,0,2.2-1,2.2-2.2c0-1.2-1-2.2-2.2-2.2H206.9z"/>
		<path class="st2" d="M219.9,218.8c-1.2,0-2.2,1-2.2,2.2c0,1.2,1,2.2,2.2,2.2h5c1.2,0,2.2-1,2.2-2.2c0-1.2-1-2.2-2.2-2.2H219.9z"/>
		<path class="st2" d="M233.1,223.2h5c1.2,0,2.2-1,2.2-2.2c0-1.2-1-2.2-2.2-2.2h-5c-1.2,0-2.2,1-2.2,2.2
			C230.9,222.2,231.9,223.2,233.1,223.2z"/>
		<path class="st2" d="M246.1,218.8c-1.2,0-2.2,1-2.2,2.2c0,1.2,1,2.2,2.2,2.2h5c1.2,0,2.2-1,2.2-2.2c0-1.2-1-2.2-2.2-2.2H246.1z"/>
		<path class="st2" d="M259,218.8c-1.2,0-2.2,1-2.2,2.2c0,1.2,1,2.2,2.2,2.2h5c1.2,0,2.2-1,2.2-2.2c0-1.2-1-2.2-2.2-2.2H259z"/>
		<path class="st2" d="M269.7,221c0,1.2,1,2.2,2.2,2.2h5c1.2,0,2.2-1,2.2-2.2c0-1.2-1-2.2-2.2-2.2h-5
			C270.7,218.8,269.7,219.8,269.7,221z"/>
		<path class="st2" d="M180.6,186.1c-2,0-4,0.8-5.5,2.2c-1.5-1.4-3.5-2.2-5.5-2.2c-3.3,0-6.2,2-7.6,5.1c-0.6,1.3-0.9,2.7-0.9,4.1
			c0,7.7,10.3,17.7,14.1,17.7c0.5,0,1.9,0,5.1-2.7c3.3-2.9,9-9.2,9-15C189.1,190.2,185.3,186.1,180.6,186.1z M177.3,206.9
			c-1.1,0.9-1.9,1.4-2.2,1.6c-2.2-1-9.6-8-9.6-13.2c0-0.8,0.2-1.5,0.5-2.2c0.7-1.6,2.1-2.5,3.6-2.5c1.4,0,2.8,0.9,3.6,2.3
			c0.4,0.7,1.1,1.2,2,1.2c0.8,0,1.6-0.5,2-1.2c0.7-1.4,2.1-2.3,3.5-2.3c2.3,0,4.1,2.1,4.1,4.8C184.7,198.7,181,203.7,177.3,206.9z"
			/>
		<path class="st2" d="M257.7,188.2c-1.5-1.4-3.5-2.2-5.5-2.2c-3.3,0-6.2,2-7.7,5.1c-0.6,1.3-0.9,2.7-0.9,4.1
			c0,7.7,10.3,17.7,14.1,17.7c0.5,0,1.9,0,5.1-2.7c3.3-2.9,9-9.2,9-15c0-5.1-3.8-9.2-8.6-9.2C261.2,186.1,259.2,186.8,257.7,188.2z
			 M267.3,195.3c0,3.4-3.8,8.5-7.4,11.6c-1.1,0.9-1.8,1.4-2.2,1.6c-2.2-1-9.6-8-9.6-13.2c0-0.8,0.2-1.5,0.5-2.2
			c0.7-1.6,2.1-2.5,3.7-2.5c1.4,0,2.8,0.9,3.5,2.3c0.4,0.7,1.1,1.2,2,1.2c0.8,0,1.6-0.5,2-1.2c0.7-1.4,2.1-2.3,3.5-2.3
			C265.5,190.5,267.3,192.6,267.3,195.3z"/>
		<path class="st2" d="M221.6,186.1c-2,0-4,0.8-5.5,2.2c-1.5-1.4-3.5-2.2-5.5-2.2c-3.3,0-6.2,2-7.6,5.1c-0.6,1.3-0.9,2.7-0.9,4.1
			c0,7.7,10.3,17.7,14.1,17.7c0.5,0,1.9,0,5.1-2.7c3.3-2.9,9-9.2,9-15C230.1,190.2,226.3,186.1,221.6,186.1z M218.3,206.9
			c-1.1,0.9-1.8,1.4-2.2,1.6c-2.2-1-9.6-8-9.6-13.2c0-0.8,0.2-1.5,0.5-2.2c0.7-1.6,2.1-2.5,3.6-2.5c1.4,0,2.8,0.9,3.6,2.3
			c0.4,0.7,1.1,1.2,2,1.2c0.8,0,1.6-0.5,2-1.2c0.7-1.4,2.1-2.3,3.5-2.3c2.3,0,4.1,2.1,4.1,4.8C225.7,198.7,221.9,203.8,218.3,206.9z
			"/>
	</g>
</g>
<g>
	<path class="st8" d="M519.2,195.3c0,4.3-2.6,9.2-5.9,13.5c-0.8,0.8-1.6,1.6-2.4,2.2c-2.5,2.1-4.6,3.4-5.6,3.4
		c-3.4,0-18.4-13.7-18.4-24.1c0-1.7,0.3-3.3,1-4.7c1.3-0.8,2.8-1.2,4.5-1.2c3.7,0,6.9,2.2,8.6,5.5c1.7-3.3,4.9-5.5,8.6-5.5
		C514.8,184.4,519.2,189.3,519.2,195.3z"/>
	<path class="st0" d="M532.7,149.6c-3.1-18-14-31.7-33.3-33.3c-3-0.3-9-0.3-12,0c-5,0.4-9.7,1.6-13.8,3.6
		c-4.7,5.6-7.5,12.7-7.9,20.9c-1,20.5-1,32-0.5,41.4L454,167.8c-0.2-0.2-0.3-0.4-0.5-0.6c-16.3-7.5-16.6,5.2-19.9,5.1
		c-0.7,3.2,0,6.9,1.8,10.1c9.5,17.9,32.3,39.5,32.3,39.5c3.2,21.6,3,38.7,3,38.7H527c-0.1-8.2-0.1-20.7,0.7-31.4
		c5.1-8.2,6.8-33.2,6.9-35.8C535.2,180.3,534.8,161.8,532.7,149.6z M510.9,211c-2.5,2.1-4.6,3.4-5.6,3.4c-3.4,0-18.4-13.7-18.4-24.1
		c0-1.8,0.4-3.4,1.1-4.9c1.6-3.5,4.9-5.9,8.8-5.9c3.7,0,6.9,2.2,8.6,5.5c1.7-3.3,4.9-5.5,8.6-5.5c5.5,0,9.9,4.9,9.9,10.9
		C523.7,197.4,516.4,206.3,510.9,211z"/>
	<g>
		<path class="st2" d="M490,129.5c0.4,0.7,1.1,1.2,1.9,1.2c0.8,0,1.6-0.4,1.9-1.2l4-7.4c0.6-1.1,0.2-2.4-0.9-3
			c-1.1-0.6-2.4-0.2-3,0.9l-2.1,3.8l-2.1-3.8c-0.6-1.1-1.9-1.5-3-0.9c-1.1,0.6-1.5,1.9-0.9,3L490,129.5z"/>
		<path class="st2" d="M516,129.5c0.4,0.7,1.1,1.2,1.9,1.2c0.8,0,1.6-0.4,1.9-1.2l4-7.4c0.6-1.1,0.2-2.4-0.9-3
			c-1.1-0.6-2.4-0.2-3,0.9l-2.1,3.8l-2.1-3.8c-0.6-1.1-1.9-1.5-3-0.9c-1.1,0.6-1.5,1.9-0.9,3L516,129.5z"/>
		<path class="st2" d="M476.7,150.6c0.4,0.7,1.1,1.2,1.9,1.2c0.8,0,1.6-0.4,1.9-1.2l4-7.4c0.6-1.1,0.2-2.4-0.9-3
			c-1.1-0.6-2.4-0.2-3,0.9l-2.1,3.8l-2.1-3.8c-0.6-1.1-1.9-1.5-3-0.9c-1.1,0.6-1.5,1.9-0.9,3L476.7,150.6z"/>
		<path class="st2" d="M502.7,150.6c0.4,0.7,1.1,1.2,1.9,1.2c0.8,0,1.6-0.4,1.9-1.2l4-7.4c0.6-1.1,0.2-2.4-0.9-3
			c-1.1-0.6-2.4-0.2-3,0.9l-2.1,3.8l-2.1-3.8c-0.6-1.1-1.9-1.5-3-0.9c-1.1,0.6-1.5,1.9-0.9,3L502.7,150.6z"/>
		<path class="st2" d="M528.8,150.6c0.4,0.7,1.1,1.2,1.9,1.2c0.8,0,1.6-0.4,1.9-1.2l4-7.4c0.6-1.1,0.2-2.4-0.9-3
			c-1.1-0.6-2.4-0.2-3,0.9l-2.1,3.8l-2.1-3.8c-0.6-1.1-1.9-1.5-3-0.9c-1.1,0.6-1.5,1.9-0.9,3L528.8,150.6z"/>
		<path class="st2" d="M496.5,239.8c-1.1-0.6-2.4-0.2-3,0.9l-2.1,3.8l-2.1-3.8c-0.6-1.1-1.9-1.5-3-0.9c-1.1,0.6-1.5,1.9-0.9,3l4,7.4
			c0.4,0.7,1.1,1.2,1.9,1.2c0.8,0,1.6-0.4,1.9-1.2l4-7.4C498,241.7,497.6,240.4,496.5,239.8z"/>
		<path class="st2" d="M522.5,239.8c-1.1-0.6-2.4-0.2-3,0.9l-2.1,3.8l-2.1-3.8c-0.6-1.1-1.9-1.5-3-0.9c-1.1,0.6-1.5,1.9-0.9,3l4,7.4
			c0.4,0.7,1.1,1.2,1.9,1.2c0.8,0,1.6-0.4,1.9-1.2l4-7.4C524,241.7,523.6,240.4,522.5,239.8z"/>
		<path class="st2" d="M479.1,164.4c0-1.2-1-2.2-2.2-2.2h-4.8c-1.2,0-2.2,1-2.2,2.2c0,1.2,1,2.2,2.2,2.2h4.8
			C478.1,166.6,479.1,165.6,479.1,164.4z"/>
		<path class="st2" d="M491.6,164.4c0-1.2-1-2.2-2.2-2.2h-4.8c-1.2,0-2.2,1-2.2,2.2c0,1.2,1,2.2,2.2,2.2h4.8
			C490.6,166.6,491.6,165.6,491.6,164.4z"/>
		<path class="st2" d="M497,162.1c-1.2,0-2.2,1-2.2,2.2c0,1.2,1,2.2,2.2,2.2h4.8c1.2,0,2.2-1,2.2-2.2c0-1.2-1-2.2-2.2-2.2H497z"/>
		<path class="st2" d="M514.3,162.1h-4.8c-1.2,0-2.2,1-2.2,2.2c0,1.2,1,2.2,2.2,2.2h4.8c1.2,0,2.2-1,2.2-2.2
			C516.5,163.1,515.5,162.1,514.3,162.1z"/>
		<path class="st2" d="M526.7,162.1h-4.8c-1.2,0-2.2,1-2.2,2.2c0,1.2,1,2.2,2.2,2.2h4.8c1.2,0,2.2-1,2.2-2.2
			C528.9,163.1,527.9,162.1,526.7,162.1z"/>
		<path class="st2" d="M539.2,162.1h-4.8c-1.2,0-2.2,1-2.2,2.2c0,1.2,1,2.2,2.2,2.2h4.8c1.2,0,2.2-1,2.2-2.2
			C541.4,163.1,540.4,162.1,539.2,162.1z"/>
		<path class="st2" d="M481.2,226.6h-4.8c-1.2,0-2.2,1-2.2,2.2c0,1.2,1,2.2,2.2,2.2h4.8c1.2,0,2.2-1,2.2-2.2
			C483.5,227.6,482.5,226.6,481.2,226.6z"/>
		<path class="st2" d="M488.9,226.6c-1.2,0-2.2,1-2.2,2.2c0,1.2,1,2.2,2.2,2.2h4.8c1.2,0,2.2-1,2.2-2.2c0-1.2-1-2.2-2.2-2.2H488.9z"
			/>
		<path class="st2" d="M506.2,226.6h-4.8c-1.2,0-2.2,1-2.2,2.2c0,1.2,1,2.2,2.2,2.2h4.8c1.2,0,2.2-1,2.2-2.2
			C508.4,227.6,507.4,226.6,506.2,226.6z"/>
		<path class="st2" d="M513.8,226.6c-1.2,0-2.2,1-2.2,2.2c0,1.2,1,2.2,2.2,2.2h4.8c1.2,0,2.2-1,2.2-2.2c0-1.2-1-2.2-2.2-2.2H513.8z"
			/>
		<path class="st2" d="M531.1,226.6h-4.8c-1.2,0-2.2,1-2.2,2.2c0,1.2,1,2.2,2.2,2.2h4.8c1.2,0,2.2-1,2.2-2.2
			C533.3,227.6,532.3,226.6,531.1,226.6z"/>
		<path class="st2" d="M505.2,216.6c1.6,0,4-1.3,7.1-3.9c0.9-0.7,1.7-1.5,2.6-2.4c2.6-2.6,11-11.6,11-20c0-7.2-5.4-13.1-12.1-13.1
			c-3.3,0-6.3,1.4-8.6,3.9c-2.2-2.4-5.3-3.9-8.6-3.9c-4.6,0-8.7,2.8-10.8,7.2c0,0,0,0.1-0.1,0.1c0,0-0.1,0.1-0.1,0.1
			c-0.8,1.7-1.2,3.6-1.2,5.6C484.6,202,500.5,216.6,505.2,216.6z M489.8,186.4l0.1-0.1c1.3-2.9,3.9-4.6,6.8-4.6
			c2.7,0,5.2,1.6,6.6,4.3c0.4,0.7,1.1,1.2,2,1.2c0.8,0,1.6-0.5,2-1.2c1.4-2.6,3.9-4.3,6.6-4.3c4.2,0,7.7,3.9,7.7,8.6
			c0,5.4-5,12.3-9.7,16.9c-0.8,0.8-1.5,1.5-2.3,2.1c-2.4,2-3.8,2.7-4.2,2.8c-2.9-0.7-16.2-12.9-16.2-21.9
			C489,188.9,489.3,187.7,489.8,186.4z"/>
		<path class="st2" d="M546.5,140.4c-3.6-20.8-16.5-33.6-35.3-35.1c-3.1-0.3-9.3-0.3-12.4,0c-11,0.9-20.6,5.6-26.9,13.2
			c-5.1,6.1-8,13.7-8.4,22.2c-0.7,14.5-1,25.3-0.7,34.8l-7.1-9c-0.2-0.3-0.4-0.5-0.6-0.7c-4.8-5.3-12.9-6-18.5-1.6l-0.7,0.5
			c-2.3,1.8-3.9,4.3-4.5,7.2c-0.8,3.6-0.1,7.8,2,11.6c8.8,16.7,28.5,36,32.2,39.5c3,20.8,2.9,37.4,2.9,37.6c0,0.6,0.2,1.2,0.6,1.6
			c0.4,0.4,1,0.7,1.6,0.7h68.2c0.6,0,1.2-0.2,1.6-0.7c0.4-0.4,0.6-1,0.6-1.6c0-0.2-0.8-22.2,0.4-39.5c5.4-9.6,6.9-36.1,6.9-36.3v0
			C549.1,171.8,548.7,153.1,546.5,140.4z M544,184.5L544,184.5c-0.3,5.5-2.2,27.7-6.6,34.7c-0.2,0.3-0.3,0.6-0.3,1
			c-1,14.4-0.7,32-0.5,38.2h-63.7c-0.1-5.4-0.5-19.8-3-36.8c-0.1-0.5-0.3-0.9-0.7-1.3c-0.2-0.2-22.7-21.5-31.9-38.9
			c-1.6-2.9-2.1-6-1.6-8.6c0.4-1.9,1.4-3.4,2.9-4.6l0.7-0.5c3.8-3,9.3-2.5,12.5,1.1c0.1,0.2,0.3,0.3,0.4,0.5l11.3,14.4
			c0.6,0.8,1.6,1,2.5,0.7c0.9-0.3,1.5-1.2,1.4-2.2c-0.6-11-0.4-23.3,0.5-41.2c0.4-7.5,2.9-14.2,7.4-19.6
			c5.6-6.7,14.1-10.8,23.9-11.6c2.9-0.2,8.8-0.2,11.7,0c9.8,0.8,26.9,6,31.3,31.5C544.3,153.4,544.6,172.2,544,184.5z"/>
	</g>
</g>
<g>
	<path class="st0" d="M329.1,823.8l-61.6-41l-5.1-3.4l-8-5.3h-10.4c-0.6,3.5-1.8,6.7-3.5,9.6c-4.9,8.4-13.9,14-24.2,14
		c-10.3,0-19.3-5.6-24.2-14c-1.7-2.9-2.9-6.1-3.5-9.6h-29.9v0.3l0,0l0-0.2l-54.1,36.3l-10.9,7.4l15,23.8l55.7-28.3l1.1-0.6
		l-1.7,80.4h101.1l-1.5-68.1l-0.4-13l55.6,28.5L329.1,823.8z M222.7,849.3c-0.8,0.8-1.6,1.6-2.4,2.2c-2.5,2.1-4.6,3.4-5.6,3.4
		c-3.4,0-18.4-13.7-18.4-24.1c0-1.7,0.3-3.3,1-4.7c0-0.1,0.1-0.1,0.1-0.2c1.6-3.5,4.9-5.9,8.8-5.9c3.7,0,6.9,2.2,8.6,5.5
		c1.7-3.3,4.9-5.5,8.6-5.5c5.5,0,9.9,4.9,9.9,10.9C233.1,836.9,227.7,844.3,222.7,849.3z"/>
	<path class="st8" d="M228.6,835.8c0,4.3-2.6,9.2-5.9,13.5c-0.8,0.8-1.6,1.6-2.4,2.2c-2.5,2.1-4.6,3.4-5.6,3.4
		c-3.4,0-18.4-13.7-18.4-24.1c0-1.7,0.3-3.3,1-4.7c1.3-0.8,2.8-1.2,4.5-1.2c3.7,0,6.9,2.2,8.6,5.5c1.7-3.3,4.9-5.5,8.6-5.5
		C224.2,824.9,228.6,829.8,228.6,835.8z"/>
	<g>
		<path class="st2" d="M176.5,865.2c0-1.2-1-2.2-2.2-2.2h-4.6c-1.2,0-2.2,1-2.2,2.2c0,1.2,1,2.2,2.2,2.2h4.6
			C175.5,867.4,176.5,866.4,176.5,865.2z"/>
		<path class="st2" d="M186.3,863h-4.6c-1.2,0-2.2,1-2.2,2.2c0,1.2,1,2.2,2.2,2.2h4.6c1.2,0,2.2-1,2.2-2.2
			C188.5,864,187.5,863,186.3,863z"/>
		<path class="st2" d="M200.4,865.2c0-1.2-1-2.2-2.2-2.2h-4.6c-1.2,0-2.2,1-2.2,2.2c0,1.2,1,2.2,2.2,2.2h4.6
			C199.4,867.4,200.4,866.4,200.4,865.2z"/>
		<path class="st2" d="M210.2,863h-4.6c-1.2,0-2.2,1-2.2,2.2c0,1.2,1,2.2,2.2,2.2h4.6c1.2,0,2.2-1,2.2-2.2
			C212.4,864,211.4,863,210.2,863z"/>
		<path class="st2" d="M224.6,865.2c0-1.2-1-2.2-2.2-2.2h-4.6c-1.2,0-2.2,1-2.2,2.2c0,1.2,1,2.2,2.2,2.2h4.6
			C223.6,867.4,224.6,866.4,224.6,865.2z"/>
		<path class="st2" d="M234.3,863h-4.6c-1.2,0-2.2,1-2.2,2.2c0,1.2,1,2.2,2.2,2.2h4.6c1.2,0,2.2-1,2.2-2.2
			C236.6,864,235.6,863,234.3,863z"/>
		<path class="st2" d="M248.5,865.2c0-1.2-1-2.2-2.2-2.2h-4.6c-1.2,0-2.2,1-2.2,2.2c0,1.2,1,2.2,2.2,2.2h4.6
			C247.5,867.4,248.5,866.4,248.5,865.2z"/>
		<path class="st2" d="M258.2,863h-4.6c-1.2,0-2.2,1-2.2,2.2c0,1.2,1,2.2,2.2,2.2h4.6c1.2,0,2.2-1,2.2-2.2
			C260.4,864,259.4,863,258.2,863z"/>
		<path class="st2" d="M186.3,807.4h-4.6c-1.2,0-2.2,1-2.2,2.2c0,1.2,1,2.2,2.2,2.2h4.6c1.2,0,2.2-1,2.2-2.2
			C188.5,808.4,187.5,807.4,186.3,807.4z"/>
		<path class="st2" d="M193.6,811.9h4.6c1.2,0,2.2-1,2.2-2.2c0-1.2-1-2.2-2.2-2.2h-4.6c-1.2,0-2.2,1-2.2,2.2
			C191.4,810.9,192.4,811.9,193.6,811.9z"/>
		<path class="st2" d="M203.3,809.7c0,1.2,1,2.2,2.2,2.2h4.6c1.2,0,2.2-1,2.2-2.2c0-1.2-1-2.2-2.2-2.2h-4.6
			C204.3,807.4,203.3,808.4,203.3,809.7z"/>
		<path class="st2" d="M217.8,811.9h4.6c1.2,0,2.2-1,2.2-2.2c0-1.2-1-2.2-2.2-2.2h-4.6c-1.2,0-2.2,1-2.2,2.2
			C215.5,810.9,216.5,811.9,217.8,811.9z"/>
		<path class="st2" d="M234.3,807.4h-4.6c-1.2,0-2.2,1-2.2,2.2c0,1.2,1,2.2,2.2,2.2h4.6c1.2,0,2.2-1,2.2-2.2
			C236.6,808.4,235.6,807.4,234.3,807.4z"/>
		<path class="st2" d="M241.7,811.9h4.6c1.2,0,2.2-1,2.2-2.2c0-1.2-1-2.2-2.2-2.2h-4.6c-1.2,0-2.2,1-2.2,2.2
			C239.4,810.9,240.4,811.9,241.7,811.9z"/>
		<path class="st2" d="M258.2,807.4h-4.6c-1.2,0-2.2,1-2.2,2.2c0,1.2,1,2.2,2.2,2.2h4.6c1.2,0,2.2-1,2.2-2.2
			C260.4,808.4,259.4,807.4,258.2,807.4z"/>
		<path class="st2" d="M338.1,814.3l-73.9-49.7c-0.4-0.3-0.9-0.4-1.4-0.4c-0.1,0-0.3-0.1-0.4-0.1l-21.7-2.7
			c-0.6-0.1-1.2,0.1-1.6,0.5c-0.5,0.4-0.8,0.9-0.8,1.5c-0.4,3.4-1.5,6.7-3.2,9.6c-4.4,7.5-12.1,12-20.7,12c-8.6,0-16.3-4.5-20.7-12
			c-1.7-2.9-2.8-6.2-3.2-9.6c-0.1-0.6-0.4-1.1-0.8-1.5c-0.5-0.4-1.1-0.5-1.6-0.5l-21.7,2.7c-0.5,0.1-1,0.3-1.4,0.7l-73.5,49.4
			c-1,0.7-1.3,2-0.6,3l16.1,25.6c0.4,0.7,1.1,1,1.9,1c0.3,0,0.7-0.1,1-0.2l53.5-27.2l-1.6,76.7c0,0.6,0.2,1.2,0.6,1.6
			c0.4,0.4,1,0.7,1.6,0.7h101.1c0.6,0,1.2-0.2,1.6-0.7c0.4-0.4,0.6-1,0.6-1.6l-1.7-77.1l54.4,27.7c0.3,0.2,0.7,0.2,1,0.2
			c0.7,0,1.5-0.4,1.9-1l16.1-25.6C339.3,816.3,339.1,814.9,338.1,814.3z M146.2,820.1c0-0.5-0.1-0.9-0.3-1.4l-2.5-3.9
			c-0.7-1-2-1.3-3.1-0.7c-1,0.7-1.3,2-0.7,3.1l2.5,3.9c0.2,0.3,0.4,0.5,0.7,0.7l-21.6,11l-2.3-3.7c-0.7-1-2-1.3-3.1-0.7
			c-1,0.7-1.3,2-0.7,3.1l2.1,3.3l-8,4l-13.9-22.1l7.3-4.9l2.1,3.4c0.4,0.7,1.1,1,1.9,1c0.4,0,0.8-0.1,1.2-0.3c1-0.7,1.3-2,0.7-3.1
			l-2.2-3.5l20.1-13.5c0,0.4,0.1,0.8,0.3,1.2l2.5,3.9c0.4,0.7,1.1,1,1.9,1c0.4,0,0.8-0.1,1.2-0.3c1-0.7,1.3-2,0.7-3.1l-2.5-3.9
			c-0.3-0.4-0.6-0.7-1-0.9l34.5-23.2l-0.9,40.8L146.2,820.1z M165.9,891l1.7-78.1l0.1-2.4c0.3,0.8,1.1,1.4,2,1.4h4.6
			c1.2,0,2.2-1,2.2-2.2c0-1.2-1-2.2-2.2-2.2h-4.6c-0.9,0-1.7,0.5-2,1.3l0.9-40.4l17.7-2.2c0.6,3.2,1.8,6.3,3.5,9.1
			c5.1,8.8,14.5,14.2,24.5,14.2c10,0,19.4-5.5,24.5-14.2c1.7-2.8,2.8-5.9,3.5-9.1l17.7,2.2l2.6,122.7H165.9z M319.9,838.8l-7.5-3.8
			l2.2-3.5c0.7-1,0.4-2.4-0.7-3.1c-1-0.7-2.4-0.4-3.1,0.7l-2.5,3.9l-21.8-11.1c0.4-0.2,0.7-0.4,1-0.8l2.5-3.9c0.7-1,0.4-2.4-0.7-3.1
			c-1-0.7-2.4-0.4-3.1,0.7l-2.5,3.9c-0.3,0.5-0.4,1.1-0.3,1.7l-18.4-9.3l-0.9-40.9l35.6,23.9c-0.3,0.2-0.5,0.4-0.7,0.7l-2.5,3.9
			c-0.7,1-0.4,2.4,0.7,3.1c0.4,0.2,0.8,0.3,1.2,0.3c0.7,0,1.4-0.4,1.9-1l2.5-3.9c0.2-0.3,0.3-0.5,0.3-0.8l20,13.4l-2,3.2
			c-0.7,1-0.4,2.4,0.7,3.1c0.4,0.2,0.8,0.3,1.2,0.3c0.7,0,1.4-0.4,1.9-1l2-3.1l6.9,4.6L319.9,838.8z"/>
		<path class="st2" d="M224.3,850.8c2.6-2.6,11-11.6,11-20c0-7.2-5.4-13.1-12.1-13.1c-3.3,0-6.3,1.4-8.6,3.9
			c-2.2-2.4-5.3-3.9-8.6-3.9c-4.6,0-8.7,2.8-10.8,7.2c0,0,0,0.1-0.1,0.1c0,0-0.1,0.1-0.1,0.1c-0.8,1.7-1.2,3.6-1.2,5.6
			c0,11.7,15.9,26.3,20.6,26.3c1.6,0,4-1.3,7.1-3.9C222.6,852.5,223.4,851.7,224.3,850.8z M218.8,849.8c-2.4,2-3.8,2.7-4.2,2.8
			c-2.9-0.7-16.2-12.9-16.2-21.9c0-1.4,0.3-2.6,0.8-3.9l0.1-0.1c1.3-2.9,3.9-4.6,6.8-4.6c2.7,0,5.2,1.6,6.6,4.3
			c0.4,0.7,1.1,1.2,2,1.2s1.6-0.5,2-1.2c1.4-2.6,3.9-4.3,6.6-4.3c4.2,0,7.7,3.9,7.7,8.6c0,5.4-5,12.3-9.7,16.9
			C220.4,848.5,219.6,849.2,218.8,849.8z"/>
		<path class="st2" d="M181.7,874c-1.1-0.6-2.4-0.2-3,0.9l-2.1,3.8l-2.1-3.8c-0.6-1.1-1.9-1.5-3-0.9c-1.1,0.6-1.5,1.9-0.9,3l4,7.4
			c0.4,0.7,1.1,1.2,1.9,1.2c0.8,0,1.6-0.4,1.9-1.2l4-7.4C183.1,875.9,182.7,874.6,181.7,874z"/>
		<path class="st2" d="M206.6,874c-1.1-0.6-2.4-0.2-3,0.9l-2.1,3.8l-2.1-3.8c-0.6-1.1-1.9-1.5-3-0.9c-1.1,0.6-1.5,1.9-0.9,3l4,7.4
			c0.4,0.7,1.1,1.2,1.9,1.2c0.8,0,1.6-0.4,1.9-1.2l4-7.4C208,875.9,207.7,874.6,206.6,874z"/>
		<path class="st2" d="M231.5,874c-1.1-0.6-2.4-0.2-3,0.9l-2.1,3.8l-2.1-3.8c-0.6-1.1-1.9-1.5-3-0.9c-1.1,0.6-1.5,1.9-0.9,3l4,7.4
			c0.4,0.7,1.1,1.2,1.9,1.2c0.8,0,1.6-0.4,1.9-1.2l4-7.4C233,875.9,232.6,874.6,231.5,874z"/>
		<path class="st2" d="M257,874c-1.1-0.6-2.4-0.2-3,0.9l-2.1,3.8l-2.1-3.8c-0.6-1.1-1.9-1.5-3-0.9c-1.1,0.6-1.5,1.9-0.9,3l4,7.4
			c0.4,0.7,1.1,1.2,1.9,1.2c0.8,0,1.6-0.4,1.9-1.2l4-7.4C258.4,875.9,258,874.6,257,874z"/>
		<path class="st2" d="M137,804.7c-0.7-1-2-1.3-3.1-0.7c-1,0.7-1.3,2-0.7,3.1l2.5,3.9c0.4,0.7,1.1,1,1.9,1c0.4,0,0.8-0.1,1.2-0.3
			c1-0.7,1.3-2,0.7-3.1L137,804.7z"/>
		<path class="st2" d="M112.5,819c-0.7-1-2-1.3-3.1-0.7c-1,0.7-1.3,2-0.7,3.1l2.5,3.9c0.4,0.7,1.1,1,1.9,1c0.4,0,0.8-0.1,1.2-0.3
			c1-0.7,1.3-2,0.7-3.1L112.5,819z"/>
		<path class="st2" d="M128.8,814l-4.4,0.3l2.1-3.8c0.6-1.1,0.2-2.4-0.9-3c-1.1-0.6-2.4-0.2-3,0.9l-4.1,7.4
			c-0.4,0.7-0.4,1.6,0.1,2.3c0.4,0.6,1.1,1,1.9,1c0,0,0.1,0,0.1,0l8.4-0.6c1.2-0.1,2.1-1.1,2.1-2.4C131.1,814.8,130,813.9,128.8,814
			z"/>
		<path class="st2" d="M295.8,804c-1-0.7-2.4-0.4-3.1,0.7l-2.5,3.9c-0.7,1-0.4,2.4,0.7,3.1c0.4,0.2,0.8,0.3,1.2,0.3
			c0.7,0,1.4-0.4,1.9-1l2.5-3.9C297.2,806.1,296.9,804.7,295.8,804z"/>
		<path class="st2" d="M320.3,818.3c-1-0.7-2.4-0.4-3.1,0.7l-2.5,3.9c-0.7,1-0.4,2.4,0.7,3.1c0.4,0.2,0.8,0.3,1.2,0.3
			c0.7,0,1.4-0.4,1.9-1l2.5-3.9C321.7,820.4,321.4,819,320.3,818.3z"/>
		<path class="st2" d="M307.1,808.3c-0.6-1.1-1.9-1.5-3-0.9c-1.1,0.6-1.5,1.9-0.9,3l2.1,3.8L301,814c-1.2-0.1-2.3,0.8-2.4,2.1
			c-0.1,1.2,0.8,2.3,2.1,2.4l8.4,0.6c0,0,0.1,0,0.1,0c0.8,0,1.5-0.4,1.9-1c0.4-0.7,0.5-1.6,0.1-2.3L307.1,808.3z"/>
		<path class="st2" d="M178.5,801.9l4-7.4c0.6-1.1,0.2-2.4-0.9-3c-1.1-0.6-2.4-0.2-3,0.9l-2.1,3.8l-2.1-3.8c-0.6-1.1-1.9-1.5-3-0.9
			c-1.1,0.6-1.5,1.9-0.9,3l4,7.4c0.4,0.7,1.1,1.2,1.9,1.2C177.4,803.1,178.1,802.6,178.5,801.9z"/>
		<path class="st2" d="M199.5,801.9c0.4,0.7,1.1,1.2,1.9,1.2c0.8,0,1.6-0.4,1.9-1.2l4-7.4c0.6-1.1,0.2-2.4-0.9-3
			c-1.1-0.6-2.4-0.2-3,0.9l-2.1,3.8l-2.1-3.8c-0.6-1.1-1.9-1.5-3-0.9c-1.1,0.6-1.5,1.9-0.9,3L199.5,801.9z"/>
		<path class="st2" d="M224.5,801.9c0.4,0.7,1.1,1.2,1.9,1.2c0.8,0,1.6-0.4,1.9-1.2l4-7.4c0.6-1.1,0.2-2.4-0.9-3
			c-1.1-0.6-2.4-0.2-3,0.9l-2.1,3.8l-2.1-3.8c-0.6-1.1-1.9-1.5-3-0.9c-1.1,0.6-1.5,1.9-0.9,3L224.5,801.9z"/>
		<path class="st2" d="M249.9,801.9c0.4,0.7,1.1,1.2,1.9,1.2c0.8,0,1.6-0.4,1.9-1.2l4-7.4c0.6-1.1,0.2-2.4-0.9-3
			c-1.1-0.6-2.4-0.2-3,0.9l-2.1,3.8l-2.1-3.8c-0.6-1.1-1.9-1.5-3-0.9c-1.1,0.6-1.5,1.9-0.9,3L249.9,801.9z"/>
	</g>
</g>
<g>
	<path class="st0" d="M281.5,660.9c-13.7,2.9-36,4.8-61.2,4.8c-41.5,0-75.1-5.1-75.4-11.5c5.8-1.3,13.3-2.3,21.8-3.1h78.8
		C266.9,653.2,281.3,656.8,281.5,660.9z"/>
	<path class="st9" d="M261.7,582.1c-11.2,1.4-25.7,2.3-41.6,2.3c-17.8,0-33.9-1.1-45.5-2.8c2.6-2.6,6.1-4.2,10-4.2
		c1,0,1.9,0.1,2.9,0.3c-0.1-0.3-0.1-0.7-0.1-1c0-0.7,0.1-1.3,0.3-1.9c0.8-2.3,3-4,5.6-4c1.1,0,2,0.3,2.9,0.8c3.2-3.9,8-6.3,13.4-6.3
		c5.4,0,10.2,2.4,13.4,6.3c1-0.5,2.2-0.7,3.3-0.7c2.7,0,5,1.3,6.5,3.3c0.7,1,1.2,2.1,1.4,3.4c2.4,0.2,4.5,0.9,6.4,2.1
		c0.4-2.2,2-4,4-4.8c0.7-0.3,1.5-0.4,2.4-0.4c1.2,0,2.3,0.3,3.3,0.9c1.7,1,2.9,2.8,3.1,4.9c0.4-0.1,0.9-0.1,1.3-0.1
		C257.5,580,259.8,580.8,261.7,582.1z"/>
	<g>
		<path class="st0" d="M158.9,605.5l-1.8-1.8c-0.4-0.4-0.4-1.1,0-1.5c0.2-0.2,0.4-0.3,0.6-0.3c0.3,0,0.6,0.1,0.9,0.3l0.2,0.2
			l3.1,3.1h8l-5.7-5.7h-4.7c-0.6,0-1-0.5-1-1c0-0.5,0.4-0.9,0.8-1c0.1,0,0.1,0,0.2,0h2.6l-1.4-1.4c-0.1-0.1-0.1-0.2-0.2-0.2
			c-0.5-0.7-0.4-1.6,0.2-2.2c0.7-0.7,1.7-0.7,2.4,0l0.7,0.7l0.7,0.7v-2.6c-3.4-0.4-6.6-0.9-9.3-1.5c0.2,4.9,0.8,9.7,1.9,14.2H158.9z
			"/>
		<path class="st0" d="M157.9,608.9c0.1,0.2,0.2,0.5,0.2,0.7l0.7-0.7H157.9z"/>
		<path class="st0" d="M167.3,611.5l2.6-2.6h-8l-3,3c0.3,0.9,0.6,1.8,0.9,2.7h4.4L167.3,611.5z"/>
		<path class="st0" d="M166.6,597.5l4.8,4.8l0.9,0.9v-8l-1.7-1.7c-1.4-0.1-2.7-0.3-4-0.4V597.5z"/>
		<path class="st0" d="M183.5,594.4v0.9l0.9-0.9C184.1,594.4,183.8,594.4,183.5,594.4z"/>
		<path class="st0" d="M181.4,594.3c-1.5-0.1-3.1-0.2-4.6-0.3l-1.1,1.1v8l5.7-5.7V594.3z"/>
		<path class="st0" d="M161,617.8l0.6-0.6l0.5-0.5h-1.6C160.7,617.1,160.9,617.4,161,617.8z"/>
		<path class="st0" d="M235.3,652c0.6,0,1.2-0.1,1.8-0.2v-1.6l-1.4,1.4C235.6,651.9,235.4,651.9,235.3,652z"/>
		<path class="st0" d="M234.7,628.9l-1.2-1.2c-0.3,0.4-0.7,0.8-1,1.2H234.7z"/>
		<path class="st0" d="M248.3,642.5v7.8c1.4-0.3,2.6-0.6,3.6-1c0,0,0,0,0,0c0.5-0.5,1-1.1,1.5-1.6L248.3,642.5z"/>
		<path class="st0" d="M258.7,640.1h-8l2.6,2.6l2.3,2.3c1.2-1.5,2.3-3,3.4-4.6L258.7,640.1z"/>
		<path class="st0" d="M244.9,642.5l-5.7,5.7v3.5c1.9-0.2,3.6-0.4,5.2-0.7l0.4-0.4V642.5z"/>
		<path class="st0" d="M233.3,651.7c-0.1-0.1-0.2-0.3-0.3-0.4c-0.1-0.3-0.2-0.5-0.2-0.8c0-0.4,0.2-0.8,0.5-1.2l0.9-0.9l0.5-0.5h-2.6
			c-0.6,0-1-0.5-1-1c0-0.6,0.5-1,1-1h4.7l3.1-3.1l2.6-2.6h-8l-3.3,3.3c-0.4,0.4-1,0.4-1.4,0.1c0,0-0.1-0.1-0.1-0.1
			c-0.2-0.2-0.3-0.5-0.3-0.7c0-0.3,0.1-0.5,0.3-0.7l1.8-1.8h-2c-0.6,0-1.1-0.3-1.4-0.7c-0.2-0.3-0.3-0.6-0.3-1
			c0-0.6,0.3-1.1,0.7-1.4c0.3-0.2,0.6-0.3,1-0.3h2l-1.8-1.8c-0.4-0.4-0.4-1.1,0-1.5c0.2-0.2,0.4-0.3,0.6-0.3c0.3,0,0.6,0.1,0.9,0.3
			l0.2,0.2l3.1,3.1h8l-5.7-5.7h-4.7c-0.4,0-0.8-0.3-1-0.6c-0.4,0.4-0.8,0.9-1.2,1.3c-1,1-2,1.9-2.9,2.7c-3,2.5-5.5,4.1-6.8,4.1
			c-4.1,0-22.1-16.4-22.1-28.9c0-2,0.4-3.9,1.2-5.6c0-0.1,0.1-0.2,0.1-0.3c1.9-4.2,5.9-7.1,10.5-7.1c4.4,0,8.2,2.6,10.3,6.6
			c2-3.9,5.9-6.6,10.3-6.6c6.6,0,11.8,5.8,11.8,13c0,5-2.9,10.6-6.7,15.6c0,0,0,0,0,0l0.7,0.7l0.7,0.7v-2.6c0-0.6,0.5-1,1-1
			c0.6,0,1,0.5,1,1v4.7l4.8,4.8l0.9,0.9v-8l-3.3-3.3c-0.4-0.4-0.4-1.1,0-1.5c0.4-0.4,1.1-0.4,1.5,0l1.3,1.3l0.5,0.5v-2
			c0-0.9,0.8-1.7,1.7-1.7s1.7,0.8,1.7,1.7v2l1.8-1.8c0.4-0.4,1.1-0.4,1.5,0c0.4,0.4,0.4,1.1,0,1.5l-1,1l-2.3,2.3v8l5.7-5.7v-4.7
			c0-0.6,0.5-1,1-1c0.6,0,1,0.5,1,1v2.6l1.4-1.4c0.7-0.7,1.7-0.7,2.4,0c0.7,0.7,0.7,1.7,0,2.4l-1.4,1.4h2.6c0.6,0,1,0.5,1,1
			c0,0.6-0.5,1-1,1h-4.7l-5.7,5.7h8l3.3-3.3c0.3-0.3,0.8-0.4,1.2-0.2c3.3-6.6,5.7-13.9,7-21.6c-0.8-0.1-1.5-0.8-1.5-1.7v-2l-1.8,1.8
			c-0.4,0.4-1,0.4-1.4,0.1c0,0-0.1-0.1-0.1-0.1c-0.4-0.4-0.4-1.1,0-1.5l2.4-2.4l0.9-0.9v-8l-5.7,5.7v4.7c0,0.5-0.4,1-0.9,1
			c0,0-0.1,0-0.1,0c-0.6,0-1-0.5-1-1v-2.6l-1.4,1.4c-0.3,0.3-0.8,0.5-1.2,0.5c-0.4,0-0.9-0.2-1.2-0.5c-0.1-0.1-0.2-0.3-0.3-0.4
			c-0.1-0.3-0.2-0.5-0.2-0.8c0-0.4,0.2-0.8,0.5-1.2l0.9-0.9l0.5-0.5H256c-0.6,0-1-0.5-1-1c0-0.6,0.5-1,1-1h4.7l3.1-3.1l2.6-2.6h-8
			l-3.3,3.3c-0.4,0.4-1,0.4-1.4,0.1c0,0-0.1-0.1-0.1-0.1c-0.2-0.2-0.3-0.5-0.3-0.7c0-0.3,0.1-0.5,0.3-0.7l1.8-1.8h-2
			c-0.6,0-1.1-0.3-1.4-0.7c0-0.1-0.1-0.1-0.1-0.2c-9.9,0.9-21.7,1.5-34.4,1.5c-1.9,0-3.8,0-5.6,0c-1.9,0-3.7,0-5.7,0
			c-6.4,0-12.7-0.1-18.5-0.4c0.2,0.6,0.1,1.2-0.4,1.7l-1.4,1.4h2.6c0.6,0,1,0.5,1,1c0,0.6-0.5,1-1,1h-4.7l-5.7,5.7h8l3.3-3.3
			c0.4-0.4,1.1-0.4,1.5,0c0.4,0.4,0.4,1.1,0,1.5l-1.8,1.8h2c0.9,0,1.7,0.8,1.7,1.7c0,0.8-0.5,1.4-1.2,1.6c-0.2,0.1-0.3,0.1-0.5,0.1
			h-2l1.8,1.8c0.1,0.1,0.2,0.3,0.3,0.4c0.1,0.4,0,0.8-0.3,1.1c-0.4,0.4-1.1,0.4-1.5,0l-3.3-3.3h-8l2.6,2.6l3.1,3.1h4.7
			c0.4,0,0.7,0.2,0.9,0.5c0.1,0.1,0.1,0.3,0.1,0.5c0,0.6-0.5,1-1,1h-2.6l1.4,1.4c0.3,0.3,0.5,0.7,0.5,1.1c0,0.5-0.1,0.9-0.5,1.3
			c-0.2,0.2-0.4,0.3-0.7,0.4c-0.2,0.1-0.3,0.1-0.5,0.1c-0.4,0-0.9-0.2-1.2-0.5l-1.4-1.4v2.6c0,0.2-0.1,0.5-0.2,0.6
			c-0.2,0.2-0.4,0.4-0.7,0.4c0,0-0.1,0-0.1,0c-0.6,0-1-0.5-1-1V617l-5.7-5.7v8l3.3,3.3c0.4,0.4,0.4,1.1,0,1.5
			c-0.4,0.4-1.1,0.4-1.5,0l-1.8-1.8v2c0,0.4-0.1,0.8-0.4,1.1v0c-0.1,0.2-0.3,0.3-0.5,0.4c-0.2,0.1-0.5,0.2-0.8,0.2
			c-0.9,0-1.7-0.8-1.7-1.7v-2l-1.8,1.8c-0.4,0.4-1,0.4-1.4,0.1c0,0-0.1-0.1-0.1-0.1c-0.4-0.4-0.4-1.1,0-1.5l2.4-2.4l0.9-0.9v-8
			l-5.7,5.7v4.7c0,0.5-0.4,1-0.9,1c0,0-0.1,0-0.1,0c-0.6,0-1-0.5-1-1v-2.6l-1.4,1.4c-0.2,0.2-0.4,0.3-0.7,0.4
			c3.2,6.8,7.4,12.8,12.4,17.9c0.6-0.1,1.2,0,1.6,0.4l0.7,0.7l0.7,0.7v-2.6c0-0.6,0.5-1,1-1s1,0.5,1,1v4.7l3.2,3.2
			c0.8,0.5,1.5,1.1,2.3,1.6l0.1,0v-7.2l-3.3-3.3c-0.4-0.4-0.4-1.1,0-1.5c0.4-0.4,1.1-0.4,1.5,0l1.3,1.3l0.5,0.5v-2
			c0-0.9,0.8-1.7,1.7-1.7c0.9,0,1.7,0.8,1.7,1.7v2l1.8-1.8c0.4-0.4,1.1-0.4,1.5,0c0.4,0.4,0.4,1.1,0,1.5l-1,1l-2.3,2.3v8l5.7-5.7
			v-4.7c0-0.6,0.5-1,1-1s1,0.5,1,1v2.6l1.4-1.4c0.7-0.7,1.7-0.7,2.4,0c0.7,0.7,0.7,1.7,0,2.4l-1.4,1.4h2.6c0.6,0,1,0.5,1,1
			c0,0.6-0.5,1-1,1h-4.7l-5.1,5.1c0.9,0.2,1.9,0.4,3,0.6h4.4l3.3-3.3c0.4-0.4,1.1-0.4,1.5,0c0.4,0.4,0.4,1.1,0,1.5l-1.8,1.8h2
			c0.8,0,1.4,0.5,1.6,1.2c4.3,0.3,9.1,0.5,14.2,0.5c4.9,0,9.5-0.2,13.7-0.4C233.7,652,233.5,651.9,233.3,651.7z"/>
	</g>
	<path class="st8" d="M237,615.5c0,5.2-3.2,11.1-7.1,16.2c-1,1-2,1.9-2.9,2.7c-3,2.5-5.5,4.1-6.8,4.1c-4.1,0-22.1-16.4-22.1-28.9
		c0-2,0.4-3.9,1.2-5.6c1.6-0.9,3.4-1.4,5.3-1.4c4.4,0,8.2,2.6,10.3,6.6c2-3.9,5.9-6.6,10.3-6.6C231.7,602.5,237,608.3,237,615.5z"/>
	<g>
		<path class="st2" d="M220.2,640.6c1.9,0,4.6-1.5,8.2-4.6c1-0.9,2-1.8,3-2.8c3.1-3,13.1-13.7,13.1-23.7c0-8.4-6.3-15.3-14.1-15.3
			c-3.9,0-7.7,1.8-10.3,4.9c-2.6-3.1-6.3-4.9-10.3-4.9c-5.4,0-10.2,3.2-12.6,8.4c0,0-0.1,0.1-0.1,0.1l-0.1,0.1
			c-0.9,2-1.4,4.2-1.4,6.6C195.9,623,214.7,640.6,220.2,640.6z M201.3,604.8c0,0,0-0.1,0-0.1l0.1-0.1c1.7-3.6,4.9-5.8,8.5-5.8
			c3.4,0,6.6,2.1,8.3,5.4c0.4,0.7,1.1,1.2,2,1.2c0.8,0,1.6-0.5,2-1.2c1.7-3.3,4.9-5.4,8.3-5.4c5.3,0,9.6,4.9,9.6,10.8
			c0,6.6-6.1,15-11.8,20.6c-0.9,0.9-1.9,1.8-2.8,2.6c-3.2,2.7-5,3.5-5.3,3.5c-2.9-0.3-20-15.2-20-26.7
			C200.3,607.8,200.6,606.2,201.3,604.8z"/>
		<path class="st2" d="M265,642.6c14.1-13.1,22.5-33,22.5-54.4c0-4.5-0.4-9.1-1.1-13.6c-0.1-0.4-0.2-0.7-0.4-1
			c-0.8-2.4-5.4-6.3-30.8-8.7c-2-1-4.4-1.2-6.6-0.6c-3.5-0.2-7-0.4-10.5-0.6c-1.9-2.1-4.7-3.4-7.6-3.4c-0.9,0-1.8,0.1-2.7,0.4
			c-3.7-3.8-8.7-5.9-14-5.9c-5.3,0-10.3,2.1-14,5.9c-0.7-0.2-1.5-0.3-2.3-0.3c-3,0-5.6,1.6-7,4.1c-30.5,2.3-35.3,6.8-36,9.3
			c-0.1,0.2-0.2,0.5-0.3,0.8c-0.6,3.4-0.9,6.9-1.1,10.4c-12,0.4-21.6,10.3-21.6,22.5c0,12.4,10,22.5,22.3,22.5h11.4
			c3,4.6,6.5,8.8,10.4,12.5c-32.9,3.6-32.9,9.6-32.9,11.6c0,0.1,0,0.2,0,0.3c1.1,13.3,74.5,13.5,77.6,13.5c24.4,0,47.4-1.8,61.7-4.9
			c11-2.3,15.9-5.1,15.9-8.9C297.9,652.2,297.8,646.3,265,642.6z M271.9,578.3c-1.7-3.8-5.1-6.7-9.2-7.9c12.4,1.7,17.4,3.7,18.7,4.7
			C280.7,575.6,278.5,576.9,271.9,578.3z M197.4,565c0.6,0,1.2,0.2,1.8,0.5c0.9,0.5,2.1,0.3,2.8-0.5c2.9-3.5,7.2-5.5,11.7-5.5
			c4.5,0,8.8,2,11.7,5.5c0.6,0.8,1.7,1,2.6,0.6c0.8-0.4,1.6-0.5,2.4-0.5c1.9,0,3.6,0.9,4.7,2.4c0.5,0.7,0.9,1.5,1,2.4
			c0.2,1,1,1.8,2,1.9c2,0.2,3.8,0.8,5.5,1.8c0.6,0.4,1.4,0.4,2.1,0.1c0.7-0.3,1.2-0.9,1.3-1.6c0.3-1.4,1.3-2.7,2.6-3.2
			c1.2-0.5,2.6-0.4,3.7,0.3c1.1,0.7,1.9,1.9,2.1,3.2c0.1,0.6,0.4,1.1,0.8,1.5c0.5,0.4,1.1,0.5,1.6,0.5c0.4,0,0.7-0.1,1.1-0.1
			c3.5,0,6.7,1.9,8.5,4.8c-1.9,0.3-3.9,0.6-5.9,0.8c-11.4,1.4-26.1,2.2-41.3,2.2c-17.1,0-33.1-1-45.2-2.8c-0.9-0.1-1.8-0.3-2.6-0.4
			c1.5-1.3,3.4-2.1,5.4-2.2c0.6,0,1.3-0.3,1.7-0.8c2.3-2.8,5.6-4.4,9.2-4.4c0.8,0,1.7,0.1,2.4,0.2c0.7,0.2,1.5-0.1,2-0.6
			c0.5-0.5,0.8-1.3,0.6-2c0-0.2-0.1-0.4-0.1-0.6c0-0.4,0.1-0.8,0.2-1.2C194.4,566,195.8,565,197.4,565z M179.4,570.2
			c-1,0.7-1.8,1.4-2.6,2.3c-3.8,0.4-7.2,2.4-9.3,5.6c-5.8-1.3-7.8-2.4-8.5-3C160.3,574,165.7,571.8,179.4,570.2z M153.7,625.7
			c-9.9,0-17.9-8.1-17.9-18.1c0-9.7,7.6-17.7,17.1-18.1c0,0.7,0,1.3,0.1,1.8c0.5,12.3,3.8,24.2,9.4,34.4H153.7z M157.4,591.2
			c0-0.8-0.1-1.7-0.1-2.9c0-2.9,0.2-5.8,0.5-8.7c2.2,1.2,5.6,2.2,10.1,3.1c1.9,0.4,4.1,0.8,6.3,1.1c12.2,1.8,28.5,2.8,45.8,2.8
			c15.4,0,30.2-0.8,41.8-2.3c3.2-0.4,6.2-0.9,8.9-1.4c5.3-1,9.1-2.1,11.6-3.4c0.3,2.9,0.5,5.8,0.5,8.7c0,24-11.2,46.1-29.4,57.5
			l-1.4,1c-0.3,0.1-0.7,0.3-1,0.4c-0.1,0-0.1,0-0.2,0.1c-5.3,1.9-17.3,3.1-30.8,3.1c-16,0-27.1-1.6-31.3-3.2l-2.2-1.4
			C169.5,634.9,158.3,614,157.4,591.2z M281,658.8c-14,3-36.7,4.8-60.8,4.8c-46.1,0-71.7-6-73.2-9.4c0.8-1.4,8-5.2,33.1-7.6
			c1.4,1,2.7,2,4.2,2.9l2.4,1.5c0.1,0.1,0.2,0.1,0.3,0.2c5.4,2.2,18.4,3.6,33.1,3.6c14.3,0,26.7-1.3,32.5-3.4c0.1,0,0.1,0,0.1-0.1
			c0.6-0.2,1.1-0.5,1.6-0.7c0.1,0,0.1-0.1,0.2-0.1l1.5-1c1.4-0.9,2.8-1.9,4.2-2.9c25,2.4,32.3,6.2,33.1,7.6
			C293.1,654.6,291.1,656.6,281,658.8z"/>
	</g>
</g>
</svg>
